<svg xmlns="http://www.w3.org/2000/svg" xmlns:xlink="http://www.w3.org/1999/xlink" viewBox="0 0 1920 562.6"><defs><style>.cls-1{font-size:30px;font-family:Helvetica-Condensed-Bold,Helvetica Condensed;font-weight:700;letter-spacing:-.04em}.cls-1,.cls-13{fill:#fff}.cls-12{fill:none;stroke-miterlimit:10}.cls-3{fill:#f3b12d}.cls-12{stroke:#f3b12d}.cls-13{font-size:21.88px;font-family:ArialMT-Light,Arial}.cls-14{letter-spacing:-.01em}.cls-15{letter-spacing:-.02em}.cls-19{letter-spacing:.12em}.cls-21{letter-spacing:0}.cls-23{letter-spacing:-.02em}.cls-24{letter-spacing:.04em}.cls-25{letter-spacing:-.05em}.cls-27{letter-spacing:-.04em}.cls-31{letter-spacing:-.02em}</style><radialGradient id="未命名的渐变_460" cx="379.12" cy="279.16" r="31.21" gradientUnits="userSpaceOnUse"><stop offset="0" stop-color="#00c3ff"/><stop offset="1" stop-color="#00c3ff" stop-opacity="0"/></radialGradient><radialGradient id="未命名的渐变_460-2" cx="545.09" cy="279.16" r="31.21" xlink:href="#未命名的渐变_460"/><radialGradient id="未命名的渐变_460-3" cx="711.05" cy="279.16" r="31.21" xlink:href="#未命名的渐变_460"/><radialGradient id="未命名的渐变_460-4" cx="877.02" cy="279.16" r="31.21" xlink:href="#未命名的渐变_460"/><radialGradient id="未命名的渐变_460-5" cx="1042.98" cy="279.16" r="31.21" xlink:href="#未命名的渐变_460"/><radialGradient id="未命名的渐变_460-6" cx="1208.95" cy="279.16" r="31.21" xlink:href="#未命名的渐变_460"/><radialGradient id="未命名的渐变_460-7" cx="1375.65" cy="279.16" r="31.21" xlink:href="#未命名的渐变_460"/><radialGradient id="未命名的渐变_460-8" cx="1541.59" cy="279.16" r="31.21" xlink:href="#未命名的渐变_460"/></defs><g id="图层_2" data-name="图层 2"><g id="图层_1-2" data-name="图层 1"><text class="cls-1" transform="translate(340.3 173.98)" id="_编组_" data-name="&lt;编组&gt;">2016.8<tspan x="34.5" y="24.28">-</tspan><tspan x="0" y="51.65">2017.8</tspan></text><text class="cls-1" transform="translate(506.32 355.33)" id="_编组_2" data-name="&lt;编组&gt;">2017.9</text><path id="_路径_" data-name="&lt;路径&gt;" stroke="#dc9a2d" fill="none" stroke-miterlimit="10" d="M0 279.16h1920"/><g id="_编组_3" data-name="&lt;编组&gt;"><path id="_复合路径_" data-name="&lt;复合路径&gt;" class="cls-3" d="M379.12 310.36a31.21 31.21 0 1 1 31.21-31.2 31.23 31.23 0 0 1-31.21 31.2zm0-59.74a28.54 28.54 0 1 0 28.54 28.54 28.57 28.57 0 0 0-28.54-28.54z"/></g><g id="_编组_4" data-name="&lt;编组&gt;"><path id="_复合路径_2" data-name="&lt;复合路径&gt;" d="M379.12 310.36a31.21 31.21 0 1 1 31.21-31.2 31.23 31.23 0 0 1-31.21 31.2z" fill="url(#未命名的渐变_460)"/></g><g id="_编组_5" data-name="&lt;编组&gt;"><path id="_复合路径_3" data-name="&lt;复合路径&gt;" d="M545.09 310.36a31.21 31.21 0 1 1 31.2-31.2 31.24 31.24 0 0 1-31.2 31.2z" fill="url(#未命名的渐变_460-2)"/></g><g id="_编组_6" data-name="&lt;编组&gt;"><path id="_复合路径_4" data-name="&lt;复合路径&gt;" d="M711.05 310.36a31.21 31.21 0 1 1 31.21-31.2 31.23 31.23 0 0 1-31.21 31.2z" fill="url(#未命名的渐变_460-3)"/></g><g id="_编组_7" data-name="&lt;编组&gt;"><path id="_复合路径_5" data-name="&lt;复合路径&gt;" d="M877 310.36a31.21 31.21 0 1 1 31.2-31.2 31.24 31.24 0 0 1-31.2 31.2z" fill="url(#未命名的渐变_460-4)"/></g><g id="_编组_8" data-name="&lt;编组&gt;"><path id="_复合路径_6" data-name="&lt;复合路径&gt;" d="M1043 310.36a31.21 31.21 0 1 1 31.21-31.2 31.23 31.23 0 0 1-31.21 31.2z" fill="url(#未命名的渐变_460-5)"/></g><g id="_编组_9" data-name="&lt;编组&gt;"><path id="_复合路径_7" data-name="&lt;复合路径&gt;" d="M1209 310.36a31.21 31.21 0 1 1 31.2-31.2 31.24 31.24 0 0 1-31.2 31.2z" fill="url(#未命名的渐变_460-6)"/></g><g id="_编组_10" data-name="&lt;编组&gt;"><path id="_复合路径_8" data-name="&lt;复合路径&gt;" d="M1375.65 310.36a31.21 31.21 0 1 1 31.2-31.2 31.24 31.24 0 0 1-31.2 31.2z" fill="url(#未命名的渐变_460-7)"/></g><g id="_编组_11" data-name="&lt;编组&gt;"><path id="_复合路径_9" data-name="&lt;复合路径&gt;" d="M1541.59 310.36a31.21 31.21 0 1 1 31.21-31.2 31.23 31.23 0 0 1-31.21 31.2z" fill="url(#未命名的渐变_460-8)"/></g><path id="_路径_2" data-name="&lt;路径&gt;" class="cls-12" d="M379.12 323.24A44.09 44.09 0 0 1 335 279.16"/><path id="_路径_3" data-name="&lt;路径&gt;" class="cls-12" d="M545.09 235.08a44.08 44.08 0 0 1 44.07 44.08"/><path id="_路径_4" data-name="&lt;路径&gt;" class="cls-12" d="M877 235.08a44.09 44.09 0 0 1 44.08 44.08"/><path id="_路径_5" data-name="&lt;路径&gt;" class="cls-12" d="M1209 235.08a44.09 44.09 0 0 1 44 44.08"/><path id="_路径_6" data-name="&lt;路径&gt;" class="cls-12" d="M1540.88 235.08a44.09 44.09 0 0 1 44.12 44.08"/><path id="_路径_7" data-name="&lt;路径&gt;" class="cls-12" d="M379.12 310.34v147.24"/><circle id="_路径_8" data-name="&lt;路径&gt;" class="cls-3" cx="379.12" cy="279.16" r="14.35" transform="rotate(-80.78 379.139 279.158)"/><circle id="_路径_9" data-name="&lt;路径&gt;" class="cls-3" cx="1540.88" cy="279.16" r="14.35" transform="rotate(-22.5 1540.881 279.167)"/><g id="_编组_12" data-name="&lt;编组&gt;"><path id="_复合路径_10" data-name="&lt;复合路径&gt;" class="cls-3" d="M1540.88 248a31.21 31.21 0 1 1-31.21 31.21 31.24 31.24 0 0 1 31.21-31.21zm0 59.75a28.54 28.54 0 1 0-28.54-28.54 28.58 28.58 0 0 0 28.54 28.49z"/></g><path id="_路径_10" data-name="&lt;路径&gt;" class="cls-12" d="M1540.88 247.98V100.74"/><circle id="_路径_11" data-name="&lt;路径&gt;" class="cls-3" cx="711.05" cy="279.16" r="14.35" transform="rotate(-80.78 711.075 279.149)"/><g id="_编组_13" data-name="&lt;编组&gt;"><path id="_复合路径_11" data-name="&lt;复合路径&gt;" class="cls-3" d="M711.05 310.36a31.21 31.21 0 1 1 31.21-31.2 31.23 31.23 0 0 1-31.21 31.2zm0-59.74a28.54 28.54 0 1 0 28.54 28.54 28.57 28.57 0 0 0-28.54-28.54z"/></g><path id="_路径_12" data-name="&lt;路径&gt;" class="cls-12" d="M711.05 323.24A44.09 44.09 0 0 1 667 279.16"/><path id="_路径_13" data-name="&lt;路径&gt;" class="cls-12" d="M711.05 310.34v147.24"/><circle id="_路径_14" data-name="&lt;路径&gt;" class="cls-3" cx="1208.95" cy="279.16" r="14.35" transform="rotate(-22.5 1208.94 279.147)"/><g id="_编组_14" data-name="&lt;编组&gt;"><path id="_复合路径_12" data-name="&lt;复合路径&gt;" class="cls-3" d="M1209 248a31.21 31.21 0 1 1-31.21 31.21A31.24 31.24 0 0 1 1209 248zm0 59.75a28.54 28.54 0 1 0-28.54-28.54A28.57 28.57 0 0 0 1209 307.7z"/></g><path id="_路径_15" data-name="&lt;路径&gt;" class="cls-12" d="M1208.95 247.98V100.74"/><circle id="_路径_16" data-name="&lt;路径&gt;" class="cls-3" cx="1042.98" cy="279.16" r="14.35" transform="rotate(-80.78 1043.017 279.145)"/><g id="_编组_15" data-name="&lt;编组&gt;"><path id="_复合路径_13" data-name="&lt;复合路径&gt;" class="cls-3" d="M1043 310.36a31.21 31.21 0 1 1 31.21-31.2 31.23 31.23 0 0 1-31.21 31.2zm0-59.74a28.54 28.54 0 1 0 28.54 28.54 28.57 28.57 0 0 0-28.54-28.54z"/></g><path id="_路径_17" data-name="&lt;路径&gt;" class="cls-12" d="M1043 323.24a44.09 44.09 0 0 1-44.08-44.08"/><path id="_路径_18" data-name="&lt;路径&gt;" class="cls-12" d="M1042.98 310.34v147.24"/><circle id="_路径_19" data-name="&lt;路径&gt;" class="cls-3" cx="877.02" cy="279.16" r="14.35" transform="rotate(-22.5 877.018 279.158)"/><g id="_编组_16" data-name="&lt;编组&gt;"><path id="_复合路径_14" data-name="&lt;复合路径&gt;" class="cls-3" d="M877 248a31.21 31.21 0 1 1-31.21 31.21A31.24 31.24 0 0 1 877 248zm0 59.75a28.54 28.54 0 1 0-28.54-28.54A28.57 28.57 0 0 0 877 307.7z"/></g><path id="_路径_20" data-name="&lt;路径&gt;" class="cls-12" d="M877.02 247.98V100.74"/><circle id="_路径_21" data-name="&lt;路径&gt;" class="cls-3" cx="1374.91" cy="279.16" r="14.35" transform="rotate(-80.78 1374.953 279.136)"/><g id="_编组_17" data-name="&lt;编组&gt;"><path id="_复合路径_15" data-name="&lt;复合路径&gt;" class="cls-3" d="M1374.91 310.36a31.21 31.21 0 1 1 31.21-31.2 31.23 31.23 0 0 1-31.21 31.2zm0-59.74a28.54 28.54 0 1 0 28.54 28.54 28.57 28.57 0 0 0-28.54-28.54z"/></g><path id="_路径_22" data-name="&lt;路径&gt;" class="cls-12" d="M1374.91 323.24a44.08 44.08 0 0 1-44.07-44.08"/><path id="_路径_23" data-name="&lt;路径&gt;" class="cls-12" d="M1374.91 310.34v147.24"/><circle id="_路径_24" data-name="&lt;路径&gt;" class="cls-3" cx="545.09" cy="279.16" r="14.35" transform="rotate(-22.5 545.097 279.168)"/><g id="_编组_18" data-name="&lt;编组&gt;"><path id="_复合路径_16" data-name="&lt;复合路径&gt;" class="cls-3" d="M545.09 248a31.21 31.21 0 1 1-31.21 31.21A31.24 31.24 0 0 1 545.09 248zm0 59.75a28.54 28.54 0 1 0-28.54-28.54 28.57 28.57 0 0 0 28.54 28.49z"/></g><path id="_路径_25" data-name="&lt;路径&gt;" class="cls-12" d="M545.09 247.98V100.74"/><text class="cls-13" transform="translate(345.07 501.18)" id="_编组_19" data-name="&lt;编组&gt;">Project<tspan x="-22.39" y="28.4">Prepar</tspan><tspan class="cls-14" x="43.26" y="28.4">a</tspan><tspan x="55.21" y="28.4">tion</tspan></text><text class="cls-13" transform="translate(485.1 47.18)" id="_编组_20" data-name="&lt;编组&gt;">D<tspan class="cls-15" x="15.8" y="0">R</tspan><tspan x="29.98" y="0">C Project</tspan><tspan x="25.29" y="28.4">Ki</tspan><tspan x="44.74" y="28.4" letter-spacing="-.02em">c</tspan><tspan x="56.47" y="28.4" letter-spacing="-.03em">k</tspan><tspan x="66.8" y="28.4">o</tspan><tspan x="78.97" y="28.4" letter-spacing=".05em">f</tspan><tspan class="cls-19" x="86.03" y="28.4">f</tspan></text><path id="_路径_26" data-name="&lt;路径&gt;" class="cls-3" d="M383.84 457.58a4.72 4.72 0 1 1-4.72-4.72 4.72 4.72 0 0 1 4.72 4.72z"/><text class="cls-1" transform="translate(654.04 225.63)" id="_编组_21" data-name="&lt;编组&gt;">2017.9-10</text><text class="cls-13" transform="translate(631.74 501.18)" id="_编组_22" data-name="&lt;编组&gt;">D<tspan class="cls-15" x="15.8" y="0">R</tspan><tspan x="29.98" y="0">C Distri</tspan><tspan x="101.69" y="0" letter-spacing="-.01em">b</tspan><tspan class="cls-21" x="114.84" y="0">uted</tspan><tspan x="-25.75" y="28.4">Pro</tspan><tspan class="cls-14" x="7.08" y="28.4">f</tspan><tspan x="12.94" y="28.4">essional Se</tspan><tspan x="124.83" y="28.4" letter-spacing=".05em">r</tspan><tspan x="133.3" y="28.4">vices</tspan><tspan x="1.42" y="56.81">Pl</tspan><tspan class="cls-14" x="19.65" y="56.81">a</tspan><tspan x="31.6" y="56.81">t</tspan><tspan class="cls-23" x="37.68" y="56.81">f</tspan><tspan class="cls-21" x="43.35" y="56.81">o</tspan><tspan class="cls-24" x="55.52" y="56.81">r</tspan><tspan class="cls-21" x="63.59" y="56.81">m Design</tspan></text><path id="_路径_27" data-name="&lt;路径&gt;" class="cls-3" d="M715.77 457.58a4.72 4.72 0 1 1-4.72-4.72 4.72 4.72 0 0 1 4.72 4.72z"/><text class="cls-1" transform="translate(992.92 225.63)" id="_编组_23" data-name="&lt;编组&gt;">2018.1-3</text><text class="cls-13" transform="translate(939.23 501.18)" id="_编组_24" data-name="&lt;编组&gt;">D<tspan class="cls-15" x="15.8" y="0">R</tspan><tspan x="29.98" y="0">C </tspan><tspan class="cls-25" x="51.86" y="0">D</tspan><tspan class="cls-14" x="66.66" y="0">A</tspan><tspan x="81.03" y="0">pp Prototype</tspan><tspan x="11.35" y="28.4">V2.0 D</tspan><tspan x="77.02" y="28.4" letter-spacing="-.02em">e</tspan><tspan class="cls-27" x="88.73" y="28.4">v</tspan><tspan x="98.86" y="28.4">elopment</tspan></text><path id="_路径_28" data-name="&lt;路径&gt;" class="cls-3" d="M1047.7 457.58a4.72 4.72 0 1 1-4.72-4.72 4.72 4.72 0 0 1 4.72 4.72z"/><text class="cls-1" transform="translate(1324.86 225.63)" id="_编组_25" data-name="&lt;编组&gt;">2018.7-9</text><text class="cls-13" transform="translate(1308.78 501.18)" id="_编组_26" data-name="&lt;编组&gt;">D<tspan class="cls-15" x="15.8" y="0">R</tspan><tspan x="29.98" y="0">C Pl</tspan><tspan class="cls-14" x="70.09" y="0">a</tspan><tspan x="82.04" y="0">t</tspan><tspan class="cls-23" x="88.12" y="0">f</tspan><tspan class="cls-21" x="93.79" y="0">o</tspan><tspan class="cls-24" x="105.96" y="0">r</tspan><tspan class="cls-21" x="114.03" y="0">m</tspan><tspan x="-6.63" y="28.4" letter-spacing="-.05em">F</tspan><tspan x="4.53" y="28.4">o</tspan><tspan x="16.7" y="28.4" letter-spacing=".04em">r</tspan><tspan x="24.77" y="28.4">mal Laun</tspan><tspan x="114.78" y="28.4" letter-spacing="-.01em">c</tspan><tspan x="126.73" y="28.4">h</tspan></text><path id="_路径_29" data-name="&lt;路径&gt;" class="cls-3" d="M1379.63 457.58a4.72 4.72 0 1 1-4.72-4.72 4.72 4.72 0 0 1 4.72 4.72z"/><path id="_路径_30" data-name="&lt;路径&gt;" class="cls-3" d="M549.81 100.74a4.72 4.72 0 1 1-4.72-4.74 4.72 4.72 0 0 1 4.72 4.74z"/><text class="cls-1" transform="translate(813.16 355.33)" id="_编组_27" data-name="&lt;编组&gt;">2017.10-12</text><text class="cls-13" transform="translate(773.27 47.18)" id="_编组_28" data-name="&lt;编组&gt;">D<tspan class="cls-15" x="15.8" y="0">R</tspan><tspan x="29.98" y="0">C </tspan><tspan class="cls-25" x="51.86" y="0">D</tspan><tspan class="cls-14" x="66.66" y="0">A</tspan><tspan x="81.03" y="0">pp Prototype</tspan><tspan x="14.39" y="28.4">V1.0 D</tspan><tspan class="cls-31" x="80.06" y="28.4">e</tspan><tspan class="cls-27" x="91.77" y="28.4">v</tspan><tspan x="101.9" y="28.4">elopment</tspan></text><path id="_路径_31" data-name="&lt;路径&gt;" class="cls-3" d="M881.74 100.74A4.72 4.72 0 1 1 877 96a4.72 4.72 0 0 1 4.74 4.74z"/><text class="cls-1" transform="translate(1158.89 355.33)" id="_编组_29" data-name="&lt;编组&gt;">2018.4-6</text><text class="cls-13" transform="translate(1142.82 47.18)" id="_编组_30" data-name="&lt;编组&gt;">D<tspan class="cls-15" x="15.8" y="0">R</tspan><tspan x="29.98" y="0">C Pl</tspan><tspan class="cls-14" x="70.09" y="0">a</tspan><tspan x="82.04" y="0">t</tspan><tspan class="cls-23" x="88.12" y="0">f</tspan><tspan class="cls-21" x="93.79" y="0">o</tspan><tspan class="cls-24" x="105.96" y="0">r</tspan><tspan class="cls-21" x="114.03" y="0">m</tspan><tspan x="7.77" y="28.4">System </tspan><tspan x="85.59" y="28.4" letter-spacing="-.11em">T</tspan><tspan class="cls-21" x="95.3" y="28.4">est</tspan></text><path id="_路径_32" data-name="&lt;路径&gt;" class="cls-3" d="M1213.67 100.74A4.72 4.72 0 1 1 1209 96a4.72 4.72 0 0 1 4.67 4.74z"/><text class="cls-1" transform="translate(1502.1 355.33)" id="_编组_31" data-name="&lt;编组&gt;">2018.9<tspan x="34.5" y="24.28">-</tspan><tspan x="0" y="48.55">2019.3</tspan></text><text class="cls-13" transform="translate(1456.36 18.78)" id="_编组_32" data-name="&lt;编组&gt;">Global Promotion<tspan x="-1.81" y="28.4">and D</tspan><tspan class="cls-31" x="57.78" y="28.4">e</tspan><tspan class="cls-27" x="69.49" y="28.4">v</tspan><tspan class="cls-21" x="79.62" y="28.4">elopment</tspan><tspan x="-17.5" y="56.81">o</tspan><tspan class="cls-19" x="-5.33" y="56.81">f</tspan><tspan x="3.32" y="56.81"> other </tspan><tspan class="cls-14" x="65.35" y="56.81">A</tspan><tspan x="79.73" y="56.81" letter-spacing="0">pplic</tspan><tspan class="cls-14" x="128.36" y="56.81">a</tspan><tspan x="140.31" y="56.81">tions</tspan></text><path id="_路径_33" data-name="&lt;路径&gt;" class="cls-3" d="M1545.6 100.74a4.72 4.72 0 1 1-4.72-4.72 4.72 4.72 0 0 1 4.72 4.72z"/></g></g></svg>