<svg xmlns="http://www.w3.org/2000/svg" xmlns:xlink="http://www.w3.org/1999/xlink" viewBox="0 0 647.91 519.82"><defs><style>.cls-1,.cls-10,.cls-13,.cls-46{fill:none;stroke-miterlimit:10}.cls-1,.cls-46{stroke:#f2b02d}.cls-1,.cls-13{stroke-width:1.36px}.cls-2{fill:#f2b02d}.cls-11,.cls-12,.cls-16,.cls-9{fill:#fff}.cls-10{stroke:#fff;stroke-width:.91px}.cls-11{font-size:10px;font-family:ArialMT,Arial}.cls-12{font-size:11px}.cls-12,.cls-16{font-family:Arial-BoldMT,Arial;font-weight:700}.cls-13{stroke:#00c2ff}.cls-16{font-size:13px}.cls-21{fill:#d6902f}.cls-22{fill:#d48e2f}.cls-23{fill:#d28c2f}.cls-24{fill:#d08a30}.cls-25{fill:#ce8830}.cls-26{fill:#cc8630}.cls-27{fill:#ca8430}.cls-28{fill:#c88230}.cls-29{fill:#c68031}.cls-30{fill:#c47e31}.cls-31{fill:#c27c31}.cls-32{fill:#bf7a31}.cls-33{fill:#bd7831}.cls-34{fill:#bb7631}.cls-35{fill:#b97432}.cls-36{fill:#b77232}.cls-37{fill:#b57032}.cls-38{fill:#b36e32}.cls-39{fill:#b16c32}.cls-40{fill:#af6a33}.cls-41{fill:#ad6833}.cls-42{fill:#ab6633}.cls-46{stroke-width:1.46px}.cls-47{letter-spacing:-.02em}.cls-48{letter-spacing:-.11em}</style><linearGradient id="未命名的渐变_4023" x1="140.78" y1="551.46" x2="140.78" y2="84.21" gradientUnits="userSpaceOnUse"><stop offset="0" stop-color="#fff"/><stop offset="1"/></linearGradient><linearGradient id="未命名的渐变_4023-2" x1="325.92" y1="560.03" x2="325.92" y2="48.65" xlink:href="#未命名的渐变_4023"/><linearGradient id="未命名的渐变_4023-3" x1="44.29" y1="504.28" x2="44.29" y2="138.97" xlink:href="#未命名的渐变_4023"/><linearGradient id="未命名的渐变_4023-4" x1="603.67" y1="513.81" x2="603.67" y2="131.39" xlink:href="#未命名的渐变_4023"/><linearGradient id="未命名的渐变_4023-5" x1="501.05" y1="560.03" x2="501.05" y2="48.65" xlink:href="#未命名的渐变_4023"/><linearGradient id="未命名的渐变_4023-6" x1="316.14" y1="560.03" x2="316.14" y2="48.65" xlink:href="#未命名的渐变_4023"/><radialGradient id="未命名的渐变_4" cx="326.46" cy="172.47" r="171.26" gradientTransform="matrix(1 0 0 .62 0 65.24)" gradientUnits="userSpaceOnUse"><stop offset=".61" stop-color="#00c2ff" stop-opacity="0"/><stop offset=".69" stop-color="#00c2ff" stop-opacity=".01"/><stop offset=".74" stop-color="#00c2ff" stop-opacity=".05"/><stop offset=".78" stop-color="#00c2ff" stop-opacity=".1"/><stop offset=".82" stop-color="#00c2ff" stop-opacity=".19"/><stop offset=".86" stop-color="#00c2ff" stop-opacity=".3"/><stop offset=".9" stop-color="#00c2ff" stop-opacity=".43"/><stop offset=".93" stop-color="#00c2ff" stop-opacity=".59"/><stop offset=".97" stop-color="#00c2ff" stop-opacity=".77"/><stop offset="1" stop-color="#00c2ff" stop-opacity=".98"/><stop offset="1" stop-color="#00c2ff"/></radialGradient><radialGradient id="未命名的渐变_4-2" cx="326.46" cy="174.19" r="199.69" gradientTransform="matrix(1 0 0 .62 0 65.89)" xlink:href="#未命名的渐变_4"/><radialGradient id="未命名的渐变_6" cx="326.61" cy="306.51" r="227" gradientTransform="matrix(1 0 0 .62 0 117.4)" gradientUnits="userSpaceOnUse"><stop offset=".68" stop-color="#f2b02d" stop-opacity="0"/><stop offset=".73" stop-color="#f2b02d" stop-opacity=".01"/><stop offset=".78" stop-color="#f2b02d" stop-opacity=".06"/><stop offset=".81" stop-color="#f2b02d" stop-opacity=".13"/><stop offset=".85" stop-color="#f2b02d" stop-opacity=".23"/><stop offset=".89" stop-color="#f2b02d" stop-opacity=".36"/><stop offset=".92" stop-color="#f2b02d" stop-opacity=".52"/><stop offset=".96" stop-color="#f2b02d" stop-opacity=".71"/><stop offset=".99" stop-color="#f2b02d" stop-opacity=".92"/><stop offset="1" stop-color="#f2b02d"/></radialGradient><radialGradient id="未命名的渐变_5" cx="328.22" cy="174.17" r="345.67" gradientTransform="matrix(1 0 0 1.33 0 -57.03)" gradientUnits="userSpaceOnUse"><stop offset=".47" stop-color="#f2b02d" stop-opacity="0"/><stop offset=".59" stop-color="#f2b02d" stop-opacity=".01"/><stop offset=".66" stop-color="#f2b02d" stop-opacity=".05"/><stop offset=".72" stop-color="#f2b02d" stop-opacity=".11"/><stop offset=".78" stop-color="#f2b02d" stop-opacity=".19"/><stop offset=".83" stop-color="#f2b02d" stop-opacity=".3"/><stop offset=".87" stop-color="#f2b02d" stop-opacity=".43"/><stop offset=".92" stop-color="#f2b02d" stop-opacity=".59"/><stop offset=".96" stop-color="#f2b02d" stop-opacity=".78"/><stop offset="1" stop-color="#f2b02d" stop-opacity=".98"/><stop offset="1" stop-color="#f2b02d"/></radialGradient><linearGradient id="未命名的渐变_2" x1="301.96" y1="52.04" x2="143.11" y2="174.3" gradientUnits="userSpaceOnUse"><stop offset="0" stop-color="#f2b02d" stop-opacity="0"/><stop offset="1" stop-color="#f2b02d"/></linearGradient><linearGradient id="未命名的渐变_2-2" x1="-13121.77" y1="530.95" x2="-13280.62" y2="653.2" gradientTransform="rotate(180 -6385.065 411.595)" xlink:href="#未命名的渐变_2"/></defs><g id="图层_2" data-name="图层 2"><g id="图层_1-2" data-name="图层 1"><g id="_编组_" data-name="&lt;编组&gt;"><g id="_编组_2" data-name="&lt;编组&gt;"><g id="_编组_3" data-name="&lt;编组&gt;"><path id="_路径_" data-name="&lt;路径&gt;" class="cls-1" d="M71.5 363.59a6.6 6.6 0 0 0-4.08 1.92c-1.66 1.78-1.28 5.59-1.15 6.61 0 0-1.53-.13-1.53 1a7.82 7.82 0 0 0 1 3.57 2.85 2.85 0 0 0 1.91 1.15 11.9 11.9 0 0 0 1.79 3.56 6.79 6.79 0 0 0 4.46 2.43 6.64 6.64 0 0 0 4.33-2.3 7.67 7.67 0 0 0 1.91-3.82s1.15 0 1.4-.51.51-2.3.77-2.81a1.89 1.89 0 0 0 .13-1.65c-.26-.64-1.66-.51-1.66-.51a13.28 13.28 0 0 0 .25-5.22 4.39 4.39 0 0 0-3.03-3.45 13.43 13.43 0 0 0-4.49-.82 5 5 0 0 0-2.01.85z"/><path id="_路径_2" data-name="&lt;路径&gt;" class="cls-1" d="M71 401.4l-3.56-14.74-3.59 1.34-3 .59s-3.34.89-4.38 1.19-2.23 1.33-2.15 2.15 1.11 11.23 1.11 11.23"/><path id="_路径_3" data-name="&lt;路径&gt;" class="cls-1" d="M92.49 403.16s1-10.41 1.12-11.23-1.12-1.86-2.16-2.15-4.38-1.19-4.38-1.19l-3-.59-3.57-1.34L77 401.4"/></g><g id="_编组_4" data-name="&lt;编组&gt;"><path id="_路径_4" data-name="&lt;路径&gt;" class="cls-1" d="M69.39 384.69l4.59 1.97-1.43 2.72-5.1-2.72 1.94-1.97z"/><path id="_路径_5" data-name="&lt;路径&gt;" class="cls-1" d="M78.56 384.69l-4.58 1.97 1.43 2.72 5.09-2.72-1.94-1.97z"/></g></g><g id="_编组_5" data-name="&lt;编组&gt;"><g id="_编组_6" data-name="&lt;编组&gt;"><path id="_路径_6" data-name="&lt;路径&gt;" class="cls-1" transform="rotate(-89.82 569.203 393.757)" d="M555.88 384.76h26.62v18h-26.62z"/><path id="_路径_7" data-name="&lt;路径&gt;" class="cls-1" d="M557.33 407.04l23.63.07"/><path id="_路径_8" data-name="&lt;路径&gt;" class="cls-1" d="M553.12 410.09l32.03.1"/><path id="_路径_9" data-name="&lt;路径&gt;" class="cls-1" d="M563.35 403.39l11.61.04"/><path id="_路径_10" data-name="&lt;路径&gt;" class="cls-1" d="M563.36 400.22l11.61.03"/><path id="_路径_11" data-name="&lt;路径&gt;" class="cls-1" d="M563.37 397.04l11.61.04"/><path id="_路径_12" data-name="&lt;路径&gt;" class="cls-1" d="M563.38 393.87l11.61.04"/><path id="_路径_13" data-name="&lt;路径&gt;" class="cls-1" d="M563.39 390.7l11.61.04"/><path id="_路径_14" data-name="&lt;路径&gt;" class="cls-1" d="M563.4 387.53l11.61.03"/><path id="_路径_15" data-name="&lt;路径&gt;" class="cls-1" d="M563.41 384.36l11.61.03"/><path id="_路径_16" data-name="&lt;路径&gt;" class="cls-1" transform="rotate(-89.82 569.25 379.004)" d="M567.78 373.43h2.9v11.14h-2.9z"/><path id="_路径_17" data-name="&lt;路径&gt;" class="cls-1" d="M569.24 377.55l.03-13.05"/></g><g id="_编组_7" data-name="&lt;编组&gt;"><path id="_复合路径_" data-name="&lt;复合路径&gt;" class="cls-2" d="M565.58 372.3l1.49-.22a2 2 0 0 0 .7 1.29 2.54 2.54 0 0 0 1.6.45 2.41 2.41 0 0 0 1.54-.4 1.15 1.15 0 0 0 .51-.93.85.85 0 0 0-.45-.76 6.3 6.3 0 0 0-1.54-.48 15.26 15.26 0 0 1-2.29-.69 2.16 2.16 0 0 1-1-.8 2 2 0 0 1-.34-1.13 2.1 2.1 0 0 1 .28-1 2.32 2.32 0 0 1 .74-.79 3.35 3.35 0 0 1 1-.42 4.87 4.87 0 0 1 1.3-.17 5.36 5.36 0 0 1 1.83.29 2.52 2.52 0 0 1 1.17.77 2.86 2.86 0 0 1 .52 1.3l-1.47.19a1.51 1.51 0 0 0-.58-1 2.26 2.26 0 0 0-1.36-.36 2.57 2.57 0 0 0-1.49.32 1 1 0 0 0-.44.76.79.79 0 0 0 .18.5 1.43 1.43 0 0 0 .58.38l1.33.36a19.47 19.47 0 0 1 2.23.66 2.25 2.25 0 0 1 1 .75 2 2 0 0 1 .36 1.22 2.33 2.33 0 0 1-.44 1.34 2.86 2.86 0 0 1-1.27 1 4.85 4.85 0 0 1-1.88.34 4.33 4.33 0 0 1-2.64-.68 3.13 3.13 0 0 1-1.17-2.09z"/></g></g><g id="_编组_8" data-name="&lt;编组&gt;"><path id="_路径_18" data-name="&lt;路径&gt;" d="M178.67 456.57a328.13 328.13 0 0 1-56.08-26.89q-9.32-5.67-17.67-11.74c-.65.92-1.53 2.33-2 3.17q8.28 6.13 17.54 11.9a305.37 305.37 0 0 0 58.24 27.75z" fill="url(#未命名的渐变_4023)"/><path id="_路径_19" data-name="&lt;路径&gt;" d="M52.13 251.84c13.77-27.07 37.65-52.23 70.46-72.17 54.31-33 126.52-52.4 203.34-52.4s149.58 20.16 203.89 53.17c32.7 19.88 56.33 44.65 69.95 71.4h2.14c-13.84-27.12-38-52-71.31-72.66-54.68-34-127.37-52.69-204.67-52.69s-150 18.72-204.68 52.69C88 199.87 63.78 224.72 49.94 251.84z" fill="url(#未命名的渐变_4023-2)"/><path id="_路径_20" data-name="&lt;路径&gt;" d="M51.75 359.17A114.92 114.92 0 0 1 38.9 316.5c-.8 0-1.35.12-2.06.16a121.43 121.43 0 0 0 14.91 48.19z" fill="url(#未命名的渐变_4023-3)"/><path id="_路径_21" data-name="&lt;路径&gt;" d="M612.88 317.23c-1.9 19.13-8.86 37.66-20.48 55v4.48c12.89-18.63 20.56-38.63 22.54-59.42-.46-.04-1.3-.01-2.06-.06z" fill="url(#未命名的渐变_4023-4)"/><path id="_路径_22" data-name="&lt;路径&gt;" d="M545.37 419.32q-7.67 5.48-16.11 10.68a335 335 0 0 1-72.52 32.46v3.69c26.95-8.31 51.86-19.33 73.86-33q7.71-4.8 14.77-9.86z" fill="url(#未命名的渐变_4023-5)"/><path id="_路径_23" data-name="&lt;路径&gt;" d="M389.45 477.61a455 455 0 0 1-63.52 4.39 445.51 445.51 0 0 1-83.09-7.74v3.31a476.3 476.3 0 0 0 83.09 7.16 482.88 482.88 0 0 0 63.52-4.13z" fill="url(#未命名的渐变_4023-6)"/></g><path id="_路径_24" data-name="&lt;路径&gt;" class="cls-9" d="M367.97 333.42l-2.34-9.59-10.85 7.73 13.19 1.86z"/><path id="_路径_25" data-name="&lt;路径&gt;" class="cls-10" d="M567.8 280l-206.53 49.98"/><path id="_路径_26" data-name="&lt;路径&gt;" class="cls-9" d="M278.71 332.58l2.21-9.61 10.95 7.58-13.16 2.03z"/><path id="_路径_27" data-name="&lt;路径&gt;" class="cls-10" d="M79.99 281.81l205.37 47.25"/><path id="_路径_28" data-name="&lt;路径&gt;" class="cls-9" d="M373.95 390.5l-8.14 5.56-2.9-13 11.04 7.44z"/><path id="_路径_29" data-name="&lt;路径&gt;" class="cls-10" d="M405.66 445.01l-38.97-56.64"/><path id="_路径_30" data-name="&lt;路径&gt;" class="cls-9" d="M272.22 390.5l8.15 5.56 2.9-13-11.05 7.44z"/><path id="_路径_31" data-name="&lt;路径&gt;" class="cls-10" d="M240.52 445.01l38.96-56.64"/><text class="cls-11" transform="rotate(55.39 -194.234 574.678)" id="_编组_9" data-name="&lt;编组&gt;">Like</text><text class="cls-11" transform="rotate(55.39 -210.5 547.07)" id="_编组_10" data-name="&lt;编组&gt;">or Dislike</text><text class="cls-12" transform="translate(246.47 373.04)" id="_编组_11" data-name="&lt;编组&gt;">Due Diligence Result &amp; Report</text><g id="_编组_12" data-name="&lt;编组&gt;"><g id="_编组_13" data-name="&lt;编组&gt;"><path id="_矩形_" data-name="&lt;矩形&gt;" class="cls-13" d="M315.45 320.45h22.15v32.12h-22.15z"/><path id="_路径_32" data-name="&lt;路径&gt;" class="cls-13" d="M318.4 324.69h5.83"/><path id="_路径_33" data-name="&lt;路径&gt;" class="cls-13" d="M318.4 328.06h5.83"/><path id="_路径_34" data-name="&lt;路径&gt;" class="cls-13" d="M318.4 331.43h5.83"/><path id="_路径_35" data-name="&lt;路径&gt;" class="cls-13" d="M318.4 334.8h16.25"/><path id="_路径_36" data-name="&lt;路径&gt;" class="cls-13" d="M318.4 338.17h16.25"/><path id="_路径_37" data-name="&lt;路径&gt;" class="cls-13" d="M318.4 341.54h16.25"/><path id="_路径_38" data-name="&lt;路径&gt;" class="cls-13" d="M318.4 344.92h16.25"/><path id="_路径_39" data-name="&lt;路径&gt;" class="cls-13" d="M318.4 348.29h16.25"/><path id="_路径_40" data-name="&lt;路径&gt;" class="cls-13" d="M328.13 331.49l-1.47-4.55 3.86-2.8 3.86 2.8-1.48 4.55h-4.77z"/><path id="_路径_41" data-name="&lt;路径&gt;" class="cls-13" d="M326.66 326.94l3.86 1.22v-4.02"/><path id="_路径_42" data-name="&lt;路径&gt;" class="cls-13" d="M328.13 331.49l2.39-3.33 2.38 3.33"/><path id="_路径_43" data-name="&lt;路径&gt;" class="cls-13" d="M334.38 326.95l-3.86 1.21"/></g><path id="_路径_44" data-name="&lt;路径&gt;" class="cls-13" d="M315.45 324.69h-4.1v31.69h23.03v-3.81"/></g><text class="cls-11" transform="matrix(.58 -.81 .81 .58 247.15 420.06)" id="_编组_14" data-name="&lt;编组&gt;">Buy</text><text class="cls-11" transform="rotate(-14 1469.415 -1631.323)" id="_编组_15" data-name="&lt;编组&gt;">Buy</text><text class="cls-11" transform="rotate(13.49 -1174.569 963.476)" id="_编组_16" data-name="&lt;编组&gt;">Like</text><text class="cls-11" transform="rotate(13.49 -1257.902 902.6)" id="_编组_17" data-name="&lt;编组&gt;">or Dislike</text><g id="_编组_18" data-name="&lt;编组&gt;"><path id="_路径_45" data-name="&lt;路径&gt;" fill="#00c2ff" d="M330.05 299.71h-8.34l4.17 10.46 4.17-10.46z"/><path id="_路径_46" data-name="&lt;路径&gt;" class="cls-13" d="M325.88 274.17v28.25"/><path id="_路径_47" data-name="&lt;路径&gt;" stroke-dasharray="3" stroke="#00c2ff" stroke-width="1.36" fill="none" stroke-miterlimit="10" d="M325.88 232.32v40.16"/></g><text class="cls-16" transform="translate(295.33 11.15)" id="_编组_19" data-name="&lt;编组&gt;">Requestor</text><path id="_路径_48" data-name="&lt;路径&gt;" class="cls-10" d="M326.46 71.41v44.39"/><path id="_路径_49" data-name="&lt;路径&gt;" class="cls-9" d="M329.94 112.09h-6.97l3.49 8.74 3.48-8.74z"/><text class="cls-12" transform="translate(297.12 214.96)" id="_编组_20" data-name="&lt;编组&gt;">Blockchain<tspan x="10.7" y="9.76">Project</tspan></text><g id="_编组_21" data-name="&lt;编组&gt;"><path id="_路径_50" data-name="&lt;路径&gt;" class="cls-1" d="M330.55 136.65l18.96 10.95"/><path id="_路径_51" data-name="&lt;路径&gt;" class="cls-1" d="M303.41 147.6l18.96-10.95"/><path id="_路径_52" data-name="&lt;路径&gt;" class="cls-1" d="M299.54 176.44V154.3"/><path id="_路径_53" data-name="&lt;路径&gt;" class="cls-1" d="M322.53 194.18l-19.12-11.04"/><path id="_路径_54" data-name="&lt;路径&gt;" class="cls-1" d="M349.51 183.14l-19.13 11.04"/><path id="_路径_55" data-name="&lt;路径&gt;" class="cls-1" d="M353.38 154.3v22.14"/><path id="_路径_56" data-name="&lt;路径&gt;" class="cls-1" d="M317.93 170.29l-14.52 8.39"/><path id="_路径_57" data-name="&lt;路径&gt;" class="cls-1" d="M349.51 152.06l-19.18 11.08"/><path id="_路径_58" data-name="&lt;路径&gt;" class="cls-1" d="M334.98 170.29l14.53 8.39"/><path id="_路径_59" data-name="&lt;路径&gt;" class="cls-1" d="M303.41 152.06l19.18 11.08"/><path id="_路径_60" data-name="&lt;路径&gt;" class="cls-1" d="M326.46 155.53v-16.21"/><path id="_路径_61" data-name="&lt;路径&gt;" class="cls-1" d="M326.46 191.85v-22.01"/><path id="_路径_62" data-name="&lt;路径&gt;" class="cls-1" d="M330.92 165.37a4.47 4.47 0 1 1-4.46-4.47 4.47 4.47 0 0 1 4.46 4.47z"/><circle id="_路径_63" data-name="&lt;路径&gt;" class="cls-1" cx="299.54" cy="149.83" r="4.47"/><path id="_路径_64" data-name="&lt;路径&gt;" class="cls-1" d="M304 180.91a4.47 4.47 0 1 1-4.47-4.47 4.47 4.47 0 0 1 4.47 4.47z"/><path id="_路径_65" data-name="&lt;路径&gt;" class="cls-1" d="M357.84 149.83a4.47 4.47 0 1 1-4.46-4.47 4.47 4.47 0 0 1 4.46 4.47z"/><path id="_路径_66" data-name="&lt;路径&gt;" class="cls-1" d="M330.92 134.85a4.47 4.47 0 1 1-4.46-4.47 4.47 4.47 0 0 1 4.46 4.47z"/><path id="_路径_67" data-name="&lt;路径&gt;" class="cls-1" d="M330.92 196.32a4.47 4.47 0 1 1-4.46-4.47 4.46 4.46 0 0 1 4.46 4.47z"/><path id="_路径_68" data-name="&lt;路径&gt;" class="cls-1" d="M357.84 180.91a4.47 4.47 0 1 1-4.46-4.47 4.47 4.47 0 0 1 4.46 4.47z"/></g><text class="cls-16" transform="translate(52.04 224.32)" id="_编组_22" data-name="&lt;编组&gt;">Arbitrator</text><text class="cls-16" transform="translate(546.66 220.46)" id="_编组_23" data-name="&lt;编组&gt;">Subject Matter<tspan x="0" y="11.68">Experts</tspan></text><text class="cls-16" transform="translate(50.16 98.94)" id="_编组_24" data-name="&lt;编组&gt;">Project Fans</text><text class="cls-16" transform="translate(519.3 99.28)" id="_编组_25" data-name="&lt;编组&gt;">Contributors</text><ellipse id="_路径_69" data-name="&lt;路径&gt;" cx="326.46" cy="172.47" rx="172.71" ry="107.55" opacity=".6" fill="url(#未命名的渐变_4)"/><ellipse id="_路径_70" data-name="&lt;路径&gt;" cx="326.46" cy="174.19" rx="201.37" ry="125.4" fill="url(#未命名的渐变_4-2)" opacity=".3"/><path id="_路径_71" data-name="&lt;路径&gt;" d="M516.9 215c-27.2 49.21-102.19 84.57-190.44 84.57-88.61 0-163.85-35.64-190.78-85.16-31.77 25.45-50.68 57.4-50.68 92.1 0 82.87 107.88 150 240.94 150s241-67.17 241-150c-.07-34.44-18.71-66.16-50.04-91.51z" fill="url(#未命名的渐变_6)" opacity=".3"/><path id="_路径_72" data-name="&lt;路径&gt;" d="M610.83 268.35c-25.14-44-43.39-64.38-91.66-130.63a82.76 82.76 0 0 1 8.66 36.47c0 69.26-90.16 125.41-201.37 125.41s-201.38-56.15-201.38-125.41a82.61 82.61 0 0 1 8.65-36.43c.05-.79.11-1.59.18-2.39C96.43 188.64 53 245.86 53 245.86c-4 12.18-22.5 64.75-8 98.08C73.6 409.47 164.19 482.4 324.16 482.4c153.89 0 241.21-63.11 275.14-121.59 19.29-33.24 18.28-80.65 11.53-92.46z" fill="url(#未命名的渐变_5)"/><g id="_编组_26" data-name="&lt;编组&gt;"><g id="_编组_27" data-name="&lt;编组&gt;"><g id="_编组_28" data-name="&lt;编组&gt;"><path id="_路径_73" data-name="&lt;路径&gt;" class="cls-21" d="M157.76 206.41a5.55 5.55 0 0 1 2.27 9.67h7.3l-4.58-9.72.57-.27a4.86 4.86 0 0 0-1.53-9.23h-4z"/><path id="_路径_74" data-name="&lt;路径&gt;" class="cls-21" d="M156.49 206.26v-9.4h-3.06v9.4h3.06z"/><path id="_路径_75" data-name="&lt;路径&gt;" class="cls-21" d="M172.66 198.78a5.87 5.87 0 0 0-5.29 3.33v-.42a6.1 6.1 0 0 0-2.36-4.83h7.64z"/><path id="_路径_76" data-name="&lt;路径&gt;" class="cls-21" d="M172.66 216.08h-3.93l-4.31-9.14a6.18 6.18 0 0 0 2.38-2.66v.37a5.88 5.88 0 0 0 5.87 5.87z"/><path id="_路径_77" data-name="&lt;路径&gt;" class="cls-21" d="M172.66 209.25a4.6 4.6 0 0 1 0-9.2z"/><path id="_路径_78" data-name="&lt;路径&gt;" class="cls-21" d="M160.76 211.82a4.29 4.29 0 0 0-4.29-4.29h-3v8.55h3.47a4.28 4.28 0 0 0 3.82-4.26z"/></g><path class="cls-22" d="M157.76 206.36A5.55 5.55 0 0 1 160 216h7.3l-4.58-9.72.57-.27a4.86 4.86 0 0 0-1.53-9.23h-4zm-1.27-.15v-9.4h-3.06v9.4h3.06zm16.17-7.48a5.87 5.87 0 0 0-5.29 3.33v-.42a6.1 6.1 0 0 0-2.36-4.83h7.64z"/><path class="cls-22" d="M172.66 216h-3.93l-4.31-9.14a6.18 6.18 0 0 0 2.38-2.66v.37a5.88 5.88 0 0 0 5.87 5.87z"/><path class="cls-22" d="M172.66 209.2a4.6 4.6 0 0 1 0-9.2zm-11.9 2.57a4.29 4.29 0 0 0-4.29-4.29h-3V216h3.47a4.28 4.28 0 0 0 3.82-4.23z"/><path class="cls-23" d="M157.76 206.31A5.55 5.55 0 0 1 160 216h7.3l-4.58-9.72.57-.27a4.86 4.86 0 0 0-1.53-9.23h-4zm-1.27-.15v-9.4h-3.06v9.4h3.06zm16.17-7.48a5.87 5.87 0 0 0-5.29 3.33v-.42a6.1 6.1 0 0 0-2.36-4.83h7.64z"/><path class="cls-23" d="M172.66 216h-3.93l-4.31-9.14a6.18 6.18 0 0 0 2.38-2.66v.37a5.88 5.88 0 0 0 5.87 5.87z"/><path class="cls-23" d="M172.66 209.15a4.6 4.6 0 0 1 0-9.2zm-11.9 2.57a4.3 4.3 0 0 0-4.29-4.3h-3V216h3.47a4.28 4.28 0 0 0 3.82-4.28z"/><path class="cls-24" d="M157.76 206.26a5.55 5.55 0 0 1 2.27 9.67h7.3l-4.58-9.72.57-.27a4.86 4.86 0 0 0-1.53-9.23h-4zm-1.27-.15v-9.4h-3.06v9.4h3.06zm16.17-7.48a5.87 5.87 0 0 0-5.29 3.33v-.42a6.1 6.1 0 0 0-2.36-4.83h7.64z"/><path class="cls-24" d="M172.66 215.93h-3.93l-4.31-9.14a6.18 6.18 0 0 0 2.38-2.66v.37a5.88 5.88 0 0 0 5.87 5.87z"/><path class="cls-24" d="M172.66 209.1a4.6 4.6 0 0 1 0-9.2zm-11.9 2.57a4.3 4.3 0 0 0-4.29-4.3h-3v8.56h3.47a4.28 4.28 0 0 0 3.82-4.26z"/><path class="cls-25" d="M157.76 206.21a5.55 5.55 0 0 1 2.27 9.67h7.3l-4.58-9.72.57-.27a4.86 4.86 0 0 0-1.53-9.23h-4zm-1.27-.15v-9.4h-3.06v9.4h3.06zm16.17-7.48a5.87 5.87 0 0 0-5.29 3.33v-.42a6.1 6.1 0 0 0-2.36-4.83h7.64z"/><path class="cls-25" d="M172.66 215.88h-3.93l-4.31-9.14a6.18 6.18 0 0 0 2.38-2.66v.37a5.88 5.88 0 0 0 5.87 5.87z"/><path class="cls-25" d="M172.66 209.05a4.6 4.6 0 1 1 0-9.2zm-11.9 2.57a4.3 4.3 0 0 0-4.29-4.3h-3v8.56h3.47a4.28 4.28 0 0 0 3.82-4.26z"/><path class="cls-26" d="M157.76 206.16a5.55 5.55 0 0 1 2.27 9.67h7.3l-4.58-9.72.57-.27a4.86 4.86 0 0 0-1.53-9.23h-4zm-1.27-.16v-9.4h-3.06v9.4h3.06zm16.17-7.47a5.87 5.87 0 0 0-5.29 3.33v-.42a6.1 6.1 0 0 0-2.36-4.83h7.64z"/><path class="cls-26" d="M172.66 215.83h-3.93l-4.31-9.15a6.1 6.1 0 0 0 2.38-2.68v.37a5.88 5.88 0 0 0 5.87 5.87z"/><path class="cls-26" d="M172.66 209a4.6 4.6 0 0 1 0-9.2zm-11.9 2.56a4.3 4.3 0 0 0-4.29-4.29h-3v8.56h3.47a4.29 4.29 0 0 0 3.82-4.27z"/><path class="cls-27" d="M157.76 206.11a5.55 5.55 0 0 1 2.27 9.67h7.3l-4.58-9.72.57-.27a4.86 4.86 0 0 0-1.53-9.23h-4zm-1.27-.11v-9.4h-3.06v9.4h3.06zm16.17-7.52a5.87 5.87 0 0 0-5.29 3.33v-.42a6.1 6.1 0 0 0-2.36-4.83h7.64z"/><path class="cls-27" d="M172.66 215.78h-3.93l-4.31-9.15a6.1 6.1 0 0 0 2.38-2.63v.37a5.88 5.88 0 0 0 5.87 5.87z"/><path class="cls-27" d="M172.66 209a4.6 4.6 0 0 1 0-9.2zm-11.9 2.51a4.3 4.3 0 0 0-4.29-4.29h-3v8.56h3.47a4.29 4.29 0 0 0 3.82-4.27z"/><path class="cls-28" d="M157.76 206.06a5.55 5.55 0 0 1 2.27 9.67h7.3l-4.58-9.73.57-.27a4.86 4.86 0 0 0-1.53-9.23h-4zm-1.27-.15v-9.4h-3.06v9.4h3.06zm16.17-7.48a5.87 5.87 0 0 0-5.29 3.33v-.42a6.1 6.1 0 0 0-2.36-4.83h7.64z"/><path class="cls-28" d="M172.66 215.73h-3.93l-4.31-9.15a6.1 6.1 0 0 0 2.38-2.65v.37a5.88 5.88 0 0 0 5.87 5.87z"/><path class="cls-28" d="M172.66 208.9a4.6 4.6 0 0 1 0-9.2zm-11.9 2.56a4.3 4.3 0 0 0-4.29-4.29h-3v8.56h3.47a4.29 4.29 0 0 0 3.82-4.27z"/><path class="cls-29" d="M157.76 206a5.55 5.55 0 0 1 2.27 9.67h7.3l-4.58-9.67.57-.27a4.86 4.86 0 0 0-1.53-9.23h-4zm-1.27-.14v-9.4h-3.06v9.4h3.06zm16.17-7.48a5.87 5.87 0 0 0-5.29 3.33v-.42a6.1 6.1 0 0 0-2.36-4.83h7.64z"/><path class="cls-29" d="M172.66 215.68h-3.93l-4.31-9.15a6.1 6.1 0 0 0 2.38-2.65v.37a5.88 5.88 0 0 0 5.87 5.87z"/><path class="cls-29" d="M172.66 208.85a4.6 4.6 0 0 1 0-9.2zm-11.9 2.56a4.3 4.3 0 0 0-4.29-4.29h-3v8.56h3.47a4.29 4.29 0 0 0 3.82-4.27z"/><path class="cls-30" d="M157.76 206a5.55 5.55 0 0 1 2.27 9.67h7.3l-4.58-9.72.57-.27a4.86 4.86 0 0 0-1.53-9.23h-4zm-1.27-.19v-9.4h-3.06v9.4h3.06zm16.17-7.48a5.87 5.87 0 0 0-5.29 3.33v-.42a6.1 6.1 0 0 0-2.36-4.83h7.64z"/><path class="cls-30" d="M172.66 215.63h-3.93l-4.31-9.15a6.1 6.1 0 0 0 2.38-2.65v.37a5.88 5.88 0 0 0 5.87 5.87z"/><path class="cls-30" d="M172.66 208.8a4.6 4.6 0 1 1 0-9.2zm-11.9 2.56a4.3 4.3 0 0 0-4.29-4.29h-3v8.56h3.47a4.29 4.29 0 0 0 3.82-4.27z"/><path class="cls-31" d="M157.76 205.91a5.55 5.55 0 0 1 2.27 9.67h7.3l-4.58-9.72.57-.27a4.86 4.86 0 0 0-1.53-9.23h-4zm-1.27-.15v-9.4h-3.06v9.39h3.06zm16.17-7.48a5.87 5.87 0 0 0-5.29 3.33v-.42a6.1 6.1 0 0 0-2.36-4.83h7.64z"/><path class="cls-31" d="M172.66 215.58h-3.93l-4.31-9.15a6.1 6.1 0 0 0 2.38-2.65v.37a5.88 5.88 0 0 0 5.87 5.87z"/><path class="cls-31" d="M172.66 208.75a4.6 4.6 0 0 1 0-9.2zm-11.9 2.56a4.3 4.3 0 0 0-4.29-4.29h-3v8.56h3.47a4.29 4.29 0 0 0 3.82-4.27z"/><path class="cls-32" d="M157.76 205.86a5.55 5.55 0 0 1 2.27 9.67h7.3l-4.58-9.72.57-.27a4.86 4.86 0 0 0-1.53-9.23h-4zm-1.27-.15v-9.4h-3.06v9.39h3.06zm16.17-7.48a5.87 5.87 0 0 0-5.29 3.33v-.42a6.1 6.1 0 0 0-2.36-4.83h7.64z"/><path class="cls-32" d="M172.66 215.53h-3.93l-4.31-9.15a6.1 6.1 0 0 0 2.38-2.65v.37a5.88 5.88 0 0 0 5.87 5.87z"/><path class="cls-32" d="M172.66 208.7a4.6 4.6 0 0 1 0-9.2zm-11.9 2.56a4.3 4.3 0 0 0-4.29-4.29h-3v8.56h3.47a4.29 4.29 0 0 0 3.82-4.27z"/><path class="cls-33" d="M157.76 205.81a5.55 5.55 0 0 1 2.27 9.67h7.3l-4.58-9.72.57-.27a4.86 4.86 0 0 0-1.53-9.23h-4zm-1.27-.15v-9.4h-3.06v9.39h3.06zm16.17-7.48a5.87 5.87 0 0 0-5.29 3.33v-.42a6.1 6.1 0 0 0-2.36-4.83h7.64z"/><path class="cls-33" d="M172.66 215.48h-3.93l-4.31-9.15a6.1 6.1 0 0 0 2.38-2.65v.37a5.87 5.87 0 0 0 5.87 5.86z"/><path class="cls-33" d="M172.66 208.65a4.6 4.6 0 0 1 0-9.2zm-11.9 2.56a4.3 4.3 0 0 0-4.29-4.29h-3v8.56h3.47a4.29 4.29 0 0 0 3.82-4.27z"/><path class="cls-34" d="M157.76 205.76a5.55 5.55 0 0 1 2.27 9.67h7.3l-4.58-9.72.57-.27a4.86 4.86 0 0 0-1.53-9.23h-4zm-1.27-.16v-9.39h-3.06v9.39h3.06zm16.17-7.47a5.88 5.88 0 0 0-5.29 3.32v-.41a6.1 6.1 0 0 0-2.36-4.83h7.64z"/><path class="cls-34" d="M172.66 215.43h-3.93l-4.31-9.15a6.1 6.1 0 0 0 2.38-2.65v.37a5.87 5.87 0 0 0 5.87 5.86z"/><path class="cls-34" d="M172.66 208.6a4.6 4.6 0 0 1 0-9.2zm-11.9 2.56a4.3 4.3 0 0 0-4.29-4.29h-3v8.56h3.47a4.29 4.29 0 0 0 3.82-4.27z"/><path class="cls-35" d="M157.76 205.71a5.55 5.55 0 0 1 2.27 9.67h7.3l-4.58-9.72.57-.27a4.86 4.86 0 0 0-1.53-9.23h-4zm-1.27-.16v-9.39h-3.06v9.39h3.06zm16.17-7.47a5.88 5.88 0 0 0-5.29 3.32v-.41a6.1 6.1 0 0 0-2.36-4.83h7.64z"/><path class="cls-35" d="M172.66 215.38h-3.93l-4.31-9.15a6.1 6.1 0 0 0 2.38-2.65v.37a5.87 5.87 0 0 0 5.87 5.86z"/><path class="cls-35" d="M172.66 208.55a4.6 4.6 0 1 1 0-9.2zm-11.9 2.56a4.3 4.3 0 0 0-4.29-4.29h-3v8.56h3.47a4.3 4.3 0 0 0 3.82-4.27z"/><path class="cls-36" d="M157.76 205.66a5.55 5.55 0 0 1 2.27 9.67h7.3l-4.58-9.72.57-.27a4.86 4.86 0 0 0-1.53-9.23h-4zm-1.27-.16v-9.39h-3.06v9.39h3.06zm16.17-7.5a5.88 5.88 0 0 0-5.29 3.32v-.41a6.1 6.1 0 0 0-2.36-4.83h7.64z"/><path class="cls-36" d="M172.66 215.33h-3.93l-4.31-9.15a6.1 6.1 0 0 0 2.38-2.65v.37a5.87 5.87 0 0 0 5.87 5.86z"/><path class="cls-36" d="M172.66 208.5a4.6 4.6 0 0 1 0-9.2zm-11.9 2.56a4.3 4.3 0 0 0-4.29-4.29h-3v8.56h3.47a4.3 4.3 0 0 0 3.82-4.27z"/><path class="cls-37" d="M157.76 205.61a5.55 5.55 0 0 1 2.27 9.67h7.3l-4.58-9.72.57-.27a4.86 4.86 0 0 0-1.53-9.23h-4zm-1.27-.16v-9.39h-3.06v9.39h3.06zm16.17-7.45a5.88 5.88 0 0 0-5.29 3.32v-.41a6.1 6.1 0 0 0-2.36-4.83h7.64z"/><path class="cls-37" d="M172.66 215.28h-3.93l-4.31-9.15a6.1 6.1 0 0 0 2.38-2.65v.37a5.87 5.87 0 0 0 5.87 5.86z"/><path class="cls-37" d="M172.66 208.45a4.6 4.6 0 0 1 0-9.2zm-11.9 2.55a4.3 4.3 0 0 0-4.29-4.29h-3v8.56h3.47a4.3 4.3 0 0 0 3.82-4.27z"/><path class="cls-38" d="M157.76 205.56a5.55 5.55 0 0 1 2.27 9.67h7.3l-4.58-9.72.57-.27a4.86 4.86 0 0 0-1.53-9.23h-4zm-1.27-.16V196h-3.06v9.39h3.06zm16.17-7.47a5.88 5.88 0 0 0-5.29 3.32v-.41A6.1 6.1 0 0 0 165 196h7.64z"/><path class="cls-38" d="M172.66 215.23h-3.93l-4.31-9.15a6.1 6.1 0 0 0 2.38-2.65v.37a5.87 5.87 0 0 0 5.87 5.86z"/><path class="cls-38" d="M172.66 208.4a4.6 4.6 0 0 1 0-9.2zm-11.9 2.6a4.3 4.3 0 0 0-4.29-4.29h-3v8.56h3.47a4.3 4.3 0 0 0 3.82-4.27z"/><path class="cls-39" d="M157.76 205.51a5.55 5.55 0 0 1 2.27 9.67h7.3l-4.58-9.72.57-.27a4.86 4.86 0 0 0-1.53-9.23h-4zm-1.27-.16V196h-3.06v9.39h3.06zm16.17-7.47a5.88 5.88 0 0 0-5.29 3.32v-.41A6.1 6.1 0 0 0 165 196h7.64z"/><path class="cls-39" d="M172.66 215.18h-3.93l-4.31-9.18a6.1 6.1 0 0 0 2.38-2.65v.37a5.87 5.87 0 0 0 5.87 5.86z"/><path class="cls-39" d="M172.66 208.35a4.6 4.6 0 0 1 0-9.2zm-11.9 2.56a4.3 4.3 0 0 0-4.29-4.29h-3v8.56h3.47a4.3 4.3 0 0 0 3.82-4.27z"/><path class="cls-40" d="M157.76 205.46a5.55 5.55 0 0 1 2.27 9.67h7.3l-4.58-9.72.57-.27a4.86 4.86 0 0 0-1.53-9.23h-4zm-1.27-.16v-9.39h-3.06v9.39h3.06zm16.17-7.47a5.88 5.88 0 0 0-5.29 3.32v-.41a6.1 6.1 0 0 0-2.36-4.83h7.64z"/><path class="cls-40" d="M172.66 215.13h-3.93l-4.31-9.13a6.1 6.1 0 0 0 2.38-2.65v.37a5.87 5.87 0 0 0 5.87 5.86z"/><path class="cls-40" d="M172.66 208.3a4.6 4.6 0 1 1 0-9.2zm-11.9 2.56a4.3 4.3 0 0 0-4.29-4.29h-3v8.56h3.47a4.3 4.3 0 0 0 3.82-4.27z"/><path class="cls-41" d="M157.76 205.41a5.55 5.55 0 0 1 2.27 9.67h7.3l-4.58-9.72.57-.27a4.86 4.86 0 0 0-1.53-9.23h-4zm-1.27-.16v-9.39h-3.06v9.39h3.06zm16.17-7.47a5.88 5.88 0 0 0-5.29 3.32v-.41a6.1 6.1 0 0 0-2.36-4.83h7.64z"/><path class="cls-41" d="M172.66 215.08h-3.93l-4.31-9.15a6.1 6.1 0 0 0 2.38-2.65v.37a5.87 5.87 0 0 0 5.87 5.86z"/><path class="cls-41" d="M172.66 208.24a4.6 4.6 0 1 1 0-9.19zm-11.9 2.57a4.3 4.3 0 0 0-4.29-4.29h-3v8.56h3.47a4.3 4.3 0 0 0 3.82-4.27z"/><g id="_编组_29" data-name="&lt;编组&gt;"><path id="_路径_79" data-name="&lt;路径&gt;" class="cls-42" d="M157.76 205.36A5.55 5.55 0 0 1 160 215h7.3l-4.58-9.72.57-.27a4.86 4.86 0 0 0-1.53-9.23h-4z"/><path id="_路径_80" data-name="&lt;路径&gt;" class="cls-42" d="M156.49 205.2v-9.39h-3.06v9.39h3.06z"/><path id="_路径_81" data-name="&lt;路径&gt;" class="cls-42" d="M172.66 197.73a5.88 5.88 0 0 0-5.29 3.32v-.41a6.1 6.1 0 0 0-2.36-4.83h7.64z"/><path id="_路径_82" data-name="&lt;路径&gt;" class="cls-42" d="M172.66 215h-3.93l-4.31-9.15a6.1 6.1 0 0 0 2.38-2.65v.37a5.87 5.87 0 0 0 5.87 5.86z"/><path id="_路径_83" data-name="&lt;路径&gt;" class="cls-42" d="M172.66 208.19a4.6 4.6 0 1 1 0-9.19z"/><path id="_路径_84" data-name="&lt;路径&gt;" class="cls-42" d="M160.76 210.76a4.3 4.3 0 0 0-4.29-4.29h-3V215h3.47a4.3 4.3 0 0 0 3.82-4.24z"/></g></g><g id="_编组_30" data-name="&lt;编组&gt;"><path id="_路径_85" data-name="&lt;路径&gt;" class="cls-2" d="M157.76 205.36A5.55 5.55 0 0 1 160 215h7.3l-4.58-9.72.57-.27a4.86 4.86 0 0 0-1.53-9.23h-4z"/><path id="_路径_86" data-name="&lt;路径&gt;" class="cls-2" d="M156.49 205.2v-9.39h-3.06v9.39h3.06z"/><path id="_路径_87" data-name="&lt;路径&gt;" class="cls-2" d="M172.66 197.73a5.88 5.88 0 0 0-5.29 3.32v-.41a6.1 6.1 0 0 0-2.36-4.83h7.64z"/><path id="_路径_88" data-name="&lt;路径&gt;" class="cls-2" d="M172.66 215h-3.93l-4.31-9.15a6.1 6.1 0 0 0 2.38-2.65v.37a5.87 5.87 0 0 0 5.87 5.86z"/><path id="_路径_89" data-name="&lt;路径&gt;" class="cls-2" d="M172.66 208.19a4.6 4.6 0 1 1 0-9.19z"/><path id="_路径_90" data-name="&lt;路径&gt;" class="cls-2" d="M160.76 210.76a4.3 4.3 0 0 0-4.29-4.29h-3V215h3.47a4.3 4.3 0 0 0 3.82-4.24z"/></g></g><g id="_编组_31" data-name="&lt;编组&gt;"><g id="_编组_32" data-name="&lt;编组&gt;"><g id="_编组_33" data-name="&lt;编组&gt;"><path id="_路径_91" data-name="&lt;路径&gt;" class="cls-21" d="M487.61 139.41a5.55 5.55 0 0 1 2.26 9.68h7.31l-4.58-9.73.57-.27a4.86 4.86 0 0 0-1.53-9.23h-4z"/><path id="_路径_92" data-name="&lt;路径&gt;" class="cls-21" d="M486.34 139.26v-9.4h-3.06v9.4h3.06z"/><path id="_路径_93" data-name="&lt;路径&gt;" class="cls-21" d="M502.5 131.78a5.88 5.88 0 0 0-5.29 3.33v-.42a6.13 6.13 0 0 0-2.36-4.83h7.63z"/><path id="_路径_94" data-name="&lt;路径&gt;" class="cls-21" d="M502.5 149.09h-3.92l-4.31-9.15a6.21 6.21 0 0 0 2.38-2.65v.36a5.88 5.88 0 0 0 5.87 5.87z"/><path id="_路径_95" data-name="&lt;路径&gt;" class="cls-21" d="M502.5 142.25a4.6 4.6 0 0 1 0-9.2z"/><path id="_路径_96" data-name="&lt;路径&gt;" class="cls-21" d="M490.61 144.82a4.3 4.3 0 0 0-4.29-4.29h-3v8.56h3.47a4.3 4.3 0 0 0 3.82-4.27z"/></g><path class="cls-22" d="M487.61 139.36a5.55 5.55 0 0 1 2.26 9.68h7.31l-4.58-9.73.57-.27a4.86 4.86 0 0 0-1.53-9.23h-4zm-1.27-.15v-9.4h-3.06v9.4h3.06zm16.16-7.48a5.88 5.88 0 0 0-5.29 3.33v-.42a6.13 6.13 0 0 0-2.36-4.83h7.63z"/><path class="cls-22" d="M502.5 149h-3.92l-4.31-9.15a6.21 6.21 0 0 0 2.38-2.65v.36a5.88 5.88 0 0 0 5.87 5.87z"/><path class="cls-22" d="M502.5 142.2a4.6 4.6 0 0 1 0-9.2zm-11.89 2.57a4.3 4.3 0 0 0-4.29-4.29h-3V149h3.47a4.3 4.3 0 0 0 3.82-4.23z"/><path class="cls-23" d="M487.61 139.31a5.55 5.55 0 0 1 2.26 9.68h7.31l-4.58-9.73.57-.27a4.86 4.86 0 0 0-1.53-9.23h-4zm-1.27-.15v-9.4h-3.06v9.4h3.06zm16.16-7.48a5.88 5.88 0 0 0-5.29 3.33v-.42a6.13 6.13 0 0 0-2.36-4.83h7.63z"/><path class="cls-23" d="M502.5 149h-3.92l-4.31-9.15a6.21 6.21 0 0 0 2.38-2.65v.36a5.88 5.88 0 0 0 5.87 5.87z"/><path class="cls-23" d="M502.5 142.15a4.6 4.6 0 0 1 0-9.2zm-11.89 2.57a4.3 4.3 0 0 0-4.29-4.29h-3V149h3.47a4.3 4.3 0 0 0 3.82-4.28z"/><path class="cls-24" d="M487.61 139.26a5.55 5.55 0 0 1 2.26 9.68h7.31l-4.58-9.73.57-.27a4.86 4.86 0 0 0-1.53-9.23h-4zm-1.27-.15v-9.4h-3.06v9.4h3.06zm16.16-7.48a5.88 5.88 0 0 0-5.29 3.33v-.42a6.13 6.13 0 0 0-2.36-4.83h7.63z"/><path class="cls-24" d="M502.5 148.94h-3.92l-4.31-9.15a6.21 6.21 0 0 0 2.38-2.65v.36a5.88 5.88 0 0 0 5.87 5.87z"/><path class="cls-24" d="M502.5 142.1a4.6 4.6 0 0 1 0-9.2zm-11.89 2.57a4.3 4.3 0 0 0-4.29-4.29h-3v8.56h3.47a4.3 4.3 0 0 0 3.82-4.27z"/><path class="cls-25" d="M487.61 139.21a5.55 5.55 0 0 1 2.26 9.68h7.31l-4.58-9.73.57-.27a4.86 4.86 0 0 0-1.53-9.23h-4zm-1.27-.15v-9.4h-3.06v9.4h3.06zm16.16-7.48a5.88 5.88 0 0 0-5.29 3.33v-.42a6.13 6.13 0 0 0-2.36-4.83h7.63z"/><path class="cls-25" d="M502.5 148.89h-3.92l-4.31-9.15a6.18 6.18 0 0 0 2.38-2.66v.37a5.88 5.88 0 0 0 5.87 5.87z"/><path class="cls-25" d="M502.5 142.05a4.6 4.6 0 0 1 0-9.2zm-11.89 2.57a4.3 4.3 0 0 0-4.29-4.29h-3v8.56h3.47a4.3 4.3 0 0 0 3.82-4.27z"/><path class="cls-26" d="M487.61 139.16a5.58 5.58 0 0 1 4.27 5.41 5.52 5.52 0 0 1-2 4.26h7.31l-4.58-9.72.57-.27a4.86 4.86 0 0 0-1.53-9.23h-4zm-1.27-.16v-9.4h-3.06v9.4h3.06zm16.16-7.47a5.88 5.88 0 0 0-5.29 3.33v-.42a6.13 6.13 0 0 0-2.36-4.83h7.63z"/><path class="cls-26" d="M502.5 148.83h-3.92l-4.31-9.14a6.18 6.18 0 0 0 2.38-2.66v.37a5.88 5.88 0 0 0 5.87 5.87z"/><path class="cls-26" d="M502.5 142a4.6 4.6 0 0 1 0-9.2zm-11.89 2.57a4.3 4.3 0 0 0-4.29-4.29h-3v8.55h3.47a4.29 4.29 0 0 0 3.82-4.26z"/><path class="cls-27" d="M487.61 139.11a5.55 5.55 0 0 1 2.26 9.67h7.31l-4.58-9.72.57-.27a4.86 4.86 0 0 0-1.53-9.23h-4zm-1.27-.11v-9.4h-3.06v9.4h3.06zm16.16-7.52a5.88 5.88 0 0 0-5.29 3.33v-.42a6.13 6.13 0 0 0-2.36-4.83h7.63z"/><path class="cls-27" d="M502.5 148.78h-3.92l-4.31-9.14a6.18 6.18 0 0 0 2.38-2.66v.37a5.89 5.89 0 0 0 5.87 5.87z"/><path class="cls-27" d="M502.5 142a4.6 4.6 0 0 1 0-9.2zm-11.89 2.52a4.3 4.3 0 0 0-4.29-4.29h-3v8.55h3.47a4.29 4.29 0 0 0 3.82-4.26z"/><path class="cls-28" d="M487.61 139.06a5.55 5.55 0 0 1 2.26 9.67h7.31L492.6 139l.57-.27a4.86 4.86 0 0 0-1.53-9.23h-4zm-1.27-.15v-9.4h-3.06v9.4h3.06zm16.16-7.48a5.88 5.88 0 0 0-5.29 3.33v-.42a6.13 6.13 0 0 0-2.36-4.83h7.63z"/><path class="cls-28" d="M502.5 148.73h-3.92l-4.31-9.14a6.18 6.18 0 0 0 2.38-2.66v.37a5.89 5.89 0 0 0 5.87 5.87z"/><path class="cls-28" d="M502.5 141.9a4.6 4.6 0 0 1 0-9.2zm-11.89 2.57a4.3 4.3 0 0 0-4.29-4.29h-3v8.55h3.47a4.29 4.29 0 0 0 3.82-4.26z"/><path class="cls-29" d="M487.61 139a5.55 5.55 0 0 1 2.26 9.67h7.31L492.6 139l.57-.27a4.86 4.86 0 0 0-1.53-9.23h-4zm-1.27-.14v-9.4h-3.06v9.4h3.06zm16.16-7.48a5.88 5.88 0 0 0-5.29 3.33v-.42a6.13 6.13 0 0 0-2.36-4.83h7.63z"/><path class="cls-29" d="M502.5 148.68h-3.92l-4.31-9.14a6.18 6.18 0 0 0 2.38-2.66v.37a5.89 5.89 0 0 0 5.87 5.87z"/><path class="cls-29" d="M502.5 141.85a4.6 4.6 0 0 1 0-9.2zm-11.89 2.57a4.3 4.3 0 0 0-4.29-4.29h-3v8.55h3.47a4.29 4.29 0 0 0 3.82-4.26z"/><path class="cls-30" d="M487.61 139a5.55 5.55 0 0 1 2.26 9.67h7.31l-4.58-9.72.57-.27a4.86 4.86 0 0 0-1.53-9.23h-4zm-1.27-.19v-9.4h-3.06v9.4h3.06zm16.16-7.48a5.88 5.88 0 0 0-5.29 3.33v-.42a6.13 6.13 0 0 0-2.36-4.83h7.63z"/><path class="cls-30" d="M502.5 148.63h-3.92l-4.31-9.14a6.18 6.18 0 0 0 2.38-2.66v.37a5.89 5.89 0 0 0 5.87 5.87z"/><path class="cls-30" d="M502.5 141.8a4.6 4.6 0 0 1 0-9.2zm-11.89 2.57a4.3 4.3 0 0 0-4.29-4.29h-3v8.55h3.47a4.29 4.29 0 0 0 3.82-4.26z"/><path class="cls-31" d="M487.61 138.91a5.55 5.55 0 0 1 2.26 9.67h7.31l-4.58-9.72.57-.27a4.86 4.86 0 0 0-1.53-9.23h-4zm-1.27-.15v-9.4h-3.06v9.4h3.06zm16.16-7.48a5.88 5.88 0 0 0-5.29 3.33v-.42a6.13 6.13 0 0 0-2.36-4.83h7.63z"/><path class="cls-31" d="M502.5 148.58h-3.92l-4.31-9.14a6.18 6.18 0 0 0 2.38-2.66v.37a5.89 5.89 0 0 0 5.85 5.85z"/><path class="cls-31" d="M502.5 141.75a4.6 4.6 0 0 1 0-9.2zm-11.89 2.57a4.3 4.3 0 0 0-4.29-4.29h-3v8.55h3.47a4.29 4.29 0 0 0 3.82-4.26z"/><path class="cls-32" d="M487.61 138.86a5.55 5.55 0 0 1 2.26 9.67h7.31l-4.58-9.72.57-.27a4.86 4.86 0 0 0-1.53-9.23h-4zm-1.27-.15v-9.4h-3.06v9.4h3.06zm16.16-7.48a5.88 5.88 0 0 0-5.29 3.33v-.42a6.13 6.13 0 0 0-2.36-4.83h7.63z"/><path class="cls-32" d="M502.5 148.53h-3.92l-4.31-9.14a6.18 6.18 0 0 0 2.38-2.66v.37a5.89 5.89 0 0 0 5.85 5.9z"/><path class="cls-32" d="M502.5 141.7a4.6 4.6 0 0 1 0-9.2zm-11.89 2.57a4.3 4.3 0 0 0-4.29-4.3h-3v8.56h3.47a4.29 4.29 0 0 0 3.82-4.26z"/><path class="cls-33" d="M487.61 138.81a5.55 5.55 0 0 1 2.26 9.67h7.31l-4.58-9.72.57-.27a4.86 4.86 0 0 0-1.53-9.23h-4zm-1.27-.15v-9.4h-3.06v9.4h3.06zm16.16-7.48a5.88 5.88 0 0 0-5.29 3.33v-.42a6.13 6.13 0 0 0-2.36-4.83h7.63z"/><path class="cls-33" d="M502.5 148.48h-3.92l-4.31-9.14a6.18 6.18 0 0 0 2.38-2.66v.37a5.89 5.89 0 0 0 5.87 5.87z"/><path class="cls-33" d="M502.5 141.65a4.6 4.6 0 0 1 0-9.2zm-11.89 2.57a4.3 4.3 0 0 0-4.29-4.3h-3v8.56h3.47a4.29 4.29 0 0 0 3.82-4.26z"/><path class="cls-34" d="M487.61 138.76a5.55 5.55 0 0 1 2.26 9.67h7.31l-4.58-9.72.57-.27a4.86 4.86 0 0 0-1.53-9.23h-4zm-1.27-.15v-9.4h-3.06v9.4h3.06zm16.16-7.48a5.88 5.88 0 0 0-5.29 3.33v-.42a6.13 6.13 0 0 0-2.36-4.83h7.63z"/><path class="cls-34" d="M502.5 148.43h-3.92l-4.31-9.15a6.1 6.1 0 0 0 2.38-2.65v.37a5.89 5.89 0 0 0 5.87 5.87z"/><path class="cls-34" d="M502.5 141.6a4.6 4.6 0 0 1 0-9.2zm-11.89 2.57a4.3 4.3 0 0 0-4.29-4.3h-3v8.56h3.47a4.29 4.29 0 0 0 3.82-4.26z"/><path class="cls-35" d="M487.61 138.71a5.55 5.55 0 0 1 2.26 9.67h7.31l-4.58-9.72.57-.27a4.86 4.86 0 0 0-1.53-9.23h-4zm-1.27-.15v-9.4h-3.06v9.4h3.06zm16.16-7.48a5.88 5.88 0 0 0-5.29 3.33v-.42a6.13 6.13 0 0 0-2.36-4.83h7.63z"/><path class="cls-35" d="M502.5 148.38h-3.92l-4.31-9.15a6.1 6.1 0 0 0 2.38-2.65v.37a5.89 5.89 0 0 0 5.87 5.87z"/><path class="cls-35" d="M502.5 141.55a4.6 4.6 0 0 1 0-9.2zm-11.89 2.56a4.3 4.3 0 0 0-4.29-4.29h-3v8.56h3.47a4.3 4.3 0 0 0 3.82-4.27z"/><path class="cls-36" d="M487.61 138.66a5.55 5.55 0 0 1 2.26 9.67h7.31l-4.58-9.72.57-.27a4.86 4.86 0 0 0-1.53-9.23h-4zm-1.27-.15v-9.4h-3.06v9.4h3.06zM502.5 131a5.88 5.88 0 0 0-5.29 3.33v-.42a6.13 6.13 0 0 0-2.36-4.83h7.63z"/><path class="cls-36" d="M502.5 148.33h-3.92l-4.31-9.15a6.1 6.1 0 0 0 2.38-2.65v.37a5.89 5.89 0 0 0 5.87 5.87z"/><path class="cls-36" d="M502.5 141.5a4.6 4.6 0 0 1 0-9.2zm-11.89 2.56a4.3 4.3 0 0 0-4.29-4.29h-3v8.56h3.47a4.3 4.3 0 0 0 3.82-4.27z"/><path class="cls-37" d="M487.61 138.61a5.55 5.55 0 0 1 2.26 9.67h7.31l-4.58-9.72.57-.27a4.86 4.86 0 0 0-1.53-9.23h-4zm-1.27-.15v-9.4h-3.06v9.4h3.06zM502.5 131a5.88 5.88 0 0 0-5.29 3.33v-.42a6.13 6.13 0 0 0-2.36-4.83h7.63z"/><path class="cls-37" d="M502.5 148.28h-3.92l-4.31-9.15a6.1 6.1 0 0 0 2.38-2.65v.37a5.89 5.89 0 0 0 5.87 5.87z"/><path class="cls-37" d="M502.5 141.45a4.6 4.6 0 0 1 0-9.2zM490.61 144a4.3 4.3 0 0 0-4.29-4.29h-3v8.56h3.47a4.3 4.3 0 0 0 3.82-4.27z"/><path class="cls-38" d="M487.61 138.56a5.55 5.55 0 0 1 2.26 9.67h7.31l-4.58-9.72.57-.27a4.86 4.86 0 0 0-1.53-9.23h-4zm-1.27-.15V129h-3.06v9.4h3.06zm16.16-7.48a5.88 5.88 0 0 0-5.29 3.33v-.42a6.13 6.13 0 0 0-2.36-4.83h7.63z"/><path class="cls-38" d="M502.5 148.23h-3.92l-4.31-9.15a6.1 6.1 0 0 0 2.38-2.65v.37a5.89 5.89 0 0 0 5.87 5.87z"/><path class="cls-38" d="M502.5 141.4a4.6 4.6 0 0 1 0-9.2zm-11.89 2.6a4.3 4.3 0 0 0-4.29-4.29h-3v8.56h3.47a4.3 4.3 0 0 0 3.82-4.27z"/><path class="cls-39" d="M487.61 138.51a5.55 5.55 0 0 1 2.26 9.67h7.31l-4.58-9.72.57-.27a4.86 4.86 0 0 0-1.53-9.23h-4zm-1.27-.15V129h-3.06v9.4h3.06zm16.16-7.48a5.88 5.88 0 0 0-5.29 3.33v-.42a6.13 6.13 0 0 0-2.36-4.83h7.63z"/><path class="cls-39" d="M502.5 148.18h-3.92l-4.31-9.18a6.1 6.1 0 0 0 2.38-2.65v.37a5.89 5.89 0 0 0 5.87 5.87z"/><path class="cls-39" d="M502.5 141.35a4.6 4.6 0 0 1 0-9.2zm-11.89 2.56a4.3 4.3 0 0 0-4.29-4.29h-3v8.56h3.47a4.3 4.3 0 0 0 3.82-4.27z"/><path class="cls-40" d="M487.61 138.46a5.55 5.55 0 0 1 2.26 9.67h7.31l-4.58-9.72.57-.27a4.86 4.86 0 0 0-1.53-9.23h-4zm-1.27-.15v-9.4h-3.06v9.39h3.06zm16.16-7.48a5.88 5.88 0 0 0-5.29 3.33v-.42a6.13 6.13 0 0 0-2.36-4.83h7.63z"/><path class="cls-40" d="M502.5 148.13h-3.92l-4.31-9.13a6.1 6.1 0 0 0 2.38-2.65v.37a5.89 5.89 0 0 0 5.87 5.87z"/><path class="cls-40" d="M502.5 141.3a4.6 4.6 0 0 1 0-9.2zm-11.89 2.56a4.3 4.3 0 0 0-4.29-4.29h-3v8.56h3.47a4.3 4.3 0 0 0 3.82-4.27z"/><path class="cls-41" d="M487.61 138.41a5.55 5.55 0 0 1 2.26 9.67h7.31l-4.58-9.72.57-.27a4.86 4.86 0 0 0-1.53-9.23h-4zm-1.27-.15v-9.4h-3.06v9.39h3.06zm16.16-7.48a5.88 5.88 0 0 0-5.29 3.33v-.42a6.13 6.13 0 0 0-2.36-4.83h7.63z"/><path class="cls-41" d="M502.5 148.08h-3.92l-4.31-9.15a6.1 6.1 0 0 0 2.38-2.65v.37a5.89 5.89 0 0 0 5.87 5.87z"/><path class="cls-41" d="M502.5 141.25a4.6 4.6 0 0 1 0-9.2zm-11.89 2.56a4.3 4.3 0 0 0-4.29-4.29h-3v8.56h3.47a4.3 4.3 0 0 0 3.82-4.27z"/><g id="_编组_34" data-name="&lt;编组&gt;"><path id="_路径_97" data-name="&lt;路径&gt;" class="cls-42" d="M487.61 138.36a5.55 5.55 0 0 1 2.26 9.67h7.31l-4.58-9.72.57-.27a4.86 4.86 0 0 0-1.53-9.23h-4z"/><path id="_路径_98" data-name="&lt;路径&gt;" class="cls-42" d="M486.34 138.21v-9.4h-3.06v9.39h3.06z"/><path id="_路径_99" data-name="&lt;路径&gt;" class="cls-42" d="M502.5 130.73a5.88 5.88 0 0 0-5.29 3.33v-.42a6.13 6.13 0 0 0-2.36-4.83h7.63z"/><path id="_路径_100" data-name="&lt;路径&gt;" class="cls-42" d="M502.5 148h-3.92l-4.31-9.15a6.1 6.1 0 0 0 2.38-2.65v.37a5.88 5.88 0 0 0 5.87 5.86z"/><path id="_路径_101" data-name="&lt;路径&gt;" class="cls-42" d="M502.5 141.2a4.6 4.6 0 0 1 0-9.2z"/><path id="_路径_102" data-name="&lt;路径&gt;" class="cls-42" d="M490.61 143.76a4.3 4.3 0 0 0-4.29-4.29h-3V148h3.47a4.3 4.3 0 0 0 3.82-4.24z"/></g></g><g id="_编组_35" data-name="&lt;编组&gt;"><path id="_路径_103" data-name="&lt;路径&gt;" class="cls-2" d="M487.61 138.36a5.55 5.55 0 0 1 2.26 9.67h7.31l-4.58-9.72.57-.27a4.86 4.86 0 0 0-1.53-9.23h-4z"/><path id="_路径_104" data-name="&lt;路径&gt;" class="cls-2" d="M486.34 138.21v-9.4h-3.06v9.39h3.06z"/><path id="_路径_105" data-name="&lt;路径&gt;" class="cls-2" d="M502.5 130.73a5.88 5.88 0 0 0-5.29 3.33v-.42a6.13 6.13 0 0 0-2.36-4.83h7.63z"/><path id="_路径_106" data-name="&lt;路径&gt;" class="cls-2" d="M502.5 148h-3.92l-4.31-9.15a6.1 6.1 0 0 0 2.38-2.65v.37a5.88 5.88 0 0 0 5.87 5.86z"/><path id="_路径_107" data-name="&lt;路径&gt;" class="cls-2" d="M502.5 141.2a4.6 4.6 0 0 1 0-9.2z"/><path id="_路径_108" data-name="&lt;路径&gt;" class="cls-2" d="M490.61 143.76a4.3 4.3 0 0 0-4.29-4.29h-3V148h3.47a4.3 4.3 0 0 0 3.82-4.24z"/></g></g><g id="_编组_36" data-name="&lt;编组&gt;"><path id="_路径_109" data-name="&lt;路径&gt;" d="M155.69 192a3.33 3.33 0 0 1-3.24-2.55 72.1 72.1 0 0 1-2-16.95c0-29.93 18.53-57.94 52.16-78.89 33.14-20.64 77.14-32 123.89-32a3.34 3.34 0 1 1 0 6.67c-93.39 0-169.37 46.75-169.37 104.22a65.67 65.67 0 0 0 1.84 15.38 3.33 3.33 0 0 1-2.45 4 3.61 3.61 0 0 1-.83.12z" fill="url(#未命名的渐变_2)"/></g><g id="_编组_37" data-name="&lt;编组&gt;"><path id="_路径_110" data-name="&lt;路径&gt;" d="M497.91 152.32a3.34 3.34 0 0 1 3.24 2.55 72 72 0 0 1 2 16.95c0 29.93-18.52 57.94-52.15 78.89-33.15 20.63-77.14 32-123.89 32a3.34 3.34 0 1 1 0-6.68c93.39 0 169.37-46.75 169.37-104.21a65.16 65.16 0 0 0-1.85-15.38 3.34 3.34 0 0 1 2.46-4 3.55 3.55 0 0 1 .82-.12z" fill="url(#未命名的渐变_2-2)"/></g><path id="_路径_111" data-name="&lt;路径&gt;" class="cls-9" d="M370.25 175.3l-2.43 6.53-6.97-6.32 9.4-.21z"/><path id="_路径_112" data-name="&lt;路径&gt;" class="cls-10" d="M468.29 215.17L365.2 177.04"/><text class="cls-11" transform="rotate(20 -385.716 1225.273)">Q&amp;<tspan x="14.45" y="0" letter-spacing="-.06em">A</tspan></text><path id="_路径_113" data-name="&lt;路径&gt;" class="cls-9" d="M282.25 176.02l2.44 6.53 6.97-6.32-9.41-.21z"/><path id="_路径_114" data-name="&lt;路径&gt;" class="cls-10" d="M185.69 215.17l101.62-37.41"/><path id="_路径_115" data-name="&lt;路径&gt;" class="cls-9" d="M282.9 149.87l2.51-6.51 6.9 6.4-9.41.11z"/><path id="_路径_116" data-name="&lt;路径&gt;" class="cls-10" d="M204.08 115.65l83.83 32.42"/><path id="_路径_117" data-name="&lt;路径&gt;" class="cls-9" d="M371.19 150.73l-2.51-6.5-6.9 6.39 9.41.11z"/><path id="_路径_118" data-name="&lt;路径&gt;" class="cls-10" d="M452.4 115.65l-86.22 33.28"/><g id="_编组_38" data-name="&lt;编组&gt;"><path id="_路径_119" data-name="&lt;路径&gt;" class="cls-2" d="M499.5 89.29h3.62a2.24 2.24 0 0 1 2.39 2.38v9.36a2.41 2.41 0 0 1-.36 1.46 2.08 2.08 0 0 1-1.56 1c-.33 0-.41.18-.41.48v7.24a1.77 1.77 0 0 1-1 1.73 1.91 1.91 0 0 1-.85.21h-3.7a1.76 1.76 0 0 1-1.85-1.9v-7.17c0-.38-.07-.57-.51-.62a2.18 2.18 0 0 1-1.83-2.21v-5.79c0-1.32-.06-2.64 0-4a2.22 2.22 0 0 1 2.27-2.2h3.73z"/><path id="_路径_120" data-name="&lt;路径&gt;" class="cls-2" d="M504 87.9a1.56 1.56 0 0 1 1.73-1.1h6.16a2 2 0 0 1 2.24 2.25v4.7c0 1.2-.11 2.41 0 3.59a2.07 2.07 0 0 1-.5 1.41 1.61 1.61 0 0 1-1.31.69c-.3 0-.29.25-.29.47v6.53a1.5 1.5 0 0 1-1.49 1.59h-3.51a1.51 1.51 0 0 1-1.51-1.57v-2a.76.76 0 0 1 .21-.48 3.82 3.82 0 0 0 1.25-3v-2.65c0-1.08-.07-2.17-.08-3.26 0-.62.12-1.24.09-1.85-.08-1.31.16-2.68-.72-3.85a3.84 3.84 0 0 0-1.81-1.37z"/><path id="_路径_121" data-name="&lt;路径&gt;" class="cls-2" d="M495 87.87c-.3.12-.59.21-.87.35a3.64 3.64 0 0 0-2.11 3.38c0 1.08-.06 2.16-.05 3.24 0 2.22 0 4.43.06 6.64a3.38 3.38 0 0 0 1.17 2.46.81.81 0 0 1 .3.68v1.9a1.56 1.56 0 0 1-1.69 1.67h-3a1.7 1.7 0 0 1-1.84-1.85v-6.2c0-.39-.12-.53-.51-.59A1.75 1.75 0 0 1 485 98a17.27 17.27 0 0 1-.05-2.16c0-2.26 0-4.53-.05-6.79a2 2 0 0 1 2.1-2.11h6.5a1.46 1.46 0 0 1 1.5.93z"/><path id="_路径_122" data-name="&lt;路径&gt;" class="cls-2" d="M503.88 84.1a4.38 4.38 0 1 1-4.37-4.44 4.36 4.36 0 0 1 4.37 4.44z"/><path id="_路径_123" data-name="&lt;路径&gt;" class="cls-2" d="M494.15 82.27a3.9 3.9 0 1 1-3.89-3.89 3.89 3.89 0 0 1 3.89 3.89z"/><path id="_路径_124" data-name="&lt;路径&gt;" class="cls-2" d="M508.77 78.24a3.88 3.88 0 0 1 3.89 3.89 3.83 3.83 0 0 1-3.89 3.92 3.91 3.91 0 1 1 0-7.81z"/></g><g id="_编组_39" data-name="&lt;编组&gt;"><path id="_路径_125" data-name="&lt;路径&gt;" class="cls-2" d="M158 93.58a5.62 5.62 0 1 1-5.6-5.7 5.58 5.58 0 0 1 5.6 5.7z"/><path id="_路径_126" data-name="&lt;路径&gt;" class="cls-2" d="M151.32 82.38a4.27 4.27 0 1 1-4.25-4.33 4.25 4.25 0 0 1 4.25 4.33z"/><path id="_路径_127" data-name="&lt;路径&gt;" class="cls-2" d="M161.93 82.38a4.27 4.27 0 1 1-4.26-4.33 4.26 4.26 0 0 1 4.26 4.33z"/><path id="_路径_128" data-name="&lt;路径&gt;" class="cls-2" d="M145.49 91.23a5 5 0 1 1-5-5 5 5 0 0 1 5 5z"/><path id="_路径_129" data-name="&lt;路径&gt;" class="cls-2" d="M164.25 86.06a5 5 0 0 1 5 5 4.91 4.91 0 0 1-5 5 5 5 0 1 1 0-10z"/><g id="_编组_40" data-name="&lt;编组&gt;"><path id="_路径_130" data-name="&lt;路径&gt;" class="cls-2" d="M161.08 100.42c1.12 1.5.81 3.26.91 4.94 0 .79-.11 1.58-.11 2.38v1.71h9.13c0-1.15.07-2.31.07-3.47v-6a2.61 2.61 0 0 0-2.87-2.88h-7.91a2 2 0 0 0-2.22 1.41l.62.22a5 5 0 0 1 2.38 1.69z"/><path id="_路径_131" data-name="&lt;路径&gt;" class="cls-2" d="M144.66 103.06c0 1.69 0 3.39.05 5.09v1.3H160v-6.16a2.87 2.87 0 0 0-3.06-3.05h-9.44a2.84 2.84 0 0 0-2.84 2.82z"/><path id="_路径_132" data-name="&lt;路径&gt;" class="cls-2" d="M133.68 109.45h9v-2.08c0-1.39 0-2.78.06-4.17a4.67 4.67 0 0 1 2.72-4.33c.35-.18.73-.3 1.11-.46a1.9 1.9 0 0 0-2-1.18h-8.34a2.58 2.58 0 0 0-2.71 2.75c0 2.91 0 5.81.06 8.72z"/></g></g><g id="_编组_41" data-name="&lt;编组&gt;"><g id="_编组_42" data-name="&lt;编组&gt;"><path id="_路径_133" data-name="&lt;路径&gt;" class="cls-2" d="M148.16 222.12l-.34-.84c-.71-1.64-1.41-3.29-2.11-4.93l-.28-.66c0-.11-.09-.12-.19-.08l-3.83 1.61-.57.23c-.12.05-.14.11-.09.22l.81 1.9c.06.14.05.2-.11.26-1 .34-2.08.7-3.12 1-.5.17-1 .35-1.48.51l-1.68.55-.8.29-1.48.51-1.74.6c-.85.28-1.71.54-2.55.86a1.69 1.69 0 0 0-.92 1 1.85 1.85 0 0 0 0 1.61 2.19 2.19 0 0 0 .81 1 1.27 1.27 0 0 0 1.29.08l5.27-2.51 3.74-1.77 1.73-.82 1-.46c.32-.14.63-.29.95-.42a.13.13 0 0 1 .14.05 1.6 1.6 0 0 1 .13.3c.25.56.49 1.12.73 1.68.05.1.1.12.2.08l1.23-.53c.44-.18.88-.34 1.31-.53s1.12-.48 1.67-.72z"/><path id="_路径_134" data-name="&lt;路径&gt;" class="cls-2" d="M146.2 230.48h5.11a.78.78 0 0 0 .77-.77v-.85a.78.78 0 0 0-.82-.82H141.1a.75.75 0 0 0-.75.53.76.76 0 0 0 0 .21v.88a.78.78 0 0 0 .82.82h5.06z"/><path id="_路径_135" data-name="&lt;路径&gt;" class="cls-2" d="M140.17 217.42l.69-.26 4.52-1.89a.76.76 0 0 0 .51-.72.71.71 0 0 0-.52-.68.72.72 0 0 0-.46 0l-2.34 1-2.72 1.13a.7.7 0 0 0-.46.69.71.71 0 0 0 .48.68 1.4 1.4 0 0 0 .28.06z"/><path id="_路径_136" data-name="&lt;路径&gt;" class="cls-2" d="M143.76 225.9l.75-.28 4.46-1.87a.76.76 0 0 0 .49-.93.74.74 0 0 0-.79-.51 4.26 4.26 0 0 0-.71.25l-1.22.5-2.74 1.14-.6.25a.73.73 0 0 0-.44.69.68.68 0 0 0 .44.66 1.47 1.47 0 0 0 .3.08z"/></g><path id="_路径_137" data-name="&lt;路径&gt;" class="cls-2" d="M135.29 210.14a7.17 7.17 0 1 1-7.15-7.27 7.13 7.13 0 0 1 7.15 7.27z"/><path id="_路径_138" data-name="&lt;路径&gt;" class="cls-2" d="M137.91 225.25l-2.4 1.14-2 1-3.25 1.55a2.47 2.47 0 0 1-1.05.24 2.43 2.43 0 0 1-1.3-.39 3.21 3.21 0 0 1-1.23-1.51 3 3 0 0 1 0-2.52 2.71 2.71 0 0 1 1.54-1.55c.59-.22 1.19-.42 1.78-.61l.8-.27 1.43-.49.3-.1 1.48-.51.32-.12c.16 0 .32-.12.5-.17l.8-.26.88-.29.73-.25a3.76 3.76 0 0 0-3.19-1.46H122a3.61 3.61 0 0 0-3.7 3.59c0 2.16 0 4.33.06 6.49v1.66h19.54v-5.14z"/></g><g id="_编组_43" data-name="&lt;编组&gt;"><path id="_复合路径_2" data-name="&lt;复合路径&gt;" class="cls-2" d="M339.05 20.11c-1.92.05-3.85 0-5.77 0h-6.06a3 3 0 0 0-3.11 3.08c.06 2.05.07 4.11 0 6.16a6.39 6.39 0 0 0-3-.79 6.31 6.31 0 1 0 6.26 6.37 8.11 8.11 0 0 0-.05-.86h3.44c1.47 0 1.45 0 1.48 1.48a1.75 1.75 0 0 1-.71 1.57 3.46 3.46 0 0 0-1 1.5 6.13 6.13 0 0 0-.32 1.95 2.69 2.69 0 0 1-1.51 2.66 3.41 3.41 0 0 0-2.41-.86h-10.55a3.17 3.17 0 0 0-3.25 3.15c0 1.89.05 3.78.06 5.67v1.46h17.09v-3.62l3-1.56a3.7 3.7 0 0 0 2.16-3.18c.1-1.22.47-2.41.65-3.63.16-1 .53-2.24-.35-3.05a3.13 3.13 0 0 1-.85-2.71c0-.58.25-.85.87-.84h4.07a3 3 0 0 0 3.23-3.24c0-2.45-.06-4.9 0-7.35a3.16 3.16 0 0 0-3.37-3.36zm1.38 10.52c0 1.07-.37 1.43-1.46 1.44h-3.64c-.91 0-1-.11-1.08-1 0-.24 0-.53-.09-.69-.22-.31-.51-.7-.83-.76s-.69.28-.86.56a2.58 2.58 0 0 0-.24 1.15c0 .47-.2.74-.67.74h-4.35a1.32 1.32 0 0 1-.56-.13 8 8 0 0 0-.49-.79 1.42 1.42 0 0 1 0-.3v-7.41c0-1 .32-1.28 1.29-1.28H339c1.1 0 1.46.36 1.46 1.44q-.01 3.5-.03 7.03z"/><path id="_路径_139" data-name="&lt;路径&gt;" class="cls-2" d="M336.66 27.24h-7.32c-.85 0-1.28.35-1.29 1s.44 1 1.27 1h7.32c.81 0 1.28-.41 1.26-1s-.46-.99-1.24-1z"/><path id="_路径_140" data-name="&lt;路径&gt;" class="cls-2" d="M329 25.84h3.19a1 1 0 0 0 1-.95 1.1 1.1 0 0 0-1.08-1h-3.18a.92.92 0 0 0-.93 1 .88.88 0 0 0 1 .95z"/></g><g id="_编组_44" data-name="&lt;编组&gt;"><g id="_编组_45" data-name="&lt;编组&gt;"><circle id="_路径_141" data-name="&lt;路径&gt;" class="cls-46" cx="601.84" cy="263.63" r="7.94" transform="rotate(-80.78 601.861 263.624)"/><path id="_路径_142" data-name="&lt;路径&gt;" class="cls-46" d="M614.48 285.88a12.65 12.65 0 1 0-25.29 0"/></g><g id="_编组_46" data-name="&lt;编组&gt;"><circle id="_路径_143" data-name="&lt;路径&gt;" class="cls-46" cx="621.22" cy="263.63" r="7.94" transform="rotate(-45 621.229 263.629)"/><path id="_路径_144" data-name="&lt;路径&gt;" class="cls-46" d="M633.87 285.88a12.64 12.64 0 0 0-22.34-8.12"/></g></g><g id="_编组_47" data-name="&lt;编组&gt;"><g id="_编组_48" data-name="&lt;编组&gt;"><circle id="_路径_145" data-name="&lt;路径&gt;" class="cls-46" cx="27.15" cy="263.63" r="7.94" transform="rotate(-45 27.147 263.625)"/><path id="_路径_146" data-name="&lt;路径&gt;" class="cls-46" d="M39.79 285.88a12.65 12.65 0 1 0-25.29 0"/></g><g id="_编组_49" data-name="&lt;编组&gt;"><circle id="_路径_147" data-name="&lt;路径&gt;" class="cls-46" cx="46.53" cy="263.63" r="7.94" transform="rotate(-80.78 46.536 263.636)"/><path id="_路径_148" data-name="&lt;路径&gt;" class="cls-46" d="M59.18 285.88a12.64 12.64 0 0 0-22.34-8.12"/></g></g><g id="_编组_50" data-name="&lt;编组&gt;"><g id="_编组_51" data-name="&lt;编组&gt;"><path id="_路径_149" data-name="&lt;路径&gt;" class="cls-46" d="M205.76 463.07a7.95 7.95 0 1 1-7.95-7.95 7.95 7.95 0 0 1 7.95 7.95z"/><path id="_路径_150" data-name="&lt;路径&gt;" class="cls-46" d="M210.46 485.31a12.65 12.65 0 0 0-25.29 0"/></g><g id="_编组_52" data-name="&lt;编组&gt;"><path id="_路径_151" data-name="&lt;路径&gt;" class="cls-46" d="M225.14 463.07a7.95 7.95 0 1 1-7.94-7.95 7.94 7.94 0 0 1 7.94 7.95z"/><path id="_路径_152" data-name="&lt;路径&gt;" class="cls-46" d="M229.85 485.31a12.66 12.66 0 0 0-22.35-8.12"/></g></g><g id="_编组_53" data-name="&lt;编组&gt;"><g id="_编组_54" data-name="&lt;编组&gt;"><circle id="_路径_153" data-name="&lt;路径&gt;" class="cls-46" cx="413.08" cy="463.26" r="7.94"/><path id="_路径_154" data-name="&lt;路径&gt;" class="cls-46" d="M425.73 485.51a12.65 12.65 0 1 0-25.29 0"/></g><g id="_编组_55" data-name="&lt;编组&gt;"><circle id="_路径_155" data-name="&lt;路径&gt;" class="cls-46" cx="432.47" cy="463.26" r="7.94"/><path id="_路径_156" data-name="&lt;路径&gt;" class="cls-46" d="M445.11 485.51a12.64 12.64 0 0 0-22.34-8.12"/></g></g><text class="cls-11" transform="rotate(-21.16 563.14 -892.838)">Claim &amp; Execute<tspan class="cls-47" x="73.92" y="0"> </tspan><tspan class="cls-48" x="76.51" y="0">T</tspan><tspan x="81.51" y="0">ask</tspan></text><text class="cls-11" transform="translate(332.16 88.78)" id="_编组_56" data-name="&lt;编组&gt;">Launch<tspan x="0" y="9.76">Due Diligence</tspan><tspan class="cls-48" x="0" y="19.52">T</tspan><tspan x="5" y="19.52">ask</tspan></text><text class="cls-11" transform="matrix(.94 -.35 .35 .94 204.58 201.78)">Solve Disputes</text><text class="cls-11" transform="rotate(20 -308.864 1162.77)">Knowledge Sharing</text><text class="cls-11" transform="matrix(.93 .36 -.36 .93 201.79 107.21)">Join in<tspan class="cls-47" x="28.91" y="0"> </tspan><tspan x="31.5" y="0">The Discussion</tspan></text><g id="_编组_57" data-name="&lt;编组&gt;"><g id="_编组_58" data-name="&lt;编组&gt;"><path id="_路径_157" data-name="&lt;路径&gt;" class="cls-2" d="M514.5 234.38h-10.35c-.24 0-.32-.08-.31-.33 0-.6 0-1.2.1-1.79a9.53 9.53 0 0 1 .53-2.49 9.81 9.81 0 0 1 .53-1.14 2.18 2.18 0 0 1 1.31-.94c1-.36 2-.66 3-1a11 11 0 0 0 1.36-.71c.21-.11.34-.07.4.17a10.36 10.36 0 0 0 2.19 4.21 1.53 1.53 0 0 0 .21.14c0-.08.06-.16.08-.25.1-.58.2-1.16.31-1.74a.69.69 0 0 0-.11-.59 3 3 0 0 1-.25-.43c0-.1-.08-.26 0-.33s.19-.08.3-.08c.3 0 .59.07.89.07a4 4 0 0 0 .48-.07c.12 0 .28 0 .34.08s0 .24 0 .37a.31.31 0 0 1-.05.1 1.24 1.24 0 0 0-.25 1.11c.14.53.19 1.09.29 1.64 0 .19.13.13.2 0 .33-.42.67-.83 1-1.27a10.88 10.88 0 0 0 1.12-2.42c.07-.2.12-.4.18-.6s.21-.28.37-.15a5.93 5.93 0 0 0 1.88.9l2.86 1a2.31 2.31 0 0 1 1.27 1.36 9.5 9.5 0 0 1 .77 3.2c0 .54.06 1.09.08 1.63 0 .28 0 .34-.28.35H514.5z"/><path id="_复合路径_3" data-name="&lt;复合路径&gt;" class="cls-2" d="M519.39 216.46l-.15 1.2a.4.4 0 0 0 0 .22 2 2 0 0 1 .22 1.06 4.1 4.1 0 0 1-.39 2.14 5.59 5.59 0 0 0-.37 1.23 3.89 3.89 0 0 1-.61 1.49c-.35.39-.61.86-1 1.24a3.67 3.67 0 0 1-2.44 1.29 3.1 3.1 0 0 1-2.11-.67 5.13 5.13 0 0 1-1.37-1.45c-.2-.35-.43-.69-.63-1.05a3.69 3.69 0 0 1-.34-1.4.9.9 0 0 0-.16-.43 2.19 2.19 0 0 1-.43-1.15 8.12 8.12 0 0 1-.09-1.39 3.6 3.6 0 0 1 .19-.85.67.67 0 0 0 0-.24 4.38 4.38 0 0 1 .43-3.14.9.9 0 0 1 .62-.52c.06 0 .13-.11.15-.19a2.31 2.31 0 0 1 1.71-1.94 5.43 5.43 0 0 1 5.59 1.58 4.16 4.16 0 0 1 1.18 2.97zm-1.58 2.54h-.07c0-.22 0-.44.07-.66 0-.38-.06-.53-.38-.66a3.81 3.81 0 0 0-.45-.13c-.85-.19-1.7-.35-2.54-.57a5.91 5.91 0 0 1-2.61-1.41l-.25-.22a19.52 19.52 0 0 1-.32 3.68 2.89 2.89 0 0 1-.29-.32.27.27 0 0 0-.48.16 3.25 3.25 0 0 0 .18 2 .45.45 0 0 0 .22.26.26.26 0 0 1 .18.29 3.19 3.19 0 0 0 .35 1.44 8.79 8.79 0 0 0 .68 1.14 5.33 5.33 0 0 0 1.21 1 2.09 2.09 0 0 0 1.92.22 3.77 3.77 0 0 0 1.21-.79 5.94 5.94 0 0 0 .95-1.17 4 4 0 0 0 .6-2c0-.07.07-.18.11-.18s.26-.15.32-.31a3.42 3.42 0 0 0 .18-2c-.08-.34-.27-.42-.51-.21a2.72 2.72 0 0 0-.28.44z"/><path id="_复合路径_4" data-name="&lt;复合路径&gt;" class="cls-2" d="M517.66 220.21a1.46 1.46 0 0 1-1.22 1.51 1.39 1.39 0 0 1-1.52-1.09 2.33 2.33 0 0 1-.06-.53.31.31 0 0 0-.36-.34c-.25 0-.35.1-.34.35a1.49 1.49 0 0 1-.82 1.49 1.42 1.42 0 0 1-1.94-1 1.76 1.76 0 0 1 .59-1.63 1.32 1.32 0 0 1 1.58 0 .32.32 0 0 0 .39 0 1.23 1.23 0 0 1 1.15 0 .26.26 0 0 0 .31 0 1.25 1.25 0 0 1 1.47-.15 1.46 1.46 0 0 1 .77 1.39zm-2 0a.64.64 0 0 0 .59.64.65.65 0 0 0 0-1.29.64.64 0 0 0-.57.65zm-2.33 0a.63.63 0 0 0-.57-.66.65.65 0 0 0-.6.63.64.64 0 0 0 .6.66.62.62 0 0 0 .59-.62z"/></g><g id="_编组_59" data-name="&lt;编组&gt;"><g id="_编组_60" data-name="&lt;编组&gt;"><path id="_路径_158" data-name="&lt;路径&gt;" class="cls-2" d="M528.63 230.5h-10.35c-.24 0-.32-.08-.31-.33 0-.6 0-1.2.1-1.79a9.53 9.53 0 0 1 .53-2.49 11.79 11.79 0 0 1 .53-1.14 2.19 2.19 0 0 1 1.31-.94c1-.36 2-.66 3-1a9.31 9.31 0 0 0 1.37-.7c.2-.11.33-.07.4.16a10.32 10.32 0 0 0 2.18 4.22 1.53 1.53 0 0 0 .21.14 1.44 1.44 0 0 0 .08-.25c.11-.58.2-1.16.31-1.74a.72.72 0 0 0-.1-.59 1.86 1.86 0 0 1-.25-.43.45.45 0 0 1 0-.33.37.37 0 0 1 .3-.08c.3 0 .59.06.89.07a4 4 0 0 0 .48-.07c.12 0 .29 0 .35.08s0 .24 0 .37a.24.24 0 0 1-.05.1 1.19 1.19 0 0 0-.24 1.1c.13.54.19 1.1.28 1.65 0 .19.13.13.21 0 .32-.42.66-.83 1-1.27a10.55 10.55 0 0 0 1.13-2.43c.06-.19.11-.39.17-.59s.22-.29.37-.16a5.77 5.77 0 0 0 1.89.9l2.86 1a2.34 2.34 0 0 1 1.27 1.36 9.48 9.48 0 0 1 .76 3.2c0 .54.07 1.09.09 1.63 0 .28 0 .34-.29.34h-1.07z"/><path id="_复合路径_5" data-name="&lt;复合路径&gt;" class="cls-2" d="M533.52 212.58l-.15 1.2v.22a2 2 0 0 1 .22 1.06 4.2 4.2 0 0 1-.38 2.14 5.46 5.46 0 0 0-.38 1.23 3.64 3.64 0 0 1-.61 1.48c-.34.39-.6.87-1 1.25a3.73 3.73 0 0 1-2.45 1.29 3.07 3.07 0 0 1-2.1-.68 4.64 4.64 0 0 1-1.37-1.45c-.21-.35-.44-.68-.64-1a3.73 3.73 0 0 1-.33-1.41.87.87 0 0 0-.17-.42 2.31 2.31 0 0 1-.43-1.15 9.27 9.27 0 0 1-.09-1.39 5 5 0 0 1 .19-.85.54.54 0 0 0 0-.25 4.35 4.35 0 0 1 .42-3.13.9.9 0 0 1 .62-.52.27.27 0 0 0 .15-.19 2.32 2.32 0 0 1 1.71-1.94 5.44 5.44 0 0 1 5.6 1.58 4.2 4.2 0 0 1 1.19 2.93zm-1.58 2.52h-.07c0-.22.06-.44.07-.66 0-.38-.06-.53-.38-.66a2.13 2.13 0 0 0-.45-.13c-.84-.19-1.7-.35-2.54-.57a6 6 0 0 1-2.61-1.42l-.25-.21a19.59 19.59 0 0 1-.31 3.68 2.93 2.93 0 0 1-.3-.32c-.19-.18-.41-.11-.48.16a3.25 3.25 0 0 0 .18 2 .45.45 0 0 0 .22.26.25.25 0 0 1 .18.29 3.36 3.36 0 0 0 .35 1.44 10.08 10.08 0 0 0 .68 1.14 5.08 5.08 0 0 0 1.2 1 2.1 2.1 0 0 0 1.93.22 4 4 0 0 0 1.21-.8 5.31 5.31 0 0 0 .94-1.17 3.77 3.77 0 0 0 .6-2c0-.06.07-.17.11-.17s.26-.16.32-.31a3.36 3.36 0 0 0 .18-2c-.07-.33-.26-.41-.51-.2s-.21.33-.27.43z"/><path id="_复合路径_6" data-name="&lt;复合路径&gt;" class="cls-2" d="M531.79 216.32a1.45 1.45 0 0 1-1.22 1.52 1.39 1.39 0 0 1-1.51-1.09 2.33 2.33 0 0 1-.07-.53c0-.23-.11-.34-.36-.34s-.35.1-.34.35a1.46 1.46 0 0 1-.82 1.49 1.41 1.41 0 0 1-1.93-1 1.73 1.73 0 0 1 .58-1.63 1.35 1.35 0 0 1 1.59 0 .29.29 0 0 0 .38 0 1.25 1.25 0 0 1 1.16 0 .23.23 0 0 0 .3 0A1.24 1.24 0 0 1 531 215a1.44 1.44 0 0 1 .79 1.32zm-2 0a.58.58 0 1 0 1.16 0 .65.65 0 0 0-.59-.65.65.65 0 0 0-.54.66zm-2.34 0a.62.62 0 0 0-.57-.66.65.65 0 0 0 0 1.29.62.62 0 0 0 .6-.61z"/></g><g id="_编组_61" data-name="&lt;编组&gt;"><path id="_路径_159" data-name="&lt;路径&gt;" class="cls-2" d="M500.36 230.5H490c-.24 0-.31-.08-.3-.33 0-.6 0-1.2.09-1.79a9.53 9.53 0 0 1 .53-2.49 9.88 9.88 0 0 1 .54-1.14 2.15 2.15 0 0 1 1.3-.94c1-.36 2-.66 3-1a9.73 9.73 0 0 0 1.36-.7c.2-.11.33-.07.4.16a10.22 10.22 0 0 0 2.19 4.22 1 1 0 0 0 .2.14 1.44 1.44 0 0 0 .08-.25c.11-.58.2-1.16.31-1.74a.72.72 0 0 0-.1-.59 1.86 1.86 0 0 1-.25-.43c0-.1-.08-.27 0-.33a.37.37 0 0 1 .3-.08c.3 0 .6.06.89.07a4.44 4.44 0 0 0 .49-.07c.11 0 .28 0 .34.08s0 .24 0 .37a.53.53 0 0 1-.06.1 1.19 1.19 0 0 0-.24 1.1c.14.54.19 1.1.28 1.65 0 .19.14.13.21 0 .32-.42.66-.83 1-1.27a10.55 10.55 0 0 0 1.13-2.43c.07-.19.11-.39.17-.59s.22-.29.38-.16a5.63 5.63 0 0 0 1.88.9l2.86 1a2.31 2.31 0 0 1 1.27 1.36 9.5 9.5 0 0 1 .77 3.2c.05.54.06 1.09.08 1.63 0 .28 0 .34-.29.34h-1.06z"/><path id="_复合路径_7" data-name="&lt;复合路径&gt;" class="cls-2" d="M505.25 212.58c-.05.4-.1.8-.14 1.2v.22a2 2 0 0 1 .21 1.06 4.2 4.2 0 0 1-.38 2.14 6 6 0 0 0-.38 1.23 3.64 3.64 0 0 1-.61 1.48c-.34.39-.6.87-.95 1.25a3.73 3.73 0 0 1-2.44 1.29 3.08 3.08 0 0 1-2.11-.68 4.76 4.76 0 0 1-1.37-1.45c-.21-.35-.43-.68-.63-1a3.74 3.74 0 0 1-.34-1.41.87.87 0 0 0-.17-.42 2.3 2.3 0 0 1-.42-1.15 8.13 8.13 0 0 1-.1-1.39 5 5 0 0 1 .19-.85.54.54 0 0 0 0-.25 4.35 4.35 0 0 1 .42-3.13.89.89 0 0 1 .63-.52c.06 0 .13-.12.14-.19a2.34 2.34 0 0 1 1.71-1.94 5.44 5.44 0 0 1 5.6 1.58 4.16 4.16 0 0 1 1.14 2.93zm-1.58 2.52h-.06c0-.22.05-.44.06-.66 0-.38-.06-.53-.37-.66a2.54 2.54 0 0 0-.45-.13c-.85-.19-1.71-.35-2.55-.57a6 6 0 0 1-2.61-1.42l-.24-.21a19.6 19.6 0 0 1-.32 3.68 4.2 4.2 0 0 1-.29-.32c-.2-.18-.42-.11-.49.16a3.39 3.39 0 0 0 .18 2 .43.43 0 0 0 .23.26c.15 0 .18.15.17.29a3.51 3.51 0 0 0 .35 1.44 10.08 10.08 0 0 0 .68 1.14 5.08 5.08 0 0 0 1.2 1 2.11 2.11 0 0 0 1.93.22 4 4 0 0 0 1.21-.8 5.31 5.31 0 0 0 .94-1.17 3.77 3.77 0 0 0 .6-2c0-.06.07-.17.11-.17s.26-.16.32-.31a3.28 3.28 0 0 0 .18-2c-.07-.33-.26-.41-.51-.2-.08.22-.17.33-.27.43z"/><path id="_复合路径_8" data-name="&lt;复合路径&gt;" class="cls-2" d="M503.52 216.32a1.45 1.45 0 0 1-1.21 1.52 1.39 1.39 0 0 1-1.52-1.09 3.07 3.07 0 0 1-.07-.53c0-.23-.11-.34-.35-.34s-.36.1-.35.35a1.46 1.46 0 0 1-.82 1.49 1.41 1.41 0 0 1-1.93-1 1.72 1.72 0 0 1 .59-1.63 1.34 1.34 0 0 1 1.58 0 .29.29 0 0 0 .38 0 1.25 1.25 0 0 1 1.16 0 .24.24 0 0 0 .31 0 1.22 1.22 0 0 1 1.46-.15 1.44 1.44 0 0 1 .77 1.38zm-2 0a.58.58 0 1 0 1.16 0 .65.65 0 0 0-.59-.65.65.65 0 0 0-.54.66zm-2.34 0a.62.62 0 0 0-.56-.66.65.65 0 0 0 0 1.29.62.62 0 0 0 .59-.61z"/></g></g></g><text class="cls-16" transform="translate(549.02 430.42)" id="_编组_62" data-name="&lt;编组&gt;">PE/VC</text><text class="cls-16" transform="translate(173.04 504.22)" id="_编组_63" data-name="&lt;编组&gt;">Community<tspan x="7.21" y="10.52">Members</tspan></text><text class="cls-16" transform="translate(386.32 504.41)" id="_编组_64" data-name="&lt;编组&gt;">Community<tspan x="7.21" y="10.52">Members</tspan></text><text class="cls-16" transform="translate(0 301.18)" id="_编组_65" data-name="&lt;编组&gt;">Community<tspan x="7.21" y="10.52">Members</tspan></text><text class="cls-16" transform="translate(39.41 417.53)" id="_编组_66" data-name="&lt;编组&gt;">Accredited<tspan x="8.31" y="10.52">Investor</tspan></text><text class="cls-16" transform="translate(576.41 299.71)" id="_编组_67" data-name="&lt;编组&gt;">Community<tspan x="7.21" y="10.52">Members</tspan></text></g></g></g></svg>