<svg xmlns="http://www.w3.org/2000/svg" viewBox="0 0 156.78 180.49"><defs><style>.cls-1,.cls-2{fill:none;stroke:#f3b12d;stroke-linecap:round;stroke-linejoin:round}.cls-2{stroke:#00c3ff}</style><linearGradient id="未命名的渐变_43" x1="83.78" y1="137.28" x2="83.78" y2="40.09" gradientUnits="userSpaceOnUse"><stop offset=".01" stop-color="#00c3ff"/><stop offset=".21" stop-color="#00bffb"/><stop offset=".42" stop-color="#00b2ef"/><stop offset=".64" stop-color="#009edb"/><stop offset=".85" stop-color="#0081bf"/><stop offset="1" stop-color="#0068a7"/></linearGradient></defs><g id="图层_2" data-name="图层 2"><g id="图层_1-2" data-name="图层 1"><g id="_编组_" data-name="&lt;编组&gt;"><g id="_编组_2" data-name="&lt;编组&gt;"><path id="_路径_" data-name="&lt;路径&gt;" class="cls-1" d="M78.39 167.82l-67.34-38.66V51.28L.5 45.19v90.09l77.89 44.71v-12.17z"/><path id="_路径_2" data-name="&lt;路径&gt;" class="cls-1" d="M145.74 51.28v77.88l-67.35 38.66v12.17l67.35-38.65v.03l10.54-6.09V45.19l-10.54 6.09z"/><path id="_路径_3" data-name="&lt;路径&gt;" class="cls-1" d="M78.39 12.68l-67.34 38.6v77.91l10.54-6.08V57.42l56.8-32.6V12.68z"/><path id="_路径_4" data-name="&lt;路径&gt;" class="cls-1" d="M78.39 12.68l-67.34 38.6v77.91l10.54-6.08V57.42l56.8-32.6V12.68z"/><path id="_路径_5" data-name="&lt;路径&gt;" class="cls-1" d="M102.56 38.69l32.63 18.73v65.69l10.55 6.08V51.28l-67.35-38.6v12.14l3.11 1.78"/><path id="_路径_6" data-name="&lt;路径&gt;" class="cls-1" d="M145.74 51.28l10.53-6.08L78.39.5v12.18l67.31 38.63.04-.03z"/><g id="_编组_3" data-name="&lt;编组&gt;"><path id="_路径_7" data-name="&lt;路径&gt;" class="cls-1" d="M135.19 123.11l-56.8 32.57-13.31-7.63-43.56-24.94-10.47 6.05 67.34 38.66 67.35-38.63-10.55-6.08z"/></g><path id="_路径_8" data-name="&lt;路径&gt;" class="cls-1" d="M.52 45.2l10.53 6.08.01.04 67.33-38.64V.5L.52 45.2z"/></g><g id="_编组_4" data-name="&lt;编组&gt;"><path id="_复合路径_" data-name="&lt;复合路径&gt;" class="cls-2" d="M78.39 128l13.81-7.9 10.54 6.09-37.92 21.7-10.6-6.09 13.4-7.65"/></g><g id="_编组_5" data-name="&lt;编组&gt;"><path id="_复合路径_2" data-name="&lt;复合路径&gt;" class="cls-2" d="M67.6 134.12V58.39l10.55-6.46v88.28z"/></g><g id="_编组_6" data-name="&lt;编组&gt;"><path id="_复合路径_3" data-name="&lt;复合路径&gt;" class="cls-2" d="M102.58 26.55L65.31 48.26l-10.55-6.09L92 20.46z"/></g><path id="_路径_9" data-name="&lt;路径&gt;" class="cls-2" d="M54.76 54.34V42.17l10.55 6.09v12.17l-10.55-6.09z"/><path id="_路径_10" data-name="&lt;路径&gt;" stroke="#00c3ff" stroke-linecap="round" stroke-linejoin="round" d="M88.69 134.23V46.81l13.84-8.06V26.57L65.31 48.26v12.17l12.84-7.48v87.31l-13.33 7.63 10.56 6.05 27.36-15.58v-12.17l-14.05 8.04z"/><path id="_路径_11" data-name="&lt;路径&gt;" fill="url(#未命名的渐变_43)" d="M88.69 134.23V46.81l13.84-8.06V26.57L65.31 48.26v12.17l12.84-7.48v87.31l-13.33 7.63 10.56 6.05 27.36-15.58v-12.17l-14.05 8.04z"/></g></g></g></svg>