<svg xmlns="http://www.w3.org/2000/svg" viewBox="0 0 136.57 56.87"><defs><style>.cls-1{fill:#fff}</style></defs><g id="图层_2" data-name="图层 2"><g id="图层_1-2" data-name="图层 1"><g id="_编组_" data-name="&lt;编组&gt;"><g id="_编组_2" data-name="&lt;编组&gt;"><path id="_路径_" data-name="&lt;路径&gt;" class="cls-1" d="M9.05 27.8V0H0v27.8h9.05z"/><path id="_路径_2" data-name="&lt;路径&gt;" class="cls-1" d="M25.44 44.24a16.42 16.42 0 0 1-5.93 12.63h21.61L27.56 28.1l1.7-.8A14.38 14.38 0 0 0 24.73 0H12.81v28.25a16.48 16.48 0 0 1 12.63 15.99z"/><path id="_路径_3" data-name="&lt;路径&gt;" class="cls-1" d="M21.68 44.24A12.71 12.71 0 0 0 9 31.55H0v25.32h10.27a12.7 12.7 0 0 0 11.41-12.63z"/><path id="_路径_4" data-name="&lt;路径&gt;" class="cls-1" d="M34.29 0a18.13 18.13 0 0 1 7 14.29v1.23a17.38 17.38 0 0 1 15.58-9.84v3.76a13.61 13.61 0 0 0 0 27.21v3.75A17.38 17.38 0 0 1 39.51 23v-1.08a18.26 18.26 0 0 1-7 7.85l12.75 27.1h11.61V0z"/></g><g id="_编组_3" data-name="&lt;编组&gt;"><g id="_编组_4" data-name="&lt;编组&gt;"><path id="_复合路径_" data-name="&lt;复合路径&gt;" class="cls-1" d="M70.67.51C73 .51 73.74 1.67 73.74 3v4.28c0 1.32-.79 2.49-3.07 2.49h-3.45V.51zM69 8.22h1.52c1.18 0 1.5-.47 1.5-1.36V3.42c0-.89-.32-1.36-1.5-1.36H69z"/><path id="_复合路径_2" data-name="&lt;复合路径&gt;" class="cls-1" d="M75 2V0h1.69v2zm0 7.73V3h1.69v6.77z"/><path id="_复合路径_3" data-name="&lt;复合路径&gt;" class="cls-1" d="M80.17 9.9a8 8 0 0 1-2.33-.38l.23-1.3a7.45 7.45 0 0 0 2 .3c.75 0 .86-.17.86-.69s-.09-.62-1.18-.88c-1.66-.41-1.85-.82-1.85-2.13s.6-2 2.53-2a9.16 9.16 0 0 1 2 .24l-.17 1.35a11.75 11.75 0 0 0-1.86-.2c-.74 0-.86.17-.86.58s0 .59 1 .82c1.89.5 2.07.75 2.07 2.14s-.4 2.15-2.44 2.15z"/><path id="_复合路径_4" data-name="&lt;复合路径&gt;" class="cls-1" d="M87.32 9.64a4.74 4.74 0 0 1-1.48.26C84.6 9.9 84 9.32 84 8.11V4.35h-1V3h1V1.32l1.69-.24V3h1.74l-.13 1.35h-1.63v3.54a.54.54 0 0 0 .61.6 3.42 3.42 0 0 0 .85-.14z"/><path id="_复合路径_5" data-name="&lt;复合路径&gt;" class="cls-1" d="M91.59 4.42a13 13 0 0 0-1.79 1v4.35h-1.7V3h1.43l.11.75a7.77 7.77 0 0 1 1.78-.89z"/><path id="_复合路径_6" data-name="&lt;复合路径&gt;" class="cls-1" d="M92.17 2V0h1.7v2zm0 7.73V3h1.7v6.77z"/><path id="_复合路径_7" data-name="&lt;复合路径&gt;" class="cls-1" d="M101 7.17c0 1.64-.5 2.73-3.11 2.73a15.85 15.85 0 0 1-2.62-.23V.24L97 0v3.26a5.72 5.72 0 0 1 2-.4c1.46 0 2 .89 2 2.32zM97 8.4a6.46 6.46 0 0 0 1 .06c1.12 0 1.34-.44 1.34-1.24V5.14c0-.54-.24-.83-.86-.83A3.83 3.83 0 0 0 97 4.7z"/><path id="_复合路径_8" data-name="&lt;复合路径&gt;" class="cls-1" d="M103.66 3v4.72c0 .36.15.55.54.55a4.72 4.72 0 0 0 1.8-.57V3h1.69v6.77h-1.29l-.17-.57a6.85 6.85 0 0 1-2.71.7c-1.12 0-1.52-.79-1.52-2V3z"/><path id="_复合路径_9" data-name="&lt;复合路径&gt;" class="cls-1" d="M112.65 9.64a4.8 4.8 0 0 1-1.49.26c-1.23 0-1.86-.58-1.86-1.79V4.35h-1V3h1V1.32l1.7-.24V3h1.73l-.11 1.35H111v3.54a.53.53 0 0 0 .61.6 3.35 3.35 0 0 0 .84-.14z"/><path id="_复合路径_10" data-name="&lt;复合路径&gt;" class="cls-1" d="M116.14 8.52a7.09 7.09 0 0 0 2.06-.32l.27 1.27a7.09 7.09 0 0 1-2.47.43c-2.12 0-2.86-1-2.86-2.61V5.5c0-1.43.64-2.64 2.81-2.64s2.65 1.27 2.65 2.72V7h-3.76v.35c-.02.85.27 1.17 1.3 1.17zm-1.32-2.85H117v-.34c0-.63-.2-1.08-1-1.08a1 1 0 0 0-1.12 1.08z"/><path id="_复合路径_11" data-name="&lt;复合路径&gt;" class="cls-1" d="M119.27 5.25c0-1.5.67-2.39 2.24-2.39a9.46 9.46 0 0 1 1.81.2V.24L125 0v9.77h-1.35l-.16-.57a3.56 3.56 0 0 1-2.14.7c-1.36 0-2.09-.8-2.09-2.34zm4-.76a7.42 7.42 0 0 0-1.5-.18c-.61 0-.85.29-.85.9V7.6c0 .55.21.86.83.86a2.42 2.42 0 0 0 1.52-.61z"/><path id="_复合路径_12" data-name="&lt;复合路径&gt;" class="cls-1" d="M72.76 25.42l-2.12-3.06H69v3.06h-1.78v-9.25H71c2.16 0 2.95.87 2.95 2.5v1.21a2.1 2.1 0 0 1-1.39 2.23l2.29 3.31zM71 17.71h-2v3.14h2c1 0 1.26-.35 1.26-1.12v-.92c-.05-.81-.38-1.1-1.26-1.1z"/><path id="_复合路径_13" data-name="&lt;复合路径&gt;" class="cls-1" d="M78.34 24.17a7.2 7.2 0 0 0 2.07-.32l.26 1.28a7.29 7.29 0 0 1-2.49.43c-2.12 0-2.86-1-2.86-2.61v-1.79c0-1.43.64-2.64 2.81-2.64s2.65 1.26 2.65 2.72v1.44H77V23c0 .85.31 1.17 1.34 1.17zM77 21.32h2.15V21c0-.64-.2-1.08-1-1.08S77 20.35 77 21z"/><path id="_复合路径_14" data-name="&lt;复合路径&gt;" class="cls-1" d="M83.67 23.6a.73.73 0 0 0-.4.54c0 .18.11.27.37.29l2 .21a1.42 1.42 0 0 1 1.45 1.64c0 1.45-.53 2-3.06 2a9.66 9.66 0 0 1-2.65-.28l.21-1.26a9.35 9.35 0 0 0 2.27.29c1.35 0 1.62-.1 1.62-.55s-.13-.48-.64-.54l-2-.22c-1-.11-1.34-.43-1.34-1.29a1.42 1.42 0 0 1 .71-1.15 2 2 0 0 1-.91-1.82v-.64c0-1.41.76-2.25 2.72-2.25a4.25 4.25 0 0 1 1.15.14h2.13v.84l-.75.21a2.36 2.36 0 0 1 .23 1.06v.64c0 1.37-.83 2.21-2.72 2.21a2.48 2.48 0 0 1-.39-.07zm.39-3.72c-.83 0-1.13.3-1.13.94v.52c0 .66.34.91 1.13.91s1.14-.26 1.14-.91v-.52c0-.64-.29-.94-1.14-.94z"/><path id="_复合路径_15" data-name="&lt;复合路径&gt;" class="cls-1" d="M91.59 25.3a4.8 4.8 0 0 1-1.49.26c-1.23 0-1.86-.58-1.86-1.79V20h-1v-1.34h1V17l1.7-.24v1.92h1.73L91.56 20h-1.62v3.55c0 .36.16.59.61.59a3 3 0 0 0 .84-.14z"/><path id="_复合路径_16" data-name="&lt;复合路径&gt;" class="cls-1" d="M95.08 24.17a7.2 7.2 0 0 0 2.07-.32l.26 1.28a7.33 7.33 0 0 1-2.49.43c-2.12 0-2.86-1-2.86-2.61v-1.79c0-1.43.64-2.64 2.81-2.64s2.65 1.26 2.65 2.72v1.44h-3.76V23c0 .85.29 1.17 1.32 1.17zm-1.32-2.85h2.15V21c0-.64-.2-1.08-1-1.08s-1.12.44-1.12 1.08z"/><path id="_复合路径_17" data-name="&lt;复合路径&gt;" class="cls-1" d="M98.19 23v-1.89c0-1.81.79-2.59 2.91-2.59a5.72 5.72 0 0 1 1.66.25l-.21 1.39a5.9 5.9 0 0 0-1.4-.18c-1 0-1.27.29-1.27 1.12V23c0 .83.29 1.12 1.27 1.12a5.49 5.49 0 0 0 1.4-.18l.21 1.39a5.73 5.73 0 0 1-1.66.25c-2.1-.02-2.91-.8-2.91-2.58z"/><path id="_复合路径_18" data-name="&lt;复合路径&gt;" class="cls-1" d="M107.76 25.42V20.7c0-.36-.15-.54-.54-.54a4.67 4.67 0 0 0-1.77.57v4.69h-1.69v-9.53l1.69-.23v3.51a6 6 0 0 1 2.47-.65c1.13 0 1.53.79 1.53 2v4.9z"/><path id="_复合路径_19" data-name="&lt;复合路径&gt;" class="cls-1" d="M67 34.37c0-1.7 1-2.68 3.3-2.68a10.65 10.65 0 0 1 2.51.3l-.19 1.52a13.61 13.61 0 0 0-2.27-.24c-1.21 0-1.6.42-1.6 1.4v3.56c0 1 .39 1.4 1.6 1.4a14.67 14.67 0 0 0 2.27-.23l.19 1.51a10.65 10.65 0 0 1-2.51.31c-2.31 0-3.3-1-3.3-2.69z"/><path id="_复合路径_20" data-name="&lt;复合路径&gt;" class="cls-1" d="M76.5 41.22c-2.32 0-2.94-1.28-2.94-2.67v-1.71c0-1.39.62-2.67 2.94-2.67s3 1.28 3 2.67v1.71c-.05 1.39-.68 2.67-3 2.67zm0-5.6c-.9 0-1.25.4-1.25 1.16v1.82c0 .77.35 1.17 1.25 1.17s1.25-.4 1.25-1.17v-1.82c0-.78-.35-1.16-1.25-1.16z"/><path id="_复合路径_21" data-name="&lt;复合路径&gt;" class="cls-1" d="M80.53 41.08v-9.53l1.7-.24v9.77z"/><path id="_复合路径_22" data-name="&lt;复合路径&gt;" class="cls-1" d="M83.61 41.08v-9.53l1.7-.24v9.77z"/><path id="_复合路径_23" data-name="&lt;复合路径&gt;" class="cls-1" d="M91.71 41.08h-1.39l-.12-.46a3.72 3.72 0 0 1-2 .6c-1.23 0-1.76-.85-1.76-2 0-1.37.6-1.9 2-1.9H90v-.71c0-.75-.21-1-1.29-1a9.92 9.92 0 0 0-1.88.2l-.21-1.29a9 9 0 0 1 2.38-.35c2.13 0 2.75.75 2.75 2.45zM90 38.52h-1.23c-.56 0-.71.15-.71.67s.15.68.68.68a2.68 2.68 0 0 0 1.26-.35z"/><path id="_复合路径_24" data-name="&lt;复合路径&gt;" class="cls-1" d="M98.7 38.48c0 1.64-.5 2.74-3.11 2.74A15.1 15.1 0 0 1 93 41v-9.45l1.7-.24v3.27a5.49 5.49 0 0 1 2-.41c1.46 0 2 .89 2 2.32zm-4 1.24a7.94 7.94 0 0 0 1 .05c1.11 0 1.34-.44 1.34-1.24v-2.08c0-.54-.24-.83-.87-.83a3.83 3.83 0 0 0-1.48.39z"/><path id="_复合路径_25" data-name="&lt;复合路径&gt;" class="cls-1" d="M102.38 41.22c-2.32 0-2.94-1.28-2.94-2.67v-1.71c0-1.39.62-2.67 2.94-2.67s3 1.28 3 2.67v1.71c-.05 1.39-.68 2.67-3 2.67zm0-5.6c-.9 0-1.25.4-1.25 1.16v1.82c0 .77.35 1.17 1.25 1.17s1.25-.4 1.25-1.17v-1.82c0-.78-.34-1.16-1.25-1.16z"/><path id="_复合路径_26" data-name="&lt;复合路径&gt;" class="cls-1" d="M109.9 35.73a13.5 13.5 0 0 0-1.79 1v4.37h-1.7v-6.79h1.43l.11.75a7.77 7.77 0 0 1 1.78-.89z"/><path id="_复合路径_27" data-name="&lt;复合路径&gt;" class="cls-1" d="M115.5 41.08h-1.39l-.13-.46a3.71 3.71 0 0 1-2 .6c-1.24 0-1.77-.85-1.77-2 0-1.37.6-1.9 2-1.9h1.62v-.71c0-.75-.21-1-1.29-1a9.92 9.92 0 0 0-1.88.2l-.2-1.29a9 9 0 0 1 2.32-.32c2.12 0 2.75.75 2.75 2.45zm-1.7-2.56h-1.25c-.55 0-.71.15-.71.67s.16.68.68.68a2.68 2.68 0 0 0 1.28-.35z"/><path id="_复合路径_28" data-name="&lt;复合路径&gt;" class="cls-1" d="M120.34 41a4.74 4.74 0 0 1-1.48.27c-1.24 0-1.86-.59-1.86-1.8v-3.81h-1v-1.35h1v-1.68l1.69-.24v1.92h1.74l-.11 1.35h-1.63v3.54a.54.54 0 0 0 .61.6 3.42 3.42 0 0 0 .85-.14z"/><path id="_复合路径_29" data-name="&lt;复合路径&gt;" class="cls-1" d="M121.12 33.35v-2h1.7v2zm0 7.73v-6.77h1.7v6.77z"/><path id="_复合路径_30" data-name="&lt;复合路径&gt;" class="cls-1" d="M126.85 41.22c-2.32 0-2.95-1.28-2.95-2.67v-1.71c0-1.39.63-2.67 2.95-2.67s2.94 1.28 2.94 2.67v1.71c0 1.39-.62 2.67-2.94 2.67zm0-5.6c-.91 0-1.25.4-1.25 1.16v1.82c0 .77.34 1.17 1.25 1.17s1.25-.4 1.25-1.17v-1.82c0-.78-.35-1.16-1.25-1.16z"/><path id="_复合路径_31" data-name="&lt;复合路径&gt;" class="cls-1" d="M134.87 41.08v-4.73c0-.36-.15-.54-.54-.54a4.68 4.68 0 0 0-1.76.57v4.7h-1.7v-6.77h1.3l.16.57a6.75 6.75 0 0 1 2.71-.71c1.13 0 1.53.79 1.53 2v4.91z"/><path id="_复合路径_32" data-name="&lt;复合路径&gt;" class="cls-1" d="M67.22 47.48h3.61c2.14 0 2.94.88 2.94 2.5v1.27c0 1.61-.87 2.48-3 2.48H69v3h-1.78zM70.74 49H69v3.17h1.77c1 0 1.27-.36 1.27-1.13v-.94c-.04-.74-.34-1.1-1.3-1.1z"/><path id="_复合路径_33" data-name="&lt;复合路径&gt;" class="cls-1" d="M74.6 56.73V47.2l1.69-.2v9.76z"/><path id="_复合路径_34" data-name="&lt;复合路径&gt;" class="cls-1" d="M82.7 56.73h-1.39l-.13-.46a3.63 3.63 0 0 1-2 .6c-1.24 0-1.77-.85-1.77-2 0-1.38.6-1.91 2-1.91H81v-.7c0-.75-.21-1-1.29-1a9 9 0 0 0-1.87.21l-.21-1.29a8.61 8.61 0 0 1 2.37-.35c2.12 0 2.75.75 2.75 2.44zM81 54.18h-1.25c-.55 0-.71.15-.71.66s.16.68.68.68a2.68 2.68 0 0 0 1.28-.34z"/><path id="_复合路径_35" data-name="&lt;复合路径&gt;" class="cls-1" d="M87.55 56.61a4.85 4.85 0 0 1-1.49.26c-1.24 0-1.86-.58-1.86-1.79v-3.77h-1V50h1v-1.71l1.69-.24V50h1.74l-.11 1.34h-1.63v3.55a.53.53 0 0 0 .61.59 3.38 3.38 0 0 0 .85-.13z"/><path id="_复合路径_36" data-name="&lt;复合路径&gt;" class="cls-1" d="M92.21 48.43a4.94 4.94 0 0 0-1-.12c-.67 0-.76.3-.76.81V50h1.75l-.1 1.34h-1.62v5.42h-1.7v-5.45H87.7V50h1.08v-1c0-1.4.66-2.09 2.16-2.09a5.14 5.14 0 0 1 1.45.19z"/><path id="_复合路径_37" data-name="&lt;复合路径&gt;" class="cls-1" d="M95.45 56.87c-2.32 0-2.94-1.28-2.94-2.67v-1.7c0-1.39.62-2.67 2.94-2.67s2.94 1.28 2.94 2.67v1.7c0 1.39-.62 2.67-2.94 2.67zm0-5.6c-.9 0-1.25.41-1.25 1.17v1.82c0 .76.35 1.17 1.25 1.17s1.25-.43 1.25-1.17v-1.82c0-.76-.35-1.17-1.25-1.17z"/><path id="_复合路径_38" data-name="&lt;复合路径&gt;" class="cls-1" d="M103 51.38a13.68 13.68 0 0 0-1.8 1v4.36h-1.72V50h1.43l.11.75a7.77 7.77 0 0 1 1.78-.89z"/><path id="_复合路径_39" data-name="&lt;复合路径&gt;" class="cls-1" d="M107.55 56.73V52c0-.36-.15-.54-.54-.54a4.72 4.72 0 0 0-1.77.57v4.69h-1.69V50h1.29l.17.57a6.71 6.71 0 0 1 2.71-.71 1.27 1.27 0 0 1 1.27.72 6.61 6.61 0 0 1 2.73-.72c1.12 0 1.53.79 1.53 2v4.9h-1.7V52c0-.36-.15-.54-.54-.54a4.43 4.43 0 0 0-1.77.57v4.69z"/></g></g></g></g></g></svg>