<svg xmlns="http://www.w3.org/2000/svg" viewBox="0 0 18.35 24.97"><title>资源 23</title><g id="图层_2" data-name="图层 2"><g id="图层_1-2" data-name="图层 1"><path d="M3.28,5.56A2.28,2.28,0,0,1,3.28,1H18.17V0H3.28A3.28,3.28,0,0,0,0,3.28V21.69A3.28,3.28,0,0,0,3.28,25H18.35V5.56ZM1,21.69V5.63a3.22,3.22,0,0,0,2,.9V24A2.28,2.28,0,0,1,1,21.69ZM17.35,24H4V6.56H17.35Z"/><rect x="7.87" y="11.17" width="6.87" height="1"/><rect x="9.61" y="13.98" width="5.12" height="1"/><rect x="8.74" y="16.79" width="5.99" height="1"/><rect x="3.14" y="2.88" width="15.02" height="1"/></g></g></svg>