<svg xmlns="http://www.w3.org/2000/svg" xmlns:xlink="http://www.w3.org/1999/xlink" viewBox="0 0 1920 562.6"><defs><style>.cls-1{font-size:30px;font-family:Helvetica-Condensed-Bold, Helvetica Condensed;font-weight:700;letter-spacing:-0.04em;}.cls-1,.cls-13{fill:#fff;}.cls-12,.cls-2{fill:none;stroke-miterlimit:10;}.cls-2{stroke:#dc9a2d;}.cls-3{fill:#f3b12d;}.cls-4{fill:url(#未命名的渐变_460);}.cls-5{fill:url(#未命名的渐变_460-2);}.cls-6{fill:url(#未命名的渐变_460-3);}.cls-7{fill:url(#未命名的渐变_460-4);}.cls-8{fill:url(#未命名的渐变_460-5);}.cls-9{fill:url(#未命名的渐变_460-6);}.cls-10{fill:url(#未命名的渐变_460-7);}.cls-11{fill:url(#未命名的渐变_460-8);}.cls-12{stroke:#f3b12d;}.cls-13{font-size:21.88px;font-family:ArialMT-Light, Arial;}.cls-14{letter-spacing:-0.01em;}.cls-15{letter-spacing:-0.02em;}.cls-16{letter-spacing:-0.02em;}.cls-17{letter-spacing:-0.03em;}.cls-18{letter-spacing:0.05em;}.cls-19{letter-spacing:0.12em;}.cls-20{letter-spacing:-0.01em;}.cls-21{letter-spacing:0em;}.cls-22{letter-spacing:0.05em;}.cls-23{letter-spacing:-0.02em;}.cls-24{letter-spacing:0.04em;}.cls-25{letter-spacing:-0.05em;}.cls-26{letter-spacing:-0.02em;}.cls-27{letter-spacing:-0.04em;}.cls-28{letter-spacing:-0.05em;}.cls-29{letter-spacing:0.04em;}.cls-30{letter-spacing:-0.01em;}.cls-31{letter-spacing:-0.02em;}.cls-32{letter-spacing:-0.11em;}.cls-33{letter-spacing:0em;}</style><radialGradient id="未命名的渐变_460" cx="379.12" cy="279.16" r="31.21" gradientUnits="userSpaceOnUse"><stop offset="0" stop-color="#00c3ff"/><stop offset="1" stop-color="#00c3ff" stop-opacity="0"/></radialGradient><radialGradient id="未命名的渐变_460-2" cx="545.09" cy="279.16" r="31.21" xlink:href="#未命名的渐变_460"/><radialGradient id="未命名的渐变_460-3" cx="711.05" cy="279.16" r="31.21" xlink:href="#未命名的渐变_460"/><radialGradient id="未命名的渐变_460-4" cx="877.02" cy="279.16" r="31.21" xlink:href="#未命名的渐变_460"/><radialGradient id="未命名的渐变_460-5" cx="1042.98" cy="279.16" r="31.21" xlink:href="#未命名的渐变_460"/><radialGradient id="未命名的渐变_460-6" cx="1208.95" cy="279.16" r="31.21" xlink:href="#未命名的渐变_460"/><radialGradient id="未命名的渐变_460-7" cx="1375.65" cy="279.16" r="31.21" xlink:href="#未命名的渐变_460"/><radialGradient id="未命名的渐变_460-8" cx="1541.59" cy="279.16" r="31.21" xlink:href="#未命名的渐变_460"/></defs><title>资源 24</title><g id="图层_2" data-name="图层 2"><g id="图层_1-2" data-name="图层 1"><g id="_编组_" data-name="&lt;编组&gt;"><text class="cls-1" transform="translate(340.3 173.98)">2016.8<tspan x="34.5" y="24.28">-</tspan><tspan x="0" y="51.65">2017.8</tspan></text></g><g id="_编组_2" data-name="&lt;编组&gt;"><text class="cls-1" transform="translate(506.32 355.33)">2017.9</text></g><line id="_路径_" data-name="&lt;路径&gt;" class="cls-2" y1="279.16" x2="1920" y2="279.16"/><g id="_编组_3" data-name="&lt;编组&gt;"><path id="_复合路径_" data-name="&lt;复合路径&gt;" class="cls-3" d="M379.12,310.36a31.21,31.21,0,1,1,31.21-31.2A31.23,31.23,0,0,1,379.12,310.36Zm0-59.74a28.54,28.54,0,1,0,28.54,28.54A28.57,28.57,0,0,0,379.12,250.62Z"/></g><g id="_编组_4" data-name="&lt;编组&gt;"><path id="_复合路径_2" data-name="&lt;复合路径&gt;" class="cls-4" d="M379.12,310.36a31.21,31.21,0,1,1,31.21-31.2A31.23,31.23,0,0,1,379.12,310.36Z"/></g><g id="_编组_5" data-name="&lt;编组&gt;"><path id="_复合路径_3" data-name="&lt;复合路径&gt;" class="cls-5" d="M545.09,310.36a31.21,31.21,0,1,1,31.2-31.2A31.24,31.24,0,0,1,545.09,310.36Z"/></g><g id="_编组_6" data-name="&lt;编组&gt;"><path id="_复合路径_4" data-name="&lt;复合路径&gt;" class="cls-6" d="M711.05,310.36a31.21,31.21,0,1,1,31.21-31.2A31.23,31.23,0,0,1,711.05,310.36Z"/></g><g id="_编组_7" data-name="&lt;编组&gt;"><path id="_复合路径_5" data-name="&lt;复合路径&gt;" class="cls-7" d="M877,310.36a31.21,31.21,0,1,1,31.2-31.2A31.24,31.24,0,0,1,877,310.36Z"/></g><g id="_编组_8" data-name="&lt;编组&gt;"><path id="_复合路径_6" data-name="&lt;复合路径&gt;" class="cls-8" d="M1043,310.36a31.21,31.21,0,1,1,31.21-31.2A31.23,31.23,0,0,1,1043,310.36Z"/></g><g id="_编组_9" data-name="&lt;编组&gt;"><path id="_复合路径_7" data-name="&lt;复合路径&gt;" class="cls-9" d="M1209,310.36a31.21,31.21,0,1,1,31.2-31.2A31.24,31.24,0,0,1,1209,310.36Z"/></g><g id="_编组_10" data-name="&lt;编组&gt;"><path id="_复合路径_8" data-name="&lt;复合路径&gt;" class="cls-10" d="M1375.65,310.36a31.21,31.21,0,1,1,31.2-31.2A31.24,31.24,0,0,1,1375.65,310.36Z"/></g><g id="_编组_11" data-name="&lt;编组&gt;"><path id="_复合路径_9" data-name="&lt;复合路径&gt;" class="cls-11" d="M1541.59,310.36a31.21,31.21,0,1,1,31.21-31.2A31.23,31.23,0,0,1,1541.59,310.36Z"/></g><path id="_路径_2" data-name="&lt;路径&gt;" class="cls-12" d="M379.12,323.24A44.09,44.09,0,0,1,335,279.16"/><path id="_路径_3" data-name="&lt;路径&gt;" class="cls-12" d="M545.09,235.08a44.08,44.08,0,0,1,44.07,44.08"/><path id="_路径_4" data-name="&lt;路径&gt;" class="cls-12" d="M877,235.08a44.09,44.09,0,0,1,44.08,44.08"/><path id="_路径_5" data-name="&lt;路径&gt;" class="cls-12" d="M1209,235.08A44.09,44.09,0,0,1,1253,279.16"/><path id="_路径_6" data-name="&lt;路径&gt;" class="cls-12" d="M1540.88,235.08A44.09,44.09,0,0,1,1585,279.16"/><line id="_路径_7" data-name="&lt;路径&gt;" class="cls-12" x1="379.12" y1="310.34" x2="379.12" y2="457.58"/><circle id="_路径_8" data-name="&lt;路径&gt;" class="cls-3" cx="379.12" cy="279.16" r="14.35" transform="translate(42.84 608.67) rotate(-80.78)"/><circle id="_路径_9" data-name="&lt;路径&gt;" class="cls-3" cx="1540.88" cy="279.16" r="14.35" transform="translate(10.46 610.92) rotate(-22.5)"/><g id="_编组_12" data-name="&lt;编组&gt;"><path id="_复合路径_10" data-name="&lt;复合路径&gt;" class="cls-3" d="M1540.88,248a31.21,31.21,0,1,1-31.21,31.21A31.24,31.24,0,0,1,1540.88,248Zm0,59.75a28.54,28.54,0,1,0-28.54-28.54A28.58,28.58,0,0,0,1540.88,307.7Z"/></g><line id="_路径_10" data-name="&lt;路径&gt;" class="cls-12" x1="1540.88" y1="247.98" x2="1540.88" y2="100.74"/><circle id="_路径_11" data-name="&lt;路径&gt;" class="cls-3" cx="711.05" cy="279.16" r="14.35" transform="translate(321.6 936.31) rotate(-80.78)"/><g id="_编组_13" data-name="&lt;编组&gt;"><path id="_复合路径_11" data-name="&lt;复合路径&gt;" class="cls-3" d="M711.05,310.36a31.21,31.21,0,1,1,31.21-31.2A31.23,31.23,0,0,1,711.05,310.36Zm0-59.74a28.54,28.54,0,1,0,28.54,28.54A28.57,28.57,0,0,0,711.05,250.62Z"/></g><path id="_路径_12" data-name="&lt;路径&gt;" class="cls-12" d="M711.05,323.24A44.09,44.09,0,0,1,667,279.16"/><line id="_路径_13" data-name="&lt;路径&gt;" class="cls-12" x1="711.05" y1="310.34" x2="711.05" y2="457.58"/><circle id="_路径_14" data-name="&lt;路径&gt;" class="cls-3" cx="1208.95" cy="279.16" r="14.35" transform="translate(-14.8 483.89) rotate(-22.5)"/><g id="_编组_14" data-name="&lt;编组&gt;"><path id="_复合路径_12" data-name="&lt;复合路径&gt;" class="cls-3" d="M1209,248a31.21,31.21,0,1,1-31.21,31.21A31.24,31.24,0,0,1,1209,248Zm0,59.75a28.54,28.54,0,1,0-28.54-28.54A28.57,28.57,0,0,0,1209,307.7Z"/></g><line id="_路径_15" data-name="&lt;路径&gt;" class="cls-12" x1="1208.95" y1="247.98" x2="1208.95" y2="100.74"/><circle id="_路径_16" data-name="&lt;路径&gt;" class="cls-3" cx="1042.98" cy="279.16" r="14.35" transform="translate(600.36 1263.96) rotate(-80.78)"/><g id="_编组_15" data-name="&lt;编组&gt;"><path id="_复合路径_13" data-name="&lt;复合路径&gt;" class="cls-3" d="M1043,310.36a31.21,31.21,0,1,1,31.21-31.2A31.23,31.23,0,0,1,1043,310.36Zm0-59.74a28.54,28.54,0,1,0,28.54,28.54A28.57,28.57,0,0,0,1043,250.62Z"/></g><path id="_路径_17" data-name="&lt;路径&gt;" class="cls-12" d="M1043,323.24a44.09,44.09,0,0,1-44.08-44.08"/><line id="_路径_18" data-name="&lt;路径&gt;" class="cls-12" x1="1042.98" y1="310.34" x2="1042.98" y2="457.58"/><circle id="_路径_19" data-name="&lt;路径&gt;" class="cls-3" cx="877.02" cy="279.16" r="14.35" transform="translate(-40.07 356.87) rotate(-22.5)"/><g id="_编组_16" data-name="&lt;编组&gt;"><path id="_复合路径_14" data-name="&lt;复合路径&gt;" class="cls-3" d="M877,248a31.21,31.21,0,1,1-31.21,31.21A31.24,31.24,0,0,1,877,248Zm0,59.75a28.54,28.54,0,1,0-28.54-28.54A28.57,28.57,0,0,0,877,307.7Z"/></g><line id="_路径_20" data-name="&lt;路径&gt;" class="cls-12" x1="877.02" y1="247.98" x2="877.02" y2="100.74"/><circle id="_路径_21" data-name="&lt;路径&gt;" class="cls-3" cx="1374.91" cy="279.16" r="14.35" transform="translate(879.12 1591.6) rotate(-80.78)"/><g id="_编组_17" data-name="&lt;编组&gt;"><path id="_复合路径_15" data-name="&lt;复合路径&gt;" class="cls-3" d="M1374.91,310.36a31.21,31.21,0,1,1,31.21-31.2A31.23,31.23,0,0,1,1374.91,310.36Zm0-59.74a28.54,28.54,0,1,0,28.54,28.54A28.57,28.57,0,0,0,1374.91,250.62Z"/></g><path id="_路径_22" data-name="&lt;路径&gt;" class="cls-12" d="M1374.91,323.24a44.08,44.08,0,0,1-44.07-44.08"/><line id="_路径_23" data-name="&lt;路径&gt;" class="cls-12" x1="1374.91" y1="310.34" x2="1374.91" y2="457.58"/><circle id="_路径_24" data-name="&lt;路径&gt;" class="cls-3" cx="545.09" cy="279.16" r="14.35" transform="translate(-65.34 229.85) rotate(-22.5)"/><g id="_编组_18" data-name="&lt;编组&gt;"><path id="_复合路径_16" data-name="&lt;复合路径&gt;" class="cls-3" d="M545.09,248a31.21,31.21,0,1,1-31.21,31.21A31.24,31.24,0,0,1,545.09,248Zm0,59.75a28.54,28.54,0,1,0-28.54-28.54A28.57,28.57,0,0,0,545.09,307.7Z"/></g><line id="_路径_25" data-name="&lt;路径&gt;" class="cls-12" x1="545.09" y1="247.98" x2="545.09" y2="100.74"/><g id="_编组_19" data-name="&lt;编组&gt;"><text class="cls-13" transform="translate(345.07 501.18)">Project<tspan x="-22.39" y="28.4">Prepar</tspan><tspan class="cls-14" x="43.26" y="28.4">a</tspan><tspan x="55.21" y="28.4">tion</tspan></text></g><g id="_编组_20" data-name="&lt;编组&gt;"><text class="cls-13" transform="translate(485.1 47.18)">D<tspan class="cls-15" x="15.8" y="0">R</tspan><tspan x="29.98" y="0">C Project</tspan><tspan x="25.29" y="28.4">Ki</tspan><tspan class="cls-16" x="44.74" y="28.4">c</tspan><tspan class="cls-17" x="56.47" y="28.4">k</tspan><tspan x="66.8" y="28.4">o</tspan><tspan class="cls-18" x="78.97" y="28.4">f</tspan><tspan class="cls-19" x="86.03" y="28.4">f</tspan></text></g><path id="_路径_26" data-name="&lt;路径&gt;" class="cls-3" d="M383.84,457.58a4.72,4.72,0,1,1-4.72-4.72A4.72,4.72,0,0,1,383.84,457.58Z"/><g id="_编组_21" data-name="&lt;编组&gt;"><text class="cls-1" transform="translate(654.04 225.63)">2017.9-10</text></g><g id="_编组_22" data-name="&lt;编组&gt;"><text class="cls-13" transform="translate(631.74 501.18)">D<tspan class="cls-15" x="15.8" y="0">R</tspan><tspan x="29.98" y="0">C Distri</tspan><tspan class="cls-20" x="101.69" y="0">b</tspan><tspan class="cls-21" x="114.84" y="0">uted</tspan><tspan x="-25.75" y="28.4">Pro</tspan><tspan class="cls-14" x="7.08" y="28.4">f</tspan><tspan x="12.94" y="28.4">essional Se</tspan><tspan class="cls-22" x="124.83" y="28.4">r</tspan><tspan x="133.3" y="28.4">vices</tspan><tspan x="1.42" y="56.81">Pl</tspan><tspan class="cls-14" x="19.65" y="56.81">a</tspan><tspan x="31.6" y="56.81">t</tspan><tspan class="cls-23" x="37.68" y="56.81">f</tspan><tspan class="cls-21" x="43.35" y="56.81">o</tspan><tspan class="cls-24" x="55.52" y="56.81">r</tspan><tspan class="cls-21" x="63.59" y="56.81">m Design</tspan></text></g><path id="_路径_27" data-name="&lt;路径&gt;" class="cls-3" d="M715.77,457.58a4.72,4.72,0,1,1-4.72-4.72A4.72,4.72,0,0,1,715.77,457.58Z"/><g id="_编组_23" data-name="&lt;编组&gt;"><text class="cls-1" transform="translate(992.92 225.63)">2018.1-3</text></g><g id="_编组_24" data-name="&lt;编组&gt;"><text class="cls-13" transform="translate(939.23 501.18)">D<tspan class="cls-15" x="15.8" y="0">R</tspan><tspan x="29.98" y="0">C </tspan><tspan class="cls-25" x="51.86" y="0">D</tspan><tspan class="cls-14" x="66.66" y="0">A</tspan><tspan x="81.03" y="0">pp Prototype</tspan><tspan x="11.35" y="28.4">V2.0 D</tspan><tspan class="cls-26" x="77.02" y="28.4">e</tspan><tspan class="cls-27" x="88.73" y="28.4">v</tspan><tspan x="98.86" y="28.4">elopment </tspan></text></g><path id="_路径_28" data-name="&lt;路径&gt;" class="cls-3" d="M1047.7,457.58a4.72,4.72,0,1,1-4.72-4.72A4.72,4.72,0,0,1,1047.7,457.58Z"/><g id="_编组_25" data-name="&lt;编组&gt;"><text class="cls-1" transform="translate(1324.86 225.63)">2018.7-9</text></g><g id="_编组_26" data-name="&lt;编组&gt;"><text class="cls-13" transform="translate(1308.78 501.18)">D<tspan class="cls-15" x="15.8" y="0">R</tspan><tspan x="29.98" y="0">C Pl</tspan><tspan class="cls-14" x="70.09" y="0">a</tspan><tspan x="82.04" y="0">t</tspan><tspan class="cls-23" x="88.12" y="0">f</tspan><tspan class="cls-21" x="93.79" y="0">o</tspan><tspan class="cls-24" x="105.96" y="0">r</tspan><tspan class="cls-21" x="114.03" y="0">m</tspan><tspan class="cls-28" x="-6.63" y="28.4">F</tspan><tspan x="4.53" y="28.4">o</tspan><tspan class="cls-29" x="16.7" y="28.4">r</tspan><tspan x="24.77" y="28.4">mal Laun</tspan><tspan class="cls-30" x="114.78" y="28.4">c</tspan><tspan x="126.73" y="28.4">h</tspan></text></g><path id="_路径_29" data-name="&lt;路径&gt;" class="cls-3" d="M1379.63,457.58a4.72,4.72,0,1,1-4.72-4.72A4.72,4.72,0,0,1,1379.63,457.58Z"/><path id="_路径_30" data-name="&lt;路径&gt;" class="cls-3" d="M549.81,100.74A4.72,4.72,0,1,1,545.09,96,4.72,4.72,0,0,1,549.81,100.74Z"/><g id="_编组_27" data-name="&lt;编组&gt;"><text class="cls-1" transform="translate(813.16 355.33)">2017.10-12</text></g><g id="_编组_28" data-name="&lt;编组&gt;"><text class="cls-13" transform="translate(773.27 47.18)">D<tspan class="cls-15" x="15.8" y="0">R</tspan><tspan x="29.98" y="0">C </tspan><tspan class="cls-25" x="51.86" y="0">D</tspan><tspan class="cls-14" x="66.66" y="0">A</tspan><tspan x="81.03" y="0">pp Prototype</tspan><tspan x="14.39" y="28.4">V1.0 D</tspan><tspan class="cls-31" x="80.06" y="28.4">e</tspan><tspan class="cls-27" x="91.77" y="28.4">v</tspan><tspan x="101.9" y="28.4">elopment</tspan></text></g><path id="_路径_31" data-name="&lt;路径&gt;" class="cls-3" d="M881.74,100.74A4.72,4.72,0,1,1,877,96,4.72,4.72,0,0,1,881.74,100.74Z"/><g id="_编组_29" data-name="&lt;编组&gt;"><text class="cls-1" transform="translate(1158.89 355.33)">2018.4-6</text></g><g id="_编组_30" data-name="&lt;编组&gt;"><text class="cls-13" transform="translate(1142.82 47.18)">D<tspan class="cls-15" x="15.8" y="0">R</tspan><tspan x="29.98" y="0">C Pl</tspan><tspan class="cls-14" x="70.09" y="0">a</tspan><tspan x="82.04" y="0">t</tspan><tspan class="cls-23" x="88.12" y="0">f</tspan><tspan class="cls-21" x="93.79" y="0">o</tspan><tspan class="cls-24" x="105.96" y="0">r</tspan><tspan class="cls-21" x="114.03" y="0">m</tspan><tspan x="7.77" y="28.4">System </tspan><tspan class="cls-32" x="85.59" y="28.4">T</tspan><tspan class="cls-21" x="95.3" y="28.4">est</tspan></text></g><path id="_路径_32" data-name="&lt;路径&gt;" class="cls-3" d="M1213.67,100.74A4.72,4.72,0,1,1,1209,96,4.72,4.72,0,0,1,1213.67,100.74Z"/><g id="_编组_31" data-name="&lt;编组&gt;"><text class="cls-1" transform="translate(1502.1 355.33)">2018.9<tspan x="34.5" y="24.28">-</tspan><tspan x="0" y="48.55">2019.3</tspan></text></g><g id="_编组_32" data-name="&lt;编组&gt;"><text class="cls-13" transform="translate(1456.36 18.78)">Global Promotion<tspan x="-1.81" y="28.4">and D</tspan><tspan class="cls-31" x="57.78" y="28.4">e</tspan><tspan class="cls-27" x="69.49" y="28.4">v</tspan><tspan class="cls-21" x="79.62" y="28.4">elopment</tspan><tspan x="-17.5" y="56.81">o</tspan><tspan class="cls-19" x="-5.33" y="56.81">f</tspan><tspan x="3.32" y="56.81" xml:space="preserve"> other </tspan><tspan class="cls-14" x="65.35" y="56.81">A</tspan><tspan class="cls-33" x="79.73" y="56.81">pplic</tspan><tspan class="cls-14" x="128.36" y="56.81">a</tspan><tspan x="140.31" y="56.81">tions</tspan></text></g><path id="_路径_33" data-name="&lt;路径&gt;" class="cls-3" d="M1545.6,100.74a4.72,4.72,0,1,1-4.72-4.72A4.72,4.72,0,0,1,1545.6,100.74Z"/></g></g></svg>