<svg xmlns="http://www.w3.org/2000/svg" viewBox="0 0 45.54 45.54"><g data-name="图层 2"><g data-name="图层 1"><path data-name="&lt;矩形&gt;" fill="#f3b12d" d="M0 0h45.54v45.54H0z"/><g data-name="&lt;编组&gt;"><path data-name="&lt;路径&gt;" d="M30 11.44a11.55 11.55 0 0 1-6.61 10.42l-1.36.64 10.86 23h3.32L26 23.87a14.6 14.6 0 0 0 5.63-6.28v.86a13.92 13.92 0 0 0 13.9 13.9v-3a10.9 10.9 0 0 1 0-21.79v-3A13.92 13.92 0 0 0 33 12.43v-1A14.5 14.5 0 0 0 27.46 0h-7.65A11.52 11.52 0 0 1 30 11.44zm-9.63 23.99a13.19 13.19 0 0 0-10.12-12.81V0h-3v22.26H0v3h7.2a10.16 10.16 0 0 1 1 20.27h7.4a13.14 13.14 0 0 0 4.77-10.1z"/></g></g></g></svg>