<svg xmlns="http://www.w3.org/2000/svg" xmlns:xlink="http://www.w3.org/1999/xlink" viewBox="0 0 594.78 549.25"><defs><style>.cls-1{fill:none;stroke:#00c3ff}.cls-1,.cls-5{stroke-miterlimit:10}.cls-3{font-size:20.42px;fill:#fff;font-family:ArialMT,Arial}.cls-5{fill:#282828;stroke:#fff}.cls-8{fill:#f3b12d}.cls-12{fill:#00c3ff}</style><linearGradient id="未命名的渐变_46" x1="65.84" y1="285.87" x2="243.84" y2="151.87" gradientUnits="userSpaceOnUse"><stop offset="0" stop-color="#00c3ff" stop-opacity="0"/><stop offset=".2" stop-color="#00c3ff" stop-opacity=".01"/><stop offset=".34" stop-color="#00c3ff" stop-opacity=".05"/><stop offset=".45" stop-color="#00c3ff" stop-opacity=".1"/><stop offset=".55" stop-color="#00c3ff" stop-opacity=".19"/><stop offset=".65" stop-color="#00c3ff" stop-opacity=".3"/><stop offset=".74" stop-color="#00c3ff" stop-opacity=".43"/><stop offset=".83" stop-color="#00c3ff" stop-opacity=".59"/><stop offset=".91" stop-color="#00c3ff" stop-opacity=".77"/><stop offset=".99" stop-color="#00c3ff" stop-opacity=".98"/><stop offset="1" stop-color="#00c3ff"/></linearGradient><linearGradient id="未命名的渐变_49" x1="229.89" y1="111.9" x2="399.9" y2="161.9" gradientUnits="userSpaceOnUse"><stop offset="0" stop-color="#f3b12d" stop-opacity="0"/><stop offset=".1" stop-color="#f3b12d" stop-opacity=".02"/><stop offset=".23" stop-color="#f3b12d" stop-opacity=".09"/><stop offset=".37" stop-color="#f3b12d" stop-opacity=".2"/><stop offset=".53" stop-color="#f3b12d" stop-opacity=".36"/><stop offset=".7" stop-color="#f3b12d" stop-opacity=".56"/><stop offset=".87" stop-color="#f3b12d" stop-opacity=".8"/><stop offset="1" stop-color="#f3b12d"/></linearGradient><linearGradient id="未命名的渐变_49-2" x1="447.42" y1="309.86" x2="330.42" y2="424.86" xlink:href="#未命名的渐变_49"/><linearGradient id="未命名的渐变_46-2" x1="337.95" y1="466.03" x2="226.95" y2="392.02" xlink:href="#未命名的渐变_46"/></defs><g id="图层_2" data-name="图层 2"><g id="图层_1-2" data-name="图层 1"><path id="_路径_" data-name="&lt;路径&gt;" class="cls-1" d="M297.39 274.62L167.13 49A260.43 260.43 0 0 0 36.82 274.62z"/><path id="_路径_2" data-name="&lt;路径&gt;" d="M297.39 274.62L167.13 49A260.43 260.43 0 0 0 36.82 274.62z" fill="url(#未命名的渐变_46)" opacity=".3"/><text class="cls-3" transform="translate(109.81 196.28)"><tspan letter-spacing="-.06em">V</tspan><tspan x="12.49" y="0">oting</tspan><tspan x="-23.81" y="22.06">Mechanism</tspan></text><path id="_路径_3" data-name="&lt;路径&gt;" class="cls-5" d="M297.39 274.62l137-237.36a274 274 0 0 0-274.1 0z"/><path id="_路径_4" data-name="&lt;路径&gt;" d="M297.39 274.62l137-237.36a274 274 0 0 0-274.1 0z" fill="url(#未命名的渐变_49)" opacity=".3"/><path id="_路径_5" data-name="&lt;路径&gt;" class="cls-5" d="M297.39 274.62l130.27 225.63A260.42 260.42 0 0 0 558 274.62z"/><path id="_路径_6" data-name="&lt;路径&gt;" d="M297.39 274.62l130.27 225.63A260.42 260.42 0 0 0 558 274.62z" fill="url(#未命名的渐变_49-2)" opacity=".3"/><text class="cls-3" transform="translate(257.14 57.82)">Incentive<tspan x="-11.34" y="22.06">Mechanism</tspan></text><text class="cls-3" transform="translate(384.76 375.15)">Expert Grading<tspan x="16.47" y="22.06">Mechanism</tspan></text><g id="_编组_" data-name="&lt;编组&gt;"><path id="_路径_7" data-name="&lt;路径&gt;" class="cls-8" d="M320.49 108.74c1-1.2.65-3.2-.7-4.44a3.38 3.38 0 0 0-4.44-.1c-.68.56-5.39 5.38-8.13 8.08s-7.83 3.64-9.83 3.64-7.08-1-9.83-3.64-7.45-7.52-8.13-8.08a3.38 3.38 0 0 0-4.44.1c-1.34 1.24-1.69 3.24-.7 4.44s13.92 14.16 13.92 14.16.6 7.54 0 11.68-4.06 16.42-4.29 17.26a3.16 3.16 0 0 0 2.12 4.21 3.61 3.61 0 0 0 4.78-2.58c.6-2 4.38-15.6 4.58-16.3a2.13 2.13 0 0 1 4.09 0c.2.7 4 14.31 4.57 16.3a3.61 3.61 0 0 0 4.78 2.58 3.16 3.16 0 0 0 2.12-4.21c-.23-.84-3.64-13.12-4.29-17.26s-.05-11.68-.05-11.68 12.87-12.97 13.87-14.16z"/><circle id="_路径_8" data-name="&lt;路径&gt;" class="cls-8" cx="297.39" cy="103.3" r="7.49" transform="rotate(-82.94 297.395 103.296)"/></g><path id="_路径_9" data-name="&lt;路径&gt;" class="cls-1" d="M297.39 274.62L160.35 512a274 274 0 0 0 274.1 0z"/><path id="_路径_10" data-name="&lt;路径&gt;" d="M297.39 274.62L160.35 512a274 274 0 0 0 274.1 0z" fill="url(#未命名的渐变_46-2)" opacity=".3"/><text class="cls-3" transform="translate(238.42 472.22)">Credit Rating<tspan x="7.38" y="22.06">Mechanism</tspan></text><path id="_路径_11" data-name="&lt;路径&gt;" class="cls-5" d="M297.39 274.62H.5c0 109.89 59.7 205.82 148.42 257.16z"/><text class="cls-3" transform="translate(78.43 393.01)">Arbitration<tspan x="-5.67" y="22.06">Mechanism</tspan></text><g id="_编组_2" data-name="&lt;编组&gt;"><path id="_路径_12" data-name="&lt;路径&gt;" class="cls-8" d="M104 342.41c.3-.72.56-1.39.84-2q2.56-6 5.11-12c.23-.53.46-1.07.67-1.61.1-.26.22-.28.47-.18 3.09 1.31 6.2 2.6 9.3 3.9.46.19.92.39 1.39.57.28.1.33.26.21.53-.66 1.53-1.3 3.07-2 4.6-.14.33-.12.49.27.62 2.53.84 5.06 1.71 7.58 2.57 1.2.41 2.38.84 3.57 1.24l4.09 1.33c.65.22 1.29.47 1.94.69l3.6 1.25 4.21 1.44c2.07.7 4.16 1.33 6.2 2.1a4.15 4.15 0 0 1 2.22 2.34 4.55 4.55 0 0 1 0 3.93 5.36 5.36 0 0 1-2 2.51 3.15 3.15 0 0 1-3.15.21c-4.27-2-8.52-4.07-12.78-6.09l-8.95-4.36-4.21-2-2.3-1.1c-.76-.35-1.52-.7-2.29-1a.38.38 0 0 0-.35.12 6.16 6.16 0 0 0-.33.74l-1.77 4.06c-.1.25-.23.3-.47.2-1-.43-2-.87-3-1.28s-2.13-.84-3.19-1.28c-1.35-.57-2.7-1.17-4-1.75z"/><path id="_路径_13" data-name="&lt;路径&gt;" class="cls-8" d="M108.79 362.7H96.4a1.88 1.88 0 0 1-1.87-1.87v-2.08a1.9 1.9 0 0 1 2-2h24.65a1.8 1.8 0 0 1 1.82 1.29 1.83 1.83 0 0 1 .09.52v2.12a1.9 1.9 0 0 1-2 2z"/><path id="_路径_14" data-name="&lt;路径&gt;" class="cls-8" d="M123.42 331c-.56-.22-1.13-.42-1.69-.65l-11-4.58a1.85 1.85 0 0 1-1.24-1.74 1.74 1.74 0 0 1 1.27-1.67 1.8 1.8 0 0 1 1.1 0c1.9.75 3.79 1.55 5.67 2.33l6.6 2.76a1.78 1.78 0 0 1-.05 3.34 3.61 3.61 0 0 1-.67.13z"/><path id="_路径_15" data-name="&lt;路径&gt;" class="cls-8" d="M114.7 351.58c-.6-.22-1.21-.44-1.81-.68l-10.84-4.53a1.85 1.85 0 0 1-1.17-2.27 1.82 1.82 0 0 1 1.92-1.25 11.4 11.4 0 0 1 1.71.63q1.48.58 3 1.2l6.53 2.76c.49.21 1 .4 1.46.63a1.71 1.71 0 0 1 1.07 1.67 1.67 1.67 0 0 1-1.05 1.6 3.73 3.73 0 0 1-.75.18z"/></g><text class="cls-3" transform="translate(392.61 197.27)">Member Grading<tspan x="24.4" y="22.06">Mechanism</tspan></text><path id="_路径_16" data-name="&lt;路径&gt;" class="cls-1" d="M297.39 274.62h296.89c0-109.88-59.69-205.81-148.42-257.15z"/><circle id="_路径_17" data-name="&lt;路径&gt;" cx="297.39" cy="274.62" r="93" fill="#141414" stroke="#fff" stroke-miterlimit="10"/><g id="_编组_3" data-name="&lt;编组&gt;"><path id="_路径_18" data-name="&lt;路径&gt;" class="cls-8" d="M284.26 236.13a13.81 13.81 0 0 1 5.63 24.05H308L296.66 236l1.43-.68a12.08 12.08 0 0 0-3.81-22.93h-10z"/><path id="_路径_19" data-name="&lt;路径&gt;" class="cls-8" d="M281.11 235.75V212.4h-7.61v23.35h7.61z"/><path id="_路径_20" data-name="&lt;路径&gt;" class="cls-8" d="M321.28 217.17a14.6 14.6 0 0 0-13.14 8.27v-1a15.2 15.2 0 0 0-5.86-12h19z"/><path id="_路径_21" data-name="&lt;路径&gt;" class="cls-8" d="M321.28 260.18h-9.75l-10.71-22.74a15.35 15.35 0 0 0 5.91-6.59v.91a14.6 14.6 0 0 0 14.58 14.58z"/><path id="_路径_22" data-name="&lt;路径&gt;" class="cls-8" d="M321.28 243.19a11.43 11.43 0 1 1 0-22.86z"/><path id="_路径_23" data-name="&lt;路径&gt;" class="cls-8" d="M291.72 249.57a10.68 10.68 0 0 0-10.66-10.67h-7.56v21.28h8.63a10.68 10.68 0 0 0 9.59-10.61z"/></g><text transform="translate(275.27 286.12)" font-family="Arial-BoldMT,Arial" font-weight="700" font-size="20.42" fill="#fff" id="_编组_4" data-name="&lt;编组&gt;">DRC<tspan x="-36.9" y="22.06">Governance</tspan><tspan x="-33.49" y="44.13">Mechanism</tspan></text><g id="_编组_5" data-name="&lt;编组&gt;"><g id="_编组_6" data-name="&lt;编组&gt;"><path id="_路径_24" data-name="&lt;路径&gt;" class="cls-12" d="M297.49 431.41c-4.68.41-9.13-.77-13.6-1.79-2.25-.51-2.39-.88-2.73-3.16-.64-4.25 1.66-7.3 5.25-8.83a26.73 26.73 0 0 1 16.06-1.82 22.3 22.3 0 0 1 7.78 2.69 6.91 6.91 0 0 1 3.48 6.75c0 .52-.08 1-.13 1.56-.17 2-.4 2.36-2.41 2.81-4.52 1.01-9.01 2.22-13.7 1.79z"/><path id="_路径_25" data-name="&lt;路径&gt;" class="cls-12" d="M297.55 392.93c3.18-.23 5.95.64 7.66 3.46a7 7 0 0 1 1.17 3.84 56.07 56.07 0 0 1-1.42 8.32c-.49 2.11-2.33 3.13-4.09 4-4.12 2.09-7.95.11-10-2.65a12.82 12.82 0 0 1-1.89-5.37c-.42-2.39-.76-4.85.34-7.25a7.32 7.32 0 0 1 6.27-4.37 18.67 18.67 0 0 1 1.96.02z"/></g><g id="_编组_7" data-name="&lt;编组&gt;"><path id="_路径_26" data-name="&lt;路径&gt;" class="cls-12" d="M273.72 435.3l1.23 3.77h3.95l-3.2 2.32 1.22 3.76-3.2-2.32-3.2 2.32 1.23-3.76-3.21-2.32h3.96l1.22-3.77z"/><path id="_路径_27" data-name="&lt;路径&gt;" class="cls-12" d="M285.56 435.3l1.23 3.77h3.95l-3.2 2.32 1.22 3.76-3.2-2.32-3.2 2.32 1.22-3.76-3.2-2.32h3.96l1.22-3.77z"/><path id="_路径_28" data-name="&lt;路径&gt;" class="cls-12" d="M297.4 435.3l1.23 3.77h3.95l-3.2 2.32 1.22 3.76-3.2-2.32-3.2 2.32 1.22-3.76-3.2-2.32h3.96l1.22-3.77z"/><path id="_路径_29" data-name="&lt;路径&gt;" class="cls-12" d="M309.24 435.3l1.22 3.77h3.96l-3.2 2.32 1.22 3.76-3.2-2.32-3.2 2.32 1.22-3.76-3.2-2.32h3.96l1.22-3.77z"/><path id="_复合路径_" data-name="&lt;复合路径&gt;" class="cls-12" d="M326.26 439.07h-4l-1.22-3.77-1.22 3.77h-4l3.2 2.32-1.22 3.77 3.2-2.33 3.2 2.33-1.22-3.77zm-5.18 2.57l-1.73 1.26.66-2-1.73-1.26h2.14l.66-2 .66 2h2.15l-1.74 1.26.66 2z"/></g></g><g id="_编组_8" data-name="&lt;编组&gt;"><g id="_编组_9" data-name="&lt;编组&gt;"><path id="_路径_30" data-name="&lt;路径&gt;" class="cls-8" d="M449.48 350.09h-19.8c-.46 0-.6-.13-.58-.58 0-1 .07-2.09.19-3.13a15.4 15.4 0 0 1 1-4.35 16.22 16.22 0 0 1 1-2 4.06 4.06 0 0 1 2.5-1.64c1.92-.64 3.87-1.17 5.78-1.82a19.88 19.88 0 0 0 2.6-1.23c.4-.2.64-.13.77.29a17.41 17.41 0 0 0 4.18 7.36 1.8 1.8 0 0 0 .4.25 4.43 4.43 0 0 0 .15-.43c.2-1 .38-2 .59-3a1.17 1.17 0 0 0-.19-1 3.53 3.53 0 0 1-.48-.75c-.09-.18-.16-.47-.07-.58s.38-.15.57-.14c.57 0 1.14.11 1.7.13.31 0 .62-.11.92-.12s.55 0 .66.13 0 .42-.08.65a.42.42 0 0 1-.1.17 2 2 0 0 0-.47 1.94c.26.93.36 1.91.55 2.88.06.33.25.22.39.06.62-.73 1.27-1.45 1.84-2.22a17.63 17.63 0 0 0 2.15-4.24c.14-.34.22-.7.33-1.05s.42-.49.72-.26a11.67 11.67 0 0 0 3.6 1.57c1.82.58 3.65 1.15 5.47 1.74a4.22 4.22 0 0 1 2.43 2.38 15.86 15.86 0 0 1 1.47 5.6c.09.95.12 1.9.16 2.85 0 .48-.09.59-.55.6h-2z"/><path id="_复合路径_2" data-name="&lt;复合路径&gt;" class="cls-8" d="M458.83 318.75c-.1.7-.19 1.4-.28 2.1a.64.64 0 0 0 0 .39 3.28 3.28 0 0 1 .41 1.84 6.81 6.81 0 0 1-.73 3.75 9.15 9.15 0 0 0-.72 2.14 6.25 6.25 0 0 1-1.17 2.6c-.65.69-1.15 1.52-1.82 2.19a7.36 7.36 0 0 1-4.68 2.25 6.35 6.35 0 0 1-4-1.18 8.9 8.9 0 0 1-2.61-2.54c-.4-.61-.83-1.2-1.21-1.82a6.16 6.16 0 0 1-.65-2.46 1.53 1.53 0 0 0-.32-.75 3.73 3.73 0 0 1-.81-2 13.3 13.3 0 0 1-.18-2.44 7.42 7.42 0 0 1 .36-1.48.9.9 0 0 0 .06-.42 7.09 7.09 0 0 1 .8-5.49 1.64 1.64 0 0 1 1.2-.9.48.48 0 0 0 .27-.34 4.21 4.21 0 0 1 3.27-3.39 11 11 0 0 1 10.71 2.77 7 7 0 0 1 2.1 5.18zm-3 4.4h-.13c0-.39.1-.77.13-1.16 0-.66-.12-.92-.72-1.14a5.08 5.08 0 0 0-.87-.24c-1.62-.33-3.25-.61-4.85-1a11.53 11.53 0 0 1-5-2.47l-.47-.38a30.64 30.64 0 0 1-.61 6.44 7.33 7.33 0 0 1-.56-.55.53.53 0 0 0-.92.27 5.3 5.3 0 0 0 .34 3.57.85.85 0 0 0 .43.46.43.43 0 0 1 .34.51 5.46 5.46 0 0 0 .66 2.51 18.57 18.57 0 0 0 1.31 2 9.71 9.71 0 0 0 2.3 1.78 4.36 4.36 0 0 0 3.69.39 7.5 7.5 0 0 0 2.31-1.39 9.47 9.47 0 0 0 1.8-2.05 6.31 6.31 0 0 0 1.15-3.42c0-.12.13-.31.21-.32a.71.71 0 0 0 .61-.53 5.36 5.36 0 0 0 .34-3.42c-.13-.58-.5-.73-1-.36-.16.14-.32.35-.51.5z"/><path id="_复合路径_3" data-name="&lt;复合路径&gt;" class="cls-8" d="M455.52 325.3a2.61 2.61 0 0 1-2.32 2.7 2.66 2.66 0 0 1-2.91-1.91 4.07 4.07 0 0 1-.12-.92c0-.4-.22-.6-.68-.6s-.68.17-.66.6a2.58 2.58 0 0 1-1.57 2.62 2.76 2.76 0 0 1-3.7-1.82 2.91 2.91 0 0 1 1.12-2.85 2.74 2.74 0 0 1 3 0 .63.63 0 0 0 .74.06 2.57 2.57 0 0 1 2.2.06.51.51 0 0 0 .59-.05 2.66 2.66 0 0 1 4.28 2.12zm-3.78 0a1.16 1.16 0 0 0 1.13 1.11 1.14 1.14 0 0 0 1.1-1.14 1.17 1.17 0 0 0-1.13-1.12 1.18 1.18 0 0 0-1.1 1.16zm-4.46 0a1.13 1.13 0 0 0-1.08-1.15 1.16 1.16 0 0 0-1.14 1.11 1.11 1.11 0 1 0 2.22 0z"/></g><path id="_路径_31" data-name="&lt;路径&gt;" class="cls-8" d="M477.76 341.21h-7.06l-1.52-2.75h5.84v-30.47h-21.9v1.03l-2.75-.64v-3.13h27.39v35.96z"/><path class="cls-8" d="M461.41 313.94h9.86v2.07h-9.86z"/><path id="_矩形_" data-name="&lt;矩形&gt;" class="cls-8" d="M461.41 319.5h9.86v2.07h-9.86z"/><path class="cls-8" d="M461.41 325.06h9.86v2.07h-9.86z"/><path id="_矩形_2" data-name="&lt;矩形&gt;" class="cls-8" d="M461.41 330.63h9.86v2.07h-9.86z"/></g><g id="_编组_10" data-name="&lt;编组&gt;"><path id="_路径_32" data-name="&lt;路径&gt;" class="cls-12" d="M493.28 164.07h-10.66l-1.52-2.74h9.44v-30.47h-21.91v1.03l-2.74-.65v-3.12h27.39v35.95z"/><path id="_矩形_3" data-name="&lt;矩形&gt;" class="cls-12" d="M476.93 136.8h9.86v2.07h-9.86z"/><path class="cls-12" d="M476.93 142.37h9.86v2.07h-9.86zm0 5.56h9.86V150h-9.86z"/><path id="_矩形_4" data-name="&lt;矩形&gt;" class="cls-12" d="M476.93 153.5h9.86v2.07h-9.86z"/><path id="_路径_33" data-name="&lt;路径&gt;" class="cls-12" d="M463.67 133.93c3.56-.25 6.67.72 8.6 3.89a7.88 7.88 0 0 1 1.31 4.31 61.79 61.79 0 0 1-1.59 9.34c-.55 2.36-2.62 3.51-4.6 4.52-4.62 2.35-8.92.12-11.24-3a14.49 14.49 0 0 1-2.12-6c-.48-2.69-.86-5.45.38-8.14a8.19 8.19 0 0 1 7-4.9 18.44 18.44 0 0 1 2.26-.02z"/><path id="_路径_34" data-name="&lt;路径&gt;" class="cls-12" d="M445.51 172.93h36.06c.05-.28.09-.59.12-1 .05-.59.11-1.17.15-1.76a7.77 7.77 0 0 0-3.91-7.57 25.06 25.06 0 0 0-8.74-3 30 30 0 0 0-18 2c-4 1.71-6.62 5.15-5.9 9.92.06.6.13 1.04.22 1.41z"/></g><g id="_编组_11" data-name="&lt;编组&gt;"><g id="_编组_12" data-name="&lt;编组&gt;"><path id="_路径_35" data-name="&lt;路径&gt;" class="cls-12" d="M161 125.43v1.4h-4.07s-4.49-1.65-3.19-10.86c0 0-5.63-.55-5.25 10.63H141a2.34 2.34 0 1 0 0 4.67 2.34 2.34 0 0 0 0 4.68h1.17a2.34 2.34 0 1 0 0 4.68h1.56a2.34 2.34 0 1 0 0 4.67H161v1.4h5.19v-21.27z"/><path id="_路径_36" data-name="&lt;路径&gt;" class="cls-12" d="M135.43 157.62a2.34 2.34 0 1 0 0-4.68h-1.17a2.34 2.34 0 1 0 0-4.68h-1.56a2.34 2.34 0 1 0 0-4.67h-17.28v-1.4h-5.2v21.27h5.2v-1.39h4.07s4.48 1.64 3.19 10.86c0 0 5.63.54 5.25-10.64h7.5a2.34 2.34 0 1 0 0-4.67z"/></g><path id="_路径_37" data-name="&lt;路径&gt;" class="cls-12" d="M138.2 166.16h-1.37l.15-2.43h1.22a19.18 19.18 0 0 0 18.8-15l2.37.54a21.59 21.59 0 0 1-21.17 16.89z"/><path id="_路径_38" data-name="&lt;路径&gt;" class="cls-12" d="M119.4 140.16l-2.38-.54a21.6 21.6 0 0 1 21.18-16.89v2.43a19.17 19.17 0 0 0-18.8 15z"/></g></g></g></svg>