<svg xmlns="http://www.w3.org/2000/svg" xmlns:xlink="http://www.w3.org/1999/xlink" viewBox="0 0 1048.33 643.98"><defs><style>.cls-10{fill-rule:evenodd}.cls-7{font-size:11px;fill:#fff}.cls-27,.cls-28,.cls-7{font-family:ArialMT,Arial}.cls-10,.cls-11,.cls-15,.cls-16{fill:none;stroke-linecap:round;stroke-linejoin:round;stroke:#f2b02d}.cls-10,.cls-11{stroke-width:.97px}.cls-14{fill:#f2b02d}.cls-15{stroke-width:1.13px}.cls-18{fill:#e37800}.cls-19{fill:#ee9300}.cls-20{fill:#c8c8c8}.cls-21{fill:#969696}.cls-22{fill:#dcdcdc}.cls-24{fill:#0083be}.cls-25{fill:#00c3ff}.cls-26{fill:#00a4db}.cls-27{font-size:15.08px}.cls-28{font-size:12.93px;fill:#3c3c3c}</style><linearGradient id="未命名的渐变_861" x1="436.92" y1="816.85" x2="931.05" y2="98.11" gradientUnits="userSpaceOnUse"><stop offset="0" stop-color="#00c2ff"/><stop offset="0" stop-color="#00c2ff"/><stop offset=".17" stop-color="#00c2ff" stop-opacity=".74"/><stop offset=".33" stop-color="#00c2ff" stop-opacity=".51"/><stop offset=".49" stop-color="#00c2ff" stop-opacity=".33"/><stop offset=".64" stop-color="#00c2ff" stop-opacity=".19"/><stop offset=".78" stop-color="#00c2ff" stop-opacity=".08"/><stop offset=".9" stop-color="#00c2ff" stop-opacity=".02"/><stop offset="1" stop-color="#00c2ff" stop-opacity="0"/></linearGradient><linearGradient id="未命名的渐变_862" x1="266.82" y1="590.27" x2="16.16" y2="590.27" gradientUnits="userSpaceOnUse"><stop offset="0" stop-color="#f2b02d"/><stop offset=".1" stop-color="#f2b02d" stop-opacity=".81"/><stop offset=".23" stop-color="#f2b02d" stop-opacity=".6"/><stop offset=".35" stop-color="#f2b02d" stop-opacity=".42"/><stop offset=".48" stop-color="#f2b02d" stop-opacity=".27"/><stop offset=".61" stop-color="#f2b02d" stop-opacity=".15"/><stop offset=".74" stop-color="#f2b02d" stop-opacity=".07"/><stop offset=".87" stop-color="#f2b02d" stop-opacity=".02"/><stop offset="1" stop-color="#f2b02d" stop-opacity="0"/></linearGradient><linearGradient id="未命名的渐变_861-2" x1="497.11" y1="484.99" x2="3.26" y2="484.99" xlink:href="#未命名的渐变_861"/><linearGradient id="未命名的渐变_862-2" x1="506.83" y1="379.72" x2="1.93" y2="379.72" xlink:href="#未命名的渐变_862"/><linearGradient id="未命名的渐变_861-3" x1="800.14" y1="274.44" x2="-.2" y2="274.44" xlink:href="#未命名的渐变_861"/><linearGradient id="未命名的渐变_862-3" x1="723.95" y1="169.17" x2="2.76" y2="169.17" xlink:href="#未命名的渐变_862"/><linearGradient id="未命名的渐变_862-4" x1="634.4" y1="62.26" x2="970.31" y2="62.26" xlink:href="#未命名的渐变_862"/></defs><g id="图层_2" data-name="图层 2"><g id="图层_1-2" data-name="图层 1"><path id="_路径_" data-name="&lt;路径&gt;" opacity=".55" fill="url(#未命名的渐变_861)" fill-rule="evenodd" d="M501.16 216.51l-20.61 3.17-21.53 12.9 24.64 5.33 4.92 21.46-11.17 11.41 2.74 3.9-9.33 6.96v5.05l-24.02 23.63-9.96 45.47-37.39 32.8-24.07 2.4-33.65-1.44-27.52 35.09-14.71 10.64-1.04 9.67-10.12 14.45-19.96 2.26-1.84 4.54-30.99 3.81-2.34 5.48-9.65 53.72-18.44 43.59-9.17 7.49-24.29 1.64-21.16 17.77-48.82 15.53-37.01 27.68h983.66V0L716.76 54.63l-35.79 16.18-29.18 20.2-9.38 10.98-9.46 14.54-36.96 73.07-14.3.15-4.93 3.71-26.19-.27-2.98 3.9-14.56-.06-5.54 5.42-26.33 14.06"/><path id="_路径_2" data-name="&lt;路径&gt;" fill="url(#未命名的渐变_862)" opacity=".5" d="M150.5 599.7l21.16-17.77 24.29-1.64 9.17-7.49L220 537.63H0v105.28h64.67l37.01-27.68 48.82-15.53z"/><path id="_路径_3" data-name="&lt;路径&gt;" fill="url(#未命名的渐变_861-2)" d="M223.56 529.21l9.65-53.72 2.34-5.48 30.99-3.81 1.84-4.54 19.96-2.26 10.12-14.45 1.04-9.67 4.04-2.92H0v105.27h220l3.56-8.42z"/><path id="_路径_4" data-name="&lt;路径&gt;" fill="url(#未命名的渐变_862-2)" opacity=".5" d="M314.21 424.64l27.52-35.09 33.65 1.44 24.07-2.4 37.39-32.8 6.29-28.71H0v105.28h303.54l10.67-7.72z"/><path id="_路径_5" data-name="&lt;路径&gt;" fill="url(#未命名的渐变_861-3)" d="M446.8 310.32l24.02-23.63v-5.05l9.33-6.96-2.74-3.9 11.17-11.41-4.92-21.46-24.64-5.33L477 221.81H0v105.27h443.13l3.67-16.76z"/><path id="_路径_6" data-name="&lt;路径&gt;" fill="url(#未命名的渐变_862-3)" opacity=".5" d="M480.55 219.68l20.61-3.17 26.33-14.06 5.54-5.42 14.56.06 2.98-3.9 26.19.27 4.93-3.71 14.3-.15 36.96-73.07H0v105.28h477l3.55-2.13z"/><text class="cls-7" transform="translate(79.46 604.5)" id="_编组_" data-name="&lt;编组&gt;">Incubators</text><text class="cls-7" transform="translate(167.83 511.85)" id="_编组_2" data-name="&lt;编组&gt;">Angels</text><text class="cls-7" transform="translate(238.92 406.94)" id="_编组_3" data-name="&lt;编组&gt;"><tspan letter-spacing="-.06em">V</tspan><tspan x="6.73" y="0">enture Capitals</tspan></text><text class="cls-7" transform="translate(332.9 306.02)" id="_编组_4" data-name="&lt;编组&gt;">Expansion Capitals</text><text transform="translate(389.94 172.35)" font-size="11.99" font-family="Arial-BoldMT,Arial" font-weight="700" fill="#fff" id="_编组_5" data-name="&lt;编组&gt;">MBO / LBO / Expansions</text><path id="_复合路径_" data-name="&lt;复合路径&gt;" class="cls-10" d="M183.43 537.79l-1.82-2.39-3.44-.41-2.81 6.81-1.62 9.35.74 1.14 3.81.72m21.3-2.51l-3.75 28.38m5-38.09l-.82 6.3m-12.13.69l-1.49 6a1.67 1.67 0 0 0 .15 1.25l4 5.77a3.23 3.23 0 0 1 .75 2.16l-.13 13.23c.05 2.17-4.31 2.29-4.36.24l-.61-12.09-5.64-6.63a5.23 5.23 0 0 1-1.65-5.3l2.41-11.41a3.77 3.77 0 0 1 2.23-2.79 4.65 4.65 0 0 1 3.72.44 4 4 0 0 1 1.32 1.35l4.73 6.69 7.14.53c1.63.23.45 4.11-.76 3.85l-8.71-.39-6.21-5.78m-6 9l-1.42 10.92-6.61 10.18c-1.07 2.6 2.81 3.59 4 1.42l6.55-9.29a9 9 0 0 0 .9-1.56l1.66-4m8.66-30.61a3.45 3.45 0 0 0-.23-1.31c-1-2.32-6.76-3.16-7.47.28a10.69 10.69 0 0 0 .19 4.36 4.36 4.36 0 0 0 2.84 2.35 3.09 3.09 0 0 0 3.84-1.72 13.37 13.37 0 0 0 .79-3.98z"/><path id="_复合路径_2" data-name="&lt;复合路径&gt;" class="cls-10" d="M371 348.46l-1.83-2.39-3.43-.41-2.82 6.81-1.61 9.35.69 1.18 3.81.73m21.3-2.52l-3.75 28.38m5-38.08l-.83 6.29m-12.12.69l-1.5 6a1.7 1.7 0 0 0 .16 1.26l4 5.76a3.21 3.21 0 0 1 .76 2.16l-.13 13.24c.05 2.16-4.31 2.28-4.36.24l-.6-12.15-5.65-6.63a5.26 5.26 0 0 1-1.64-5.31l2.39-11.42a3.75 3.75 0 0 1 2.23-2.79 4.65 4.65 0 0 1 3.72.44 3.88 3.88 0 0 1 1.32 1.35l4.73 6.69 7.14.52c1.63.24.44 4.11-.76 3.86l-8.72-.39-6.21-5.79m-6 9l-1.43 10.92-6.59 10.18c-1.08 2.6 2.81 3.59 4 1.42l6.55-9.29a9 9 0 0 0 .89-1.56l1.67-4m8.65-30.6a3.24 3.24 0 0 0-.22-1.31c-1-2.33-6.77-3.17-7.47.28a10.53 10.53 0 0 0 .19 4.36 4.38 4.38 0 0 0 2.84 2.34 3.08 3.08 0 0 0 3.84-1.71 13.34 13.34 0 0 0 .79-3.94z"/><g id="_编组_6" data-name="&lt;编组&gt;"><path id="_路径_7" data-name="&lt;路径&gt;" class="cls-10" d="M267.64 434.59c1.5 2.26 3.29 4.69 4.87 6.76a2.19 2.19 0 0 0 1.77.91l8.81.3c1.49-.21 1.78-3.65.25-3.73l-7.21-.5a1.69 1.69 0 0 1-.52-.45c-1.11-1.83-3.07-5.71-4.44-7.17a4.66 4.66 0 0 0-2.2-1.24c-2.31-.61-4.8-.17-5.79 2.21-1.5 3.64-3.7 8.87-5.07 12.2-1 2.15-.89 5.63 2.42 6.05l7.85.07c.37 0 .7.24.59.87l-.81 8.81c-.05 1.3 3.59 1.53 4.31-.47l1.53-11.32a2.45 2.45 0 0 0-1.24-2.26l-6.3-.92c-.56-.14-.59-.65-.31-1.24l3.22-6.33"/><path id="_路径_8" data-name="&lt;路径&gt;" class="cls-10" d="M277.52 423.49a3.18 3.18 0 0 0 .08-1.35c-.43-2.52-6-4.68-7.44-1.43a10.72 10.72 0 0 0-.81 4.35 4.43 4.43 0 0 0 2.26 3 3.13 3.13 0 0 0 4.19-.82 13.34 13.34 0 0 0 1.72-3.72z"/><path id="_路径_9" data-name="&lt;路径&gt;" class="cls-10" d="M263 449.81l.05 6.27a5.66 5.66 0 0 1-.53 2.12l-3 8.3c-.82 1.6-4.86 1.34-4.18-.92l2.69-8.34a5.55 5.55 0 0 0 .18-1.43l-.63-8.69"/><path id="_路径_10" data-name="&lt;路径&gt;" class="cls-10" d="M265.17 429.61l-1.31-3.38-2.33-1a.93.93 0 0 0-1 .33l-3.89 3.69c-1.73 2.25-3.35 7.15-4.48 9.88-.59 1.48 4.7 4 6.37 3.31"/></g><g id="_编组_7" data-name="&lt;编组&gt;"><path id="_路径_11" data-name="&lt;路径&gt;" class="cls-10" d="M577.44 136.81c-.05-.26-.67-.71-.81-.79-2.46-1.47-7.4-1-7.66 2.51v.51"/><path id="_路径_12" data-name="&lt;路径&gt;" class="cls-10" d="M569.85 143.64a5.18 5.18 0 0 0 3.7 2.33 3.66 3.66 0 0 0 4.27-2.6 15.9 15.9 0 0 0 .37-4.79"/><path id="_路径_13" data-name="&lt;路径&gt;" class="cls-10" d="M569.27 148.28s7.71.61 8.91 1.48l3.81 4 6.14-3.08.54-.66 2.33-.18.67.71-.4 3.7-9.73 5.1-.76-.35-2.78-2.65-.56.31L576 163l.35 1 6.49 1.58a2.77 2.77 0 0 1 1.77 3.05l-3.2 16c-.73 2.1-5.39 1.51-5 0a88.89 88.89 0 0 1 1.87-13.12 34.58 34.58 0 0 1-5.83-1.16l-.9.4-7.22 17.79c-1.16 1.83-5.79 1.53-5.28-.17l3.95-12.89 2.78-12-.08-9.08-2.94-10.61a1.57 1.57 0 0 1 .76-1.81c2.5-1.24 8.5-4.13 11.57-4.75 3.94-.8 3.71-.25 4.1.66s-.46 1-1.78 1.59a68.69 68.69 0 0 0-9.56 5.34v.43l1.41 3.08z"/><path id="_路径_14" data-name="&lt;路径&gt;" class="cls-11" d="M593.24 114.12l-3.25 35.92"/><path id="_路径_15" data-name="&lt;路径&gt;" class="cls-11" d="M589.52 155.18l-2.47 27.22"/><path id="_路径_16" data-name="&lt;路径&gt;" class="cls-10" d="M563.47 147.74l-1.77 1.14a2.18 2.18 0 0 0-.75 1.69l.16 3.77.24 8.75a1.79 1.79 0 0 0 .73 1.62l3.5.32"/><path id="_路径_17" data-name="&lt;路径&gt;" class="cls-10" d="M591.83 129.67c-4.31 2.71-8.26 3.36-12.33 1a9.85 9.85 0 0 0-10.89.46l1.39-15.19c3.68-1.16 8.35-1.89 12.76-.49 3.39 1.08 6 2.54 10.36.09"/></g><g id="_编组_8" data-name="&lt;编组&gt;"><path id="_路径_18" data-name="&lt;路径&gt;" class="cls-10" d="M461.28 243.61a3 3 0 0 0 .07-1.21c-.39-2.26-5.34-4.19-6.67-1.28A9.6 9.6 0 0 0 454 245a4 4 0 0 0 2 2.66 2.8 2.8 0 0 0 3.75-.73 12.1 12.1 0 0 0 1.55-3.34z"/><path id="_路径_19" data-name="&lt;路径&gt;" class="cls-11" d="M468.07 235.3v14.34"/><path id="_路径_20" data-name="&lt;路径&gt;" class="cls-11" d="M468.09 253.18l-11.41 5.21"/><path id="_路径_21" data-name="&lt;路径&gt;" class="cls-11" d="M450.68 265.56v40.46"/><path id="_路径_22" data-name="&lt;路径&gt;" class="cls-10" d="M468 253.23l1.32-.63c.48-.14.26-2.9.16-3a.94.94 0 0 0-.62-.21c-.14 0-6.85 2.94-6.85 2.94s-4.59-4.21-7-4.92-4.22.25-5.86 1.42a17 17 0 0 0-4.37 5.54c-.38 1.17 4.78 4 4.78 4"/><path id="_路径_23" data-name="&lt;路径&gt;" class="cls-10" d="M456.68 253.55l-.27 6.68.24.15 6-2.19a1.16 1.16 0 0 1 1.13.24l9.14 8.06c.94 1.24-.85 3.52-1.89 3.41l-8.28-6.22-.45-.09c-1.26.62-5.52 2.8-7.59 3.51-2.47.85-5-1.89-5-4.09-.26-2.9-.29-7.92-.3-9.24l-.2-.12-.77.77"/><path id="_路径_24" data-name="&lt;路径&gt;" class="cls-11" d="M460.87 256.4l-6.02-3.7"/><path id="_路径_25" data-name="&lt;路径&gt;" class="cls-10" d="M458.64 265.4l4.4 2.9a3 3 0 0 1 1.17 1.25l5.23 8.07c1 2.05-1.9 3.65-2.79 2.65l-5.12-7.6-8.34-5.47"/></g><g id="_编组_9" data-name="&lt;编组&gt;"><path id="_路径_26" data-name="&lt;路径&gt;" class="cls-11" d="M52.12 613.35v3.38"/><path id="_路径_27" data-name="&lt;路径&gt;" class="cls-11" d="M46.83 618.36l-1.99-3.01"/><path id="_路径_28" data-name="&lt;路径&gt;" class="cls-11" d="M59.4 615.35l-2 3.01"/><path id="_路径_29" data-name="&lt;路径&gt;" class="cls-11" d="M43.48 622.45l-3.37-1.52"/><path id="_路径_30" data-name="&lt;路径&gt;" class="cls-11" d="M64.12 620.93l-3.36 1.52"/><g id="_编组_10" data-name="&lt;编组&gt;"><path id="_路径_31" data-name="&lt;路径&gt;" class="cls-11" d="M52.12 619.9a7.29 7.29 0 0 0-5.64 11.89 8.09 8.09 0 0 1 2.16 3.48c.17.91.3 2.06.3 2.2h6.38a14.76 14.76 0 0 1 .34-2.05 9.89 9.89 0 0 1 2.09-3.63 7.28 7.28 0 0 0-5.63-11.89z"/><path id="_路径_32" data-name="&lt;路径&gt;" class="cls-11" d="M49.07 639.5h6.1"/><path id="_路径_33" data-name="&lt;路径&gt;" class="cls-11" d="M50.05 641.5h4.14"/><path id="_路径_34" data-name="&lt;路径&gt;" class="cls-11" d="M50.98 643.5h2.27"/><path id="_路径_35" data-name="&lt;路径&gt;" class="cls-11" d="M50.73 630.44h2.78"/><path id="_路径_36" data-name="&lt;路径&gt;" class="cls-11" d="M50.73 628.66h2.78"/><path id="_路径_37" data-name="&lt;路径&gt;" class="cls-11" d="M50.73 626.88h2.78"/><path id="_路径_38" data-name="&lt;路径&gt;" class="cls-11" d="M52.12 637.47v-7.03"/></g></g><path id="_路径_39" data-name="&lt;路径&gt;" d="M635 112.18c-11.49 18.71-39 77.42-39 77.42l-14.3.15-4.93 3.71-26.19-.27-3 3.9L533 197l-5.54 5.42-26.33 14.06-4.52 1.32-16.1 1.85L459 232.58l24.64 5.33 4.92 21.46-11.17 11.41 2.74 3.9-9.33 7v5.05l-24 23.63-10 45.47-37.39 32.8-22.41 2.43-35.29-1.51-26.31 34.22-15.9 11.51-1 9.67-10.12 14.46-20 2.25-1.84 4.54-31 3.82-2.69 6.28-9.3 52.91-18.43 43.59-9.12 7.49-24.29 1.64-21.21 17.77-48.82 15.53-37 27.68" stroke-width="1.27" stroke="#f2b02d" fill="none" stroke-linecap="round" stroke-linejoin="round" fill-rule="evenodd"/><path id="_路径_40" data-name="&lt;路径&gt;" d="M969.67 12.34c-16.23 0-99 15.88-117.75 19.85s-89.3 10.58-105.63 13.23-57.11 20.4-57.11 20.4-30.74 18.26-38.16 26-16 20.41-16 20.41" stroke="url(#未命名的渐变_862-4)" stroke-width="1.27" fill="none" stroke-linecap="round" stroke-linejoin="round" fill-rule="evenodd"/><g id="_编组_11" data-name="&lt;编组&gt;"><g id="_编组_12" data-name="&lt;编组&gt;"><path id="_路径_41" data-name="&lt;路径&gt;" class="cls-14" d="M377.89 248.64A3.21 3.21 0 0 0 382 247a14.23 14.23 0 0 0 1-4.09 3.44 3.44 0 0 0-.19-1.38c-.92-2.46-6.92-3.57-7.79 0a11.07 11.07 0 0 0 0 4.55 4.59 4.59 0 0 0 2.87 2.56z"/><path id="_路径_42" data-name="&lt;路径&gt;" class="cls-14" d="M382.26 265.46l2.26 3.28c1.09 1.16 3.69-.82 2.58-2.71l-3.88-6.67-1.64-4.28c-.07-3.85-4.45-5.56-7.54-3.69l-4.94 7.41c-.7.49-1.42 2.79-1.44 3.59l-1.26 5.83c0 2.56 3.63 2.46 3.72.32l1.56-5.19 1.2-2.73.26 5.77a33.9 33.9 0 0 0 .09 4.22l.17.35a.49.49 0 0 1-.17-.35l.38 8.74-3.75 11.78c-.56 2.84 3.59 3.2 4.31.79l4.13-11.26v-.05l3.95 11.7c.49 2.08 4.66 1.28 4.15-.92l-2.68-12.7c-.33-1.21-.74-2.13-.94-3l-1.8-4.83s.12-3.82.14-4.32l.11-2.82z"/></g><path id="_路径_43" data-name="&lt;路径&gt;" class="cls-15" d="M388.89 285.43l.03-10.15"/><g id="_编组_13" data-name="&lt;编组&gt;"><path id="_复合路径_3" data-name="&lt;复合路径&gt;" class="cls-14" d="M385.62 281.86l1.33-.2a1.73 1.73 0 0 0 .62 1.16 2.28 2.28 0 0 0 1.42.4 2.14 2.14 0 0 0 1.37-.36 1 1 0 0 0 .45-.83.77.77 0 0 0-.39-.68 6.69 6.69 0 0 0-1.37-.43 12.79 12.79 0 0 1-2.05-.6 2 2 0 0 1-.86-.71 1.8 1.8 0 0 1-.29-1 1.83 1.83 0 0 1 .24-.92 2 2 0 0 1 .66-.71 2.84 2.84 0 0 1 .85-.37 4.28 4.28 0 0 1 1.16-.15 4.77 4.77 0 0 1 1.63.25 2.26 2.26 0 0 1 1 .69 2.57 2.57 0 0 1 .46 1.16l-1.31.17a1.34 1.34 0 0 0-.52-.91 2 2 0 0 0-1.21-.32 2.28 2.28 0 0 0-1.31.29.82.82 0 0 0-.4.67.73.73 0 0 0 .16.45 1.3 1.3 0 0 0 .52.34l1.18.32a16.14 16.14 0 0 1 2 .59 2 2 0 0 1 .88.66 1.8 1.8 0 0 1 .32 1.08 2.07 2.07 0 0 1-.39 1.2 2.5 2.5 0 0 1-1.13.86 4.21 4.21 0 0 1-1.67.31 3.83 3.83 0 0 1-2.35-.61 2.8 2.8 0 0 1-1-1.8z"/></g><path id="_路径_44" data-name="&lt;路径&gt;" class="cls-16" d="M381.75 272.78h16.43v15.48h-12.47"/><path id="_路径_45" data-name="&lt;路径&gt;" class="cls-16" d="M386.01 268.4h8.05v4.38h-10.72v-4.38h2.46"/></g><g id="_编组_14" data-name="&lt;编组&gt;"><g id="_编组_15" data-name="&lt;编组&gt;"><path id="_路径_46" data-name="&lt;路径&gt;" class="cls-14" d="M275.88 349.15a3.21 3.21 0 0 0 4.07-1.63 14.23 14.23 0 0 0 1-4.09 3.44 3.44 0 0 0-.19-1.38c-.92-2.46-6.92-3.57-7.79 0a11.07 11.07 0 0 0 0 4.55 4.59 4.59 0 0 0 2.91 2.55z"/><path id="_路径_47" data-name="&lt;路径&gt;" class="cls-14" d="M280.25 366l2.26 3.28c1.09 1.16 3.69-.82 2.58-2.71l-3.88-6.67-1.64-4.28c-.07-3.85-4.45-5.56-7.54-3.69l-4.94 7.41c-.7.49-1.42 2.79-1.44 3.59l-1.26 5.83c0 2.56 3.63 2.46 3.71.32l1.57-5.19 1.2-2.73.26 5.77a33.9 33.9 0 0 0 .09 4.22l.17.35a.49.49 0 0 1-.17-.35l.38 8.74-3.76 11.78c-.55 2.84 3.6 3.2 4.32.79l4.13-11.26 3.95 11.7c.49 2.08 4.66 1.28 4.15-.92l-2.68-12.7c-.33-1.21-.74-2.13-.94-3l-1.8-4.83s.12-3.82.14-4.32l.11-2.82z"/></g><path id="_路径_48" data-name="&lt;路径&gt;" class="cls-15" d="M286.88 385.94l.03-10.15"/><g id="_编组_16" data-name="&lt;编组&gt;"><path id="_复合路径_4" data-name="&lt;复合路径&gt;" class="cls-14" d="M283.61 382.37l1.33-.2a1.73 1.73 0 0 0 .62 1.16 2.28 2.28 0 0 0 1.42.4 2.14 2.14 0 0 0 1.37-.36 1 1 0 0 0 .45-.83.77.77 0 0 0-.39-.68 6.69 6.69 0 0 0-1.37-.43 12.79 12.79 0 0 1-2.05-.6 2 2 0 0 1-.86-.71 1.8 1.8 0 0 1-.29-1 1.83 1.83 0 0 1 .24-.92 2 2 0 0 1 .66-.71 2.84 2.84 0 0 1 .85-.37 4.28 4.28 0 0 1 1.16-.15 4.77 4.77 0 0 1 1.63.25 2.26 2.26 0 0 1 1 .69 2.69 2.69 0 0 1 .46 1.16l-1.31.17a1.34 1.34 0 0 0-.52-.91 2 2 0 0 0-1.21-.32 2.28 2.28 0 0 0-1.31.29.82.82 0 0 0-.4.67.73.73 0 0 0 .16.45 1.24 1.24 0 0 0 .52.34l1.18.32a16.14 16.14 0 0 1 2 .59 2 2 0 0 1 .88.66 1.8 1.8 0 0 1 .32 1.08 2.07 2.07 0 0 1-.39 1.2 2.5 2.5 0 0 1-1.13.86 4.21 4.21 0 0 1-1.67.31 3.83 3.83 0 0 1-2.35-.61 2.8 2.8 0 0 1-1-1.8z"/></g><path id="_路径_49" data-name="&lt;路径&gt;" class="cls-16" d="M279.74 373.29h16.43v15.48H283.7"/><path id="_路径_50" data-name="&lt;路径&gt;" class="cls-16" d="M284 368.91h8.05v4.38h-10.72v-4.38h2.46"/></g><g id="_编组_17" data-name="&lt;编组&gt;"><g id="_编组_18" data-name="&lt;编组&gt;"><path id="_路径_51" data-name="&lt;路径&gt;" class="cls-14" d="M179.87 453.79a3.22 3.22 0 0 0 4.07-1.64 14.07 14.07 0 0 0 1-4.09 3.47 3.47 0 0 0-.19-1.38c-.92-2.46-6.92-3.56-7.79 0a11.07 11.07 0 0 0 0 4.55 4.57 4.57 0 0 0 2.91 2.56z"/><path id="_路径_52" data-name="&lt;路径&gt;" class="cls-14" d="M184.24 470.61l2.26 3.28c1.09 1.16 3.69-.83 2.58-2.72l-3.88-6.66-1.64-4.29c-.07-3.85-4.45-5.55-7.54-3.69l-4.94 7.41c-.7.5-1.42 2.8-1.44 3.59l-1.26 5.84c0 2.56 3.63 2.46 3.72.31l1.56-5.19 1.2-2.72.26 5.76a33.86 33.86 0 0 0 .09 4.22l.17.35a.47.47 0 0 1-.17-.35l.38 8.73-3.75 11.78c-.56 2.84 3.59 3.21 4.31.8l4.13-11.26v-.05l4 11.69c.49 2.08 4.66 1.28 4.15-.92l-2.68-12.69c-.32-1.21-.74-2.13-.94-3L183 476s.12-3.83.14-4.32l.11-2.83z"/></g><path id="_路径_53" data-name="&lt;路径&gt;" class="cls-15" d="M190.87 490.57l.03-10.14"/><g id="_编组_19" data-name="&lt;编组&gt;"><path id="_复合路径_5" data-name="&lt;复合路径&gt;" class="cls-14" d="M187.6 487l1.33-.2a1.7 1.7 0 0 0 .62 1.15 2.79 2.79 0 0 0 2.79.05 1.06 1.06 0 0 0 .45-.84.76.76 0 0 0-.39-.67 6.09 6.09 0 0 0-1.37-.43 12.53 12.53 0 0 1-2.05-.61 2 2 0 0 1-.86-.71 1.77 1.77 0 0 1-.29-1 1.9 1.9 0 0 1 .24-.93 2 2 0 0 1 .66-.7 2.71 2.71 0 0 1 .85-.37 4.28 4.28 0 0 1 1.16-.15 4.77 4.77 0 0 1 1.63.25 2.33 2.33 0 0 1 1 .68 2.62 2.62 0 0 1 .46 1.16l-1.31.17a1.34 1.34 0 0 0-.52-.9 1.94 1.94 0 0 0-1.21-.32 2.29 2.29 0 0 0-1.31.28.83.83 0 0 0-.4.68.72.72 0 0 0 .16.44 1.21 1.21 0 0 0 .52.34c.13.05.53.16 1.18.32a18.17 18.17 0 0 1 2 .59 2.05 2.05 0 0 1 .88.67 1.8 1.8 0 0 1 .32 1.08 2 2 0 0 1-.39 1.19 2.51 2.51 0 0 1-1.13.87 4.4 4.4 0 0 1-1.67.3 3.9 3.9 0 0 1-2.35-.6 2.8 2.8 0 0 1-1-1.79z"/></g><path id="_路径_54" data-name="&lt;路径&gt;" class="cls-16" d="M183.73 477.93h16.43v15.47h-12.47"/><path id="_路径_55" data-name="&lt;路径&gt;" class="cls-16" d="M187.99 473.54h8.05v4.39h-10.72v-4.39h2.46"/></g><g id="_编组_20" data-name="&lt;编组&gt;"><g id="_编组_21" data-name="&lt;编组&gt;"><path id="_路径_56" data-name="&lt;路径&gt;" class="cls-14" d="M104.49 545.67a3.21 3.21 0 0 0 4.07-1.63 13.87 13.87 0 0 0 1-4.09 3.28 3.28 0 0 0-.18-1.38c-.92-2.46-6.92-3.57-7.79 0a10.9 10.9 0 0 0 0 4.55 4.59 4.59 0 0 0 2.9 2.55z"/><path id="_路径_57" data-name="&lt;路径&gt;" class="cls-14" d="M108.86 562.49l2.26 3.28c1.09 1.16 3.69-.82 2.57-2.71l-3.88-6.67-1.63-4.28c-.08-3.85-4.45-5.56-7.54-3.69l-4.94 7.41c-.7.49-1.42 2.79-1.44 3.58L93 565.25c0 2.56 3.64 2.46 3.72.32l1.57-5.19 1.2-2.73.25 5.77a36 36 0 0 0 .09 4.22l.18.35a.49.49 0 0 1-.18-.35l.37 8.74-3.75 11.78c-.55 2.84 3.6 3.2 4.32.79l4.13-11.26 4 11.7c.49 2.08 4.66 1.28 4.15-.92l-2.68-12.7c-.33-1.21-.74-2.13-.94-3l-1.8-4.83s.12-3.83.14-4.32l.11-2.82z"/></g><path id="_路径_58" data-name="&lt;路径&gt;" class="cls-15" d="M115.49 582.46l.02-10.15"/><g id="_编组_22" data-name="&lt;编组&gt;"><path id="_复合路径_6" data-name="&lt;复合路径&gt;" class="cls-14" d="M112.22 578.89l1.33-.2a1.73 1.73 0 0 0 .62 1.16 2.28 2.28 0 0 0 1.42.4 2.16 2.16 0 0 0 1.37-.36 1 1 0 0 0 .45-.83.76.76 0 0 0-.4-.68 6.47 6.47 0 0 0-1.37-.43 12.92 12.92 0 0 1-2-.6 1.93 1.93 0 0 1-.86-.72 1.82 1.82 0 0 1 0-1.92 2.11 2.11 0 0 1 .65-.71 2.77 2.77 0 0 1 .86-.37 4.26 4.26 0 0 1 1.15-.15 4.83 4.83 0 0 1 1.64.25 2.26 2.26 0 0 1 1 .69 2.69 2.69 0 0 1 .46 1.16l-1.31.16a1.34 1.34 0 0 0-.52-.9 2 2 0 0 0-1.21-.32 2.34 2.34 0 0 0-1.32.29.83.83 0 0 0-.39.67.67.67 0 0 0 .16.45 1.24 1.24 0 0 0 .52.34l1.18.32a15.31 15.31 0 0 1 2 .59 1.92 1.92 0 0 1 .88.66 1.73 1.73 0 0 1 .32 1.08 2.07 2.07 0 0 1-.39 1.2 2.47 2.47 0 0 1-1.12.86 4.21 4.21 0 0 1-1.67.31 3.83 3.83 0 0 1-2.35-.61 2.76 2.76 0 0 1-1.1-1.79z"/></g><path id="_路径_59" data-name="&lt;路径&gt;" class="cls-16" d="M108.35 569.81h16.43v15.48h-12.47"/><path id="_路径_60" data-name="&lt;路径&gt;" class="cls-16" d="M112.61 565.43h8.05v4.38h-10.72v-4.38h2.46"/></g><text class="cls-7" transform="translate(456.33 542.35)" id="_编组_23" data-name="&lt;编组&gt;">Startup</text><path id="_复合路径_7" data-name="&lt;复合路径&gt;" class="cls-14" d="M952.67 403.36c-1.37 2.55-1 4.58.73 6.46a10.55 10.55 0 0 1 2.84 9.06c-.28 2.2-.14 4.45-.24 6.67-.09 2-.9 2.77-2.62 2.78s-2.46-.78-2.59-2.65c-.19-2.7-.24-5.42-.48-8.11a9 9 0 0 0-.93-2.35c-2.31 4-4.39 7.62-6.5 11.23-.92 1.6-2 2.16-3.27 1.77a2.68 2.68 0 0 1-1.59-4q1.61-3.41 3.34-6.76c1.62-3.15 1.67-6.57 1.95-10q.53-6.44 1.46-12.82a4 4 0 0 1 2.85-3c.44-.16.88-.34 1.48-.58-1.39-1.54-2.6-3.15-1.89-5.12a6.87 6.87 0 0 1 2.36-3.12c2.09-1.49 5.21-.48 6.48 1.84 1.48 2.7.27 5.17-3.34 7.11 1.25 2.38 2.53 4.73 3.73 7.11a2.38 2.38 0 0 0 2.19 1.56 22.77 22.77 0 0 1 4 .57 5.22 5.22 0 0 1 1.51 1c.41.28.78.75 1.23.84 1.06.19 1.36.79 1.53 1.77.57 3.28.06 2.72 3.15 2.73h20.3c-.56 1.65-1 3-1.51 4.41-.78 2.18-1.61 4.34-2.37 6.53a2.11 2.11 0 0 1-2.33 1.65c-4.45-.07-8.9 0-13.36 0-1.69 0-2.25.58-2.18 2.27 0 .19 0 .53.09.54 1.73.25 2.1 2.3 4.42 2.3h3.62c1.54 0 2.47-.05 3.43-1.3a2.41 2.41 0 0 1 3.61.11 2.67 2.67 0 0 1-.09 3.78 2.53 2.53 0 0 1-3.75-.16 2.85 2.85 0 0 0-2.63-1.1h-3.34c-1.37 0-2.58 0-3.59 1.28a2.22 2.22 0 0 1-3.16.24 2.34 2.34 0 0 1-.93-3.18c1.68-3 1.45-6.12 1-9.3s-1-6.6-1.54-9.9c-.24-1.48-.4-1.5-1.67-.66a2.83 2.83 0 0 1-1.49.38c-1.84 0-3.68-.09-5.52 0s-3.37-.09-4.39-1.88z"/><path id="_复合路径_8" data-name="&lt;复合路径&gt;" class="cls-14" d="M466.47 504.46c-1.41 2.6-1.07 4.66.74 6.58a10.77 10.77 0 0 1 2.89 9.25c-.28 2.24-.14 4.54-.24 6.81-.1 2-.92 2.83-2.67 2.83s-2.51-.79-2.65-2.7c-.19-2.76-.24-5.53-.48-8.28a9.39 9.39 0 0 0-1-2.39c-2.35 4.07-4.48 7.77-6.62 11.46-1 1.63-2 2.2-3.35 1.81a2.74 2.74 0 0 1-1.62-4.07c1.09-2.32 2.23-4.63 3.4-6.91 1.66-3.21 1.71-6.71 2-10.2q.54-6.56 1.49-13.07a4.05 4.05 0 0 1 2.9-3.11l1.52-.59c-1.42-1.57-2.66-3.22-1.93-5.23a7 7 0 0 1 2.4-3.18c2.14-1.52 5.33-.49 6.62 1.88 1.51 2.76.27 5.27-3.41 7.26 1.28 2.42 2.58 4.82 3.81 7.25a2.42 2.42 0 0 0 2.24 1.59 22.64 22.64 0 0 1 4.09.58 5 5 0 0 1 1.54 1c.43.29.81.77 1.27.86 1.07.2 1.38.8 1.55 1.81.58 3.34.06 2.77 3.22 2.79h20.68c-.58 1.68-1 3.09-1.54 4.49-.8 2.23-1.65 4.43-2.42 6.67a2.16 2.16 0 0 1-2.38 1.68c-4.54-.07-9.09 0-13.64 0-1.72 0-2.3.59-2.22 2.32 0 .19 0 .54.09.55 1.77.26 2.14 2.35 4.51 2.35H491c1.57 0 2.51-.06 3.49-1.33a2.46 2.46 0 0 1 3.69.11 2.73 2.73 0 0 1-.09 3.86 2.58 2.58 0 0 1-3.83-.17 2.91 2.91 0 0 0-2.69-1.12h-3.41c-1.39 0-2.63 0-3.65 1.3a2.27 2.27 0 0 1-3.23.24 2.38 2.38 0 0 1-.95-3.24c1.71-3.07 1.48-6.25 1-9.49s-1-6.74-1.58-10.1c-.24-1.51-.4-1.53-1.7-.68a2.91 2.91 0 0 1-1.51.39c-1.88 0-3.76-.09-5.64 0s-3.39-.04-4.43-1.86zm6.32.56a29.23 29.23 0 0 0 3 0 5.13 5.13 0 0 0 1.43-.63c-.43-.38-.82-1-1.31-1.1a30.83 30.83 0 0 0-4.4-.6 2 2 0 0 1-1.9-1.34q-1.4-2.94-2.91-5.82a3.84 3.84 0 0 0-4.14-1.95 3.4 3.4 0 0 0-3 2.85c-.47 3.78-.88 7.56-1.28 11.34a4.12 4.12 0 0 0 1.31 3.47c1.63 1.65 3.28 3.29 4.8 5a4.46 4.46 0 0 1 1 2.32c.28 2.85.4 5.71.57 8.57.05.84.29 1.48 1.27 1.45s1.24-.62 1.26-1.48a52.19 52.19 0 0 1 .24-6.51 10.34 10.34 0 0 0-2.81-9.09 5.77 5.77 0 0 1-1.29-6.26c.34-1.09.88-2.35-.11-3.53-.26-.31-.14-.93-.2-1.41.43.23.88.43 1.29.7a1.74 1.74 0 0 1 .45.58c1.49 2.62 3.45 4.32 6.73 3.42zm19.52 4.8H483c-.68 0-1.36 0-1.22 1 .38 2.63.79 5.26 1.16 7.9.13.9.58 1.23 1.49 1.22 4.59 0 9.17 0 13.76-.06a2.17 2.17 0 0 0 1.58-1.12c1-2.45 1.82-5 2.78-7.47.45-1.15.12-1.5-1.06-1.49-3.06.05-6.12.02-9.18.02zm-34.26 2.24a14.14 14.14 0 0 0-.24 1.43 15.78 15.78 0 0 1-2 6.72c-1.08 2-2 4-3 6.09a1.94 1.94 0 0 0-.14 1.37c.17.38.78.91 1.06.84a2.7 2.7 0 0 0 1.46-1c1.75-2.85 3.42-5.75 5.12-8.63 1.78-3.12 1.15-4.53-2.26-6.82zm11-24.31a3.38 3.38 0 0 0-3.45-3.58 3.45 3.45 0 0 0-3.53 3.39 3.7 3.7 0 0 0 3.5 3.68 3.58 3.58 0 0 0 3.51-3.49zm15 39.5a1.32 1.32 0 0 0-1.37-1.32 1.28 1.28 0 0 0 0 2.56 1.27 1.27 0 0 0 1.43-1.24zm13.48 0a1.28 1.28 0 0 0-1.31-1.29 1.2 1.2 0 0 0-1.26 1.17 1.35 1.35 0 0 0 1.25 1.38 1.25 1.25 0 0 0 1.38-1.28z"/><path id="_复合路径_9" data-name="&lt;复合路径&gt;" class="cls-14" d="M557.22 249.48c-1.41 2.6-1.07 4.67.74 6.59a10.75 10.75 0 0 1 2.89 9.25c-.28 2.24-.14 4.54-.24 6.81-.1 2-.92 2.83-2.67 2.83s-2.51-.79-2.65-2.7c-.19-2.76-.24-5.53-.48-8.28a9.44 9.44 0 0 0-1-2.4c-2.35 4.08-4.48 7.78-6.63 11.47-.94 1.63-2 2.2-3.34 1.8a2.74 2.74 0 0 1-1.62-4.07c1.09-2.32 2.23-4.62 3.4-6.9 1.66-3.22 1.71-6.71 2-10.2.36-4.37.86-8.74 1.49-13.08a4.08 4.08 0 0 1 2.9-3.11c.46-.16.9-.34 1.52-.58-1.42-1.58-2.66-3.22-1.93-5.23a7 7 0 0 1 2.4-3.18c2.14-1.52 5.33-.49 6.62 1.87 1.51 2.76.27 5.28-3.41 7.27 1.28 2.42 2.58 4.81 3.81 7.25a2.39 2.39 0 0 0 2.24 1.58 23.58 23.58 0 0 1 4.09.59 5.09 5.09 0 0 1 1.54 1c.43.29.81.77 1.27.85 1.07.21 1.38.81 1.55 1.82.58 3.34.06 2.77 3.22 2.78h20.68c-.58 1.69-1 3.1-1.54 4.5-.8 2.22-1.65 4.43-2.42 6.67a2.16 2.16 0 0 1-2.38 1.68c-4.54-.08-9.09 0-13.64 0-1.72 0-2.3.59-2.22 2.31 0 .2 0 .55.09.56 1.77.26 2.14 2.35 4.51 2.35h3.7c1.57 0 2.51-.06 3.49-1.33a2.46 2.46 0 0 1 3.69.11 2.73 2.73 0 0 1-.09 3.86 2.58 2.58 0 0 1-3.83-.17 2.91 2.91 0 0 0-2.69-1.12h-3.41c-1.39 0-2.63 0-3.65 1.31a2.28 2.28 0 0 1-3.23.24 2.39 2.39 0 0 1-.95-3.25c1.71-3.06 1.48-6.24 1-9.49s-1-6.73-1.58-10.09c-.24-1.51-.4-1.54-1.7-.68a2.92 2.92 0 0 1-1.52.39c-1.87 0-3.75-.1-5.63-.05s-3.35-.01-4.39-1.83zm6.32.57a29.23 29.23 0 0 0 3 0 5.13 5.13 0 0 0 1.43-.63c-.43-.38-.82-1-1.31-1.1a30.83 30.83 0 0 0-4.4-.6 2.06 2.06 0 0 1-1.9-1.34c-.93-2-1.9-3.91-2.91-5.82a3.84 3.84 0 0 0-4.14-1.95 3.4 3.4 0 0 0-3 2.85c-.48 3.77-.88 7.55-1.28 11.33a4.15 4.15 0 0 0 1.31 3.48c1.63 1.65 3.28 3.29 4.8 5a4.43 4.43 0 0 1 1 2.32c.28 2.85.4 5.71.57 8.57 0 .84.29 1.48 1.27 1.45s1.24-.63 1.26-1.49a52.26 52.26 0 0 1 .24-6.51 10.32 10.32 0 0 0-2.81-9.08 5.78 5.78 0 0 1-1.29-6.27c.34-1.09.88-2.35-.11-3.53-.26-.31-.14-.92-.2-1.4.43.23.88.43 1.29.7a1.74 1.74 0 0 1 .45.58c1.49 2.61 3.45 4.32 6.73 3.44zm19.52 4.8h-9.32c-.68 0-1.36 0-1.22 1 .38 2.63.79 5.26 1.16 7.89.13.91.58 1.24 1.49 1.23 4.59 0 9.17 0 13.76-.07a2.19 2.19 0 0 0 1.58-1.11c1-2.46 1.82-5 2.78-7.47.45-1.15.12-1.51-1.06-1.49-3.05.05-6.11.02-9.17.02zm-34.26 2.24a13.7 13.7 0 0 0-.24 1.43 15.78 15.78 0 0 1-2 6.72c-1.08 2-2 4-3 6.08a2 2 0 0 0-.14 1.38c.17.38.78.91 1.06.84a2.7 2.7 0 0 0 1.46-1c1.75-2.85 3.42-5.75 5.12-8.63 1.78-3.12 1.15-4.53-2.26-6.82zm11-24.31a3.38 3.38 0 0 0-3.45-3.58 3.44 3.44 0 0 0-3.53 3.39 3.7 3.7 0 0 0 3.5 3.68 3.59 3.59 0 0 0 3.51-3.49zm15 39.5a1.32 1.32 0 0 0-1.37-1.32 1.28 1.28 0 0 0 0 2.56 1.27 1.27 0 0 0 1.43-1.24zm13.48 0A1.28 1.28 0 0 0 587 271a1.2 1.2 0 0 0-1.26 1.17 1.35 1.35 0 0 0 1.25 1.38 1.26 1.26 0 0 0 1.35-1.3z"/><g id="_编组_24" data-name="&lt;编组&gt;" opacity=".19"><path id="_路径_61" data-name="&lt;路径&gt;" class="cls-18" d="M782.9 154.96v-49.99l-15.05 14.3v49.99l15.05-14.3z"/><path id="_路径_62" data-name="&lt;路径&gt;" class="cls-18" d="M782.9 161.07l-15.05 14.31v49.99l15.05-14.31v-49.99z"/><path id="_路径_63" data-name="&lt;路径&gt;" class="cls-14" d="M782.9 154.96l-15.05 14.3h246.92l15.05-14.3H782.9z"/><path id="_路径_64" data-name="&lt;路径&gt;" class="cls-14" d="M782.9 211.06l-15.05 14.31h246.92l15.05-14.31H782.9z"/><g id="_编组_25" data-name="&lt;编组&gt;"><path id="_复合路径_10" data-name="&lt;复合路径&gt;" class="cls-19" d="M1020.42 232.14H761.06V112.92h259.36zm-252.57-6.77h245.78V119.69H767.85z"/></g><path id="_路径_65" data-name="&lt;路径&gt;" class="cls-18" d="M1037.69 96.5l-17.27 16.42v119.22l17.27-16.42V96.5z"/><path id="_路径_66" data-name="&lt;路径&gt;" class="cls-14" d="M778.33 96.5l-17.27 16.42h259.36l17.27-16.42H778.33z"/><path id="_矩形_" data-name="&lt;矩形&gt;" class="cls-19" d="M767.85 169.26h245.78v6.53H767.85z"/><g id="_编组_26" data-name="&lt;编组&gt;"><g id="_编组_27" data-name="&lt;编组&gt;"><path id="_复合路径_11" data-name="&lt;复合路径&gt;" class="cls-20" d="M855.92 162.1h-64.73v-31h64.73z"/></g><path id="_路径_67" data-name="&lt;路径&gt;" class="cls-21" d="M860.48 126.77l-4.56 4.33v31l4.56-4.33v-31z"/><path id="_路径_68" data-name="&lt;路径&gt;" class="cls-22" d="M795.75 126.77l-4.56 4.33h64.73l4.56-4.33h-64.73z"/><g id="_编组_28" data-name="&lt;编组&gt;"><path id="_复合路径_12" data-name="&lt;复合路径&gt;" class="cls-20" d="M929.58 162.1h-64.72v-31h64.72z"/></g><path id="_路径_69" data-name="&lt;路径&gt;" class="cls-21" d="M934.14 126.77l-4.56 4.33v31l4.56-4.33v-31z"/><path id="_路径_70" data-name="&lt;路径&gt;" class="cls-22" d="M869.42 126.77l-4.56 4.33h64.72l4.56-4.33h-64.72z"/><g id="_编组_29" data-name="&lt;编组&gt;"><path id="_复合路径_13" data-name="&lt;复合路径&gt;" class="cls-20" d="M1003.25 162.1h-64.72v-31h64.72z"/></g><path id="_路径_71" data-name="&lt;路径&gt;" class="cls-21" d="M1007.81 126.77l-4.56 4.33v31l4.56-4.33v-31z"/><path id="_路径_72" data-name="&lt;路径&gt;" class="cls-22" d="M943.09 126.77l-4.56 4.33h64.72l4.56-4.33h-64.72z"/><g id="_编组_30" data-name="&lt;编组&gt;"><path id="_复合路径_14" data-name="&lt;复合路径&gt;" class="cls-20" d="M855.92 217.67h-64.73v-31h64.73z"/></g><path id="_路径_73" data-name="&lt;路径&gt;" class="cls-21" d="M860.48 182.34l-4.56 4.33v31l4.56-4.33v-31z"/><path id="_路径_74" data-name="&lt;路径&gt;" class="cls-22" d="M795.75 182.34l-4.56 4.33h64.73l4.56-4.33h-64.73z"/><g id="_编组_31" data-name="&lt;编组&gt;"><path id="_复合路径_15" data-name="&lt;复合路径&gt;" class="cls-20" d="M929.58 217.67h-64.72v-31h64.72z"/></g><path id="_路径_75" data-name="&lt;路径&gt;" class="cls-21" d="M934.14 182.34l-4.56 4.33v31l4.56-4.33v-31z"/><path id="_路径_76" data-name="&lt;路径&gt;" class="cls-22" d="M869.42 182.34l-4.56 4.33h64.72l4.56-4.33h-64.72z"/><g id="_编组_32" data-name="&lt;编组&gt;"><path id="_复合路径_16" data-name="&lt;复合路径&gt;" class="cls-20" d="M1003.25 217.67h-64.72v-31h64.72z"/></g><path id="_路径_77" data-name="&lt;路径&gt;" class="cls-21" d="M1007.81 182.34l-4.56 4.33v31l4.56-4.33v-31z"/><path id="_路径_78" data-name="&lt;路径&gt;" class="cls-22" d="M943.09 182.34l-4.56 4.33h64.72l4.56-4.33h-64.72z"/></g><g id="_编组_33" data-name="&lt;编组&gt;"><g id="_编组_34" data-name="&lt;编组&gt;"><path id="_复合路径_17" data-name="&lt;复合路径&gt;" class="cls-20" d="M850.24 167.61h-64.72v-31h64.72z"/></g><path id="_路径_79" data-name="&lt;路径&gt;" class="cls-21" d="M854.8 132.28l-4.56 4.34v31l4.56-4.34v-31z"/><path id="_路径_80" data-name="&lt;路径&gt;" class="cls-22" d="M790.08 132.28l-4.56 4.34h64.72l4.56-4.34h-64.72z"/><g id="_编组_35" data-name="&lt;编组&gt;"><path id="_复合路径_18" data-name="&lt;复合路径&gt;" class="cls-20" d="M923.91 167.61h-64.73v-31h64.73z"/></g><path id="_路径_81" data-name="&lt;路径&gt;" class="cls-21" d="M928.47 132.28l-4.56 4.34v31l4.56-4.34v-31z"/><path id="_路径_82" data-name="&lt;路径&gt;" class="cls-22" d="M863.74 132.28l-4.56 4.34h64.73l4.56-4.34h-64.73z"/><g id="_编组_36" data-name="&lt;编组&gt;"><path id="_复合路径_19" data-name="&lt;复合路径&gt;" class="cls-20" d="M997.57 167.61h-64.72v-31h64.72z"/></g><path id="_路径_83" data-name="&lt;路径&gt;" class="cls-21" d="M1002.13 132.28l-4.56 4.34v31l4.56-4.34v-31z"/><path id="_路径_84" data-name="&lt;路径&gt;" class="cls-22" d="M937.41 132.28l-4.56 4.34h64.72l4.56-4.34h-64.72z"/><g id="_编组_37" data-name="&lt;编组&gt;"><path id="_复合路径_20" data-name="&lt;复合路径&gt;" class="cls-20" d="M850.24 223.18h-64.72v-31h64.72z"/></g><path id="_路径_85" data-name="&lt;路径&gt;" class="cls-21" d="M854.8 187.85l-4.56 4.34v31l4.56-4.34v-31z"/><path id="_路径_86" data-name="&lt;路径&gt;" class="cls-22" d="M790.08 187.85l-4.56 4.34h64.72l4.56-4.34h-64.72z"/><g id="_编组_38" data-name="&lt;编组&gt;"><path id="_复合路径_21" data-name="&lt;复合路径&gt;" class="cls-20" d="M923.91 223.18h-64.73v-31h64.73z"/></g><path id="_路径_87" data-name="&lt;路径&gt;" class="cls-21" d="M928.47 187.85l-4.56 4.34v31l4.56-4.34v-31z"/><path id="_路径_88" data-name="&lt;路径&gt;" class="cls-22" d="M863.74 187.85l-4.56 4.34h64.73l4.56-4.34h-64.73z"/><g id="_编组_39" data-name="&lt;编组&gt;"><path id="_复合路径_22" data-name="&lt;复合路径&gt;" class="cls-20" d="M997.57 223.18h-64.72v-31h64.72z"/></g><path id="_路径_89" data-name="&lt;路径&gt;" class="cls-21" d="M1002.13 187.85l-4.56 4.34v31l4.56-4.34v-31z"/><path id="_路径_90" data-name="&lt;路径&gt;" class="cls-22" d="M937.41 187.85l-4.56 4.34h64.72l4.56-4.34h-64.72z"/></g></g><g id="_编组_40" data-name="&lt;编组&gt;" opacity=".42"><path id="_路径_91" data-name="&lt;路径&gt;" class="cls-24" d="M669.09 207.3v-54.17l-16.31 15.5v54.17l16.31-15.5z"/><path id="_路径_92" data-name="&lt;路径&gt;" class="cls-24" d="M669.09 213.92l-16.31 15.5v54.17l16.31-15.5v-54.17z"/><path id="_路径_93" data-name="&lt;路径&gt;" class="cls-25" d="M669.09 207.3l-16.31 15.5h267.54l16.31-15.5H669.09z"/><path id="_路径_94" data-name="&lt;路径&gt;" class="cls-25" d="M669.09 268.09l-16.31 15.5h267.54l16.31-15.5H669.09z"/><g id="_编组_41" data-name="&lt;编组&gt;"><path id="_复合路径_23" data-name="&lt;复合路径&gt;" class="cls-26" d="M926.44 290.92h-281V161.75h281zm-273.65-7.33h266.3V169.08h-266.3z"/></g><path id="_路径_95" data-name="&lt;路径&gt;" class="cls-24" d="M945.15 143.96l-18.71 17.79v129.17l18.71-17.78V143.96z"/><path id="_路径_96" data-name="&lt;路径&gt;" class="cls-25" d="M664.14 143.96l-18.71 17.79h281.01l18.71-17.79H664.14z"/><path id="_矩形_2" data-name="&lt;矩形&gt;" class="cls-26" d="M652.79 222.8h266.3v7.07h-266.3z"/><g id="_编组_42" data-name="&lt;编组&gt;"><g id="_编组_43" data-name="&lt;编组&gt;"><path id="_复合路径_24" data-name="&lt;复合路径&gt;" class="cls-20" d="M729.49 215h-51.41v-33.63h51.41z"/></g><path id="_路径_97" data-name="&lt;路径&gt;" class="cls-21" d="M734.43 176.68l-4.94 4.69v33.59l4.94-4.7v-33.58z"/><path id="_路径_98" data-name="&lt;路径&gt;" class="cls-22" d="M683.02 176.68l-4.94 4.69h51.41l4.94-4.69h-51.41z"/><g id="_编组_44" data-name="&lt;编组&gt;"><path id="_复合路径_25" data-name="&lt;复合路径&gt;" class="cls-20" d="M788.94 215h-51.41v-33.63h51.41z"/></g><path id="_路径_99" data-name="&lt;路径&gt;" class="cls-21" d="M793.88 176.68l-4.94 4.69v33.59l4.94-4.7v-33.58z"/><path id="_路径_100" data-name="&lt;路径&gt;" class="cls-22" d="M742.47 176.68l-4.94 4.69h51.41l4.94-4.69h-51.41z"/><g id="_编组_45" data-name="&lt;编组&gt;"><path id="_复合路径_26" data-name="&lt;复合路径&gt;" class="cls-20" d="M848.39 215H797v-33.63h51.41z"/></g><path id="_路径_101" data-name="&lt;路径&gt;" class="cls-21" d="M853.33 176.68l-4.94 4.69v33.59l4.94-4.7v-33.58z"/><path id="_路径_102" data-name="&lt;路径&gt;" class="cls-22" d="M801.91 176.68l-4.93 4.69h51.41l4.94-4.69h-51.42z"/><g id="_编组_46" data-name="&lt;编组&gt;"><path id="_复合路径_27" data-name="&lt;复合路径&gt;" class="cls-20" d="M907.84 215h-51.41v-33.63h51.41z"/></g><path id="_路径_103" data-name="&lt;路径&gt;" class="cls-21" d="M912.78 176.68l-4.94 4.69v33.59l4.94-4.7v-33.58z"/><path id="_路径_104" data-name="&lt;路径&gt;" class="cls-22" d="M861.37 176.68l-4.95 4.69h51.42l4.94-4.69h-51.41z"/><g id="_编组_47" data-name="&lt;编组&gt;"><path id="_复合路径_28" data-name="&lt;复合路径&gt;" class="cls-20" d="M748.21 275.17h-70.13v-33.59h70.13z"/></g><path id="_路径_105" data-name="&lt;路径&gt;" class="cls-21" d="M753.15 236.89l-4.94 4.69v33.59l4.94-4.7v-33.58z"/><path id="_路径_106" data-name="&lt;路径&gt;" class="cls-22" d="M683.02 236.89l-4.94 4.69h70.13l4.94-4.69h-70.13z"/><g id="_编组_48" data-name="&lt;编组&gt;"><path id="_复合路径_29" data-name="&lt;复合路径&gt;" class="cls-20" d="M828 275.17h-70.11v-33.59H828z"/></g><path id="_路径_107" data-name="&lt;路径&gt;" class="cls-21" d="M832.96 236.89l-4.94 4.69v33.59l4.94-4.7v-33.58z"/><path id="_路径_108" data-name="&lt;路径&gt;" class="cls-22" d="M762.83 236.89l-4.94 4.69h70.13l4.94-4.69h-70.13z"/><g id="_编组_49" data-name="&lt;编组&gt;"><path id="_复合路径_30" data-name="&lt;复合路径&gt;" class="cls-20" d="M907.84 275.17h-70.13v-33.59h70.13z"/></g><path id="_路径_109" data-name="&lt;路径&gt;" class="cls-21" d="M912.78 236.89l-4.94 4.69v33.59l4.94-4.7v-33.58z"/><path id="_路径_110" data-name="&lt;路径&gt;" class="cls-22" d="M842.65 236.89l-4.94 4.69h70.13l4.94-4.69h-70.13z"/></g><g id="_编组_50" data-name="&lt;编组&gt;"><g id="_编组_51" data-name="&lt;编组&gt;"><path id="_复合路径_31" data-name="&lt;复合路径&gt;" class="cls-20" d="M723.34 221h-51.41v-33.57h51.41z"/></g><path id="_路径_111" data-name="&lt;路径&gt;" class="cls-21" d="M728.28 182.73l-4.94 4.7v33.58l4.94-4.69v-33.59z"/><path id="_路径_112" data-name="&lt;路径&gt;" class="cls-22" d="M676.87 182.73l-4.94 4.7h51.41l4.94-4.7h-51.41z"/><g id="_编组_52" data-name="&lt;编组&gt;"><path id="_复合路径_32" data-name="&lt;复合路径&gt;" class="cls-20" d="M782.79 221h-51.41v-33.57h51.41z"/></g><path id="_路径_113" data-name="&lt;路径&gt;" class="cls-21" d="M787.73 182.73l-4.94 4.7v33.58l4.94-4.69v-33.59z"/><path id="_路径_114" data-name="&lt;路径&gt;" class="cls-22" d="M736.32 182.73l-4.94 4.7h51.41l4.94-4.7h-51.41z"/><g id="_编组_53" data-name="&lt;编组&gt;"><path id="_复合路径_33" data-name="&lt;复合路径&gt;" class="cls-20" d="M842.24 221h-51.41v-33.57h51.41z"/></g><path id="_路径_115" data-name="&lt;路径&gt;" class="cls-21" d="M847.18 182.73l-4.94 4.7v33.58l4.94-4.69v-33.59z"/><path id="_路径_116" data-name="&lt;路径&gt;" class="cls-22" d="M795.76 182.73l-4.93 4.7h51.41l4.94-4.7h-51.42z"/><g id="_编组_54" data-name="&lt;编组&gt;"><path id="_复合路径_34" data-name="&lt;复合路径&gt;" class="cls-20" d="M901.69 221h-51.42v-33.57h51.42z"/></g><path id="_路径_117" data-name="&lt;路径&gt;" class="cls-21" d="M906.63 182.73l-4.94 4.7v33.58l4.94-4.69v-33.59z"/><path id="_路径_118" data-name="&lt;路径&gt;" class="cls-22" d="M855.21 182.73l-4.94 4.7h51.42l4.94-4.7h-51.42z"/><g id="_编组_55" data-name="&lt;编组&gt;"><path id="_复合路径_35" data-name="&lt;复合路径&gt;" class="cls-20" d="M742.06 281.22h-70.13v-33.58h70.13z"/></g><path id="_路径_119" data-name="&lt;路径&gt;" class="cls-21" d="M747 242.94l-4.94 4.7v33.58l4.94-4.69v-33.59z"/><path id="_路径_120" data-name="&lt;路径&gt;" class="cls-22" d="M676.87 242.94l-4.94 4.7h70.13l4.94-4.7h-70.13z"/><g id="_编组_56" data-name="&lt;编组&gt;"><path id="_复合路径_36" data-name="&lt;复合路径&gt;" class="cls-20" d="M821.87 281.22h-70.13v-33.58h70.13z"/></g><path id="_路径_121" data-name="&lt;路径&gt;" class="cls-21" d="M826.81 242.94l-4.94 4.7v33.58l4.94-4.69v-33.59z"/><path id="_路径_122" data-name="&lt;路径&gt;" class="cls-22" d="M756.68 242.94l-4.94 4.7h70.13l4.94-4.7h-70.13z"/><g id="_编组_57" data-name="&lt;编组&gt;"><path id="_复合路径_37" data-name="&lt;复合路径&gt;" class="cls-20" d="M901.69 281.22h-70.13v-33.58h70.13z"/></g><path id="_路径_123" data-name="&lt;路径&gt;" class="cls-21" d="M906.63 242.94l-4.94 4.7v33.58l4.94-4.69v-33.59z"/><path id="_路径_124" data-name="&lt;路径&gt;" class="cls-22" d="M836.5 242.94l-4.94 4.7h70.13l4.94-4.7H836.5z"/></g></g><g id="_编组_58" data-name="&lt;编组&gt;"><path id="_路径_125" data-name="&lt;路径&gt;" class="cls-18" d="M711.34 271.51v-62.66l-18.86 17.93v62.66l18.86-17.93z"/><path id="_路径_126" data-name="&lt;路径&gt;" class="cls-18" d="M711.34 279.17l-18.86 17.93v62.66l18.86-17.93v-62.66z"/><path id="_路径_127" data-name="&lt;路径&gt;" class="cls-14" d="M711.34 271.51l-18.86 17.93h309.51l18.86-17.93H711.34z"/><path id="_路径_128" data-name="&lt;路径&gt;" class="cls-14" d="M711.34 341.83l-18.86 17.93h309.51l18.86-17.93H711.34z"/><g id="_编组_59" data-name="&lt;编组&gt;"><path id="_复合路径_38" data-name="&lt;复合路径&gt;" class="cls-19" d="M1009.07 368.25H684V218.81h325.09zm-316.59-8.49h308.08V227.3H692.48z"/></g><path id="_路径_129" data-name="&lt;路径&gt;" class="cls-18" d="M1030.71 198.23l-21.64 20.58v149.44l21.64-20.58V198.23z"/><path id="_路径_130" data-name="&lt;路径&gt;" class="cls-14" d="M705.62 198.23l-21.64 20.58h325.09l21.64-20.58H705.62z"/><path id="_矩形_3" data-name="&lt;矩形&gt;" class="cls-19" d="M692.48 289.44h308.08v8.18H692.48z"/><text class="cls-27" transform="matrix(.9 0 0 1 788.04 212)">Investment &amp; Financing</text><g id="_编组_60" data-name="&lt;编组&gt;"><g id="_编组_61" data-name="&lt;编组&gt;"><path id="_复合路径_39" data-name="&lt;复合路径&gt;" class="cls-20" d="M781.22 280.37h-59.48v-38.86h59.48z"/></g><path id="_路径_131" data-name="&lt;路径&gt;" class="cls-21" d="M786.94 236.08l-5.72 5.43v38.86l5.72-5.44v-38.85z"/><path id="_路径_132" data-name="&lt;路径&gt;" class="cls-22" d="M727.46 236.08l-5.72 5.43h59.48l5.72-5.43h-59.48z"/><g id="_编组_62" data-name="&lt;编组&gt;"><path id="_复合路径_40" data-name="&lt;复合路径&gt;" class="cls-20" d="M850 280.37h-59.48v-38.86H850z"/></g><path id="_路径_133" data-name="&lt;路径&gt;" class="cls-21" d="M855.71 236.08l-5.71 5.43v38.86l5.71-5.44v-38.85z"/><path id="_路径_134" data-name="&lt;路径&gt;" class="cls-22" d="M796.23 236.08l-5.71 5.43H850l5.71-5.43h-59.48z"/><g id="_编组_63" data-name="&lt;编组&gt;"><path id="_复合路径_41" data-name="&lt;复合路径&gt;" class="cls-20" d="M918.77 280.37h-59.48v-38.86h59.48z"/></g><path id="_路径_135" data-name="&lt;路径&gt;" class="cls-21" d="M924.49 236.08l-5.72 5.43v38.86l5.72-5.44v-38.85z"/><path id="_路径_136" data-name="&lt;路径&gt;" class="cls-22" d="M865.01 236.08l-5.72 5.43h59.48l5.72-5.43h-59.48z"/><g id="_编组_64" data-name="&lt;编组&gt;"><path id="_复合路径_42" data-name="&lt;复合路径&gt;" class="cls-20" d="M987.55 280.37h-59.48v-38.86h59.48z"/></g><path id="_路径_137" data-name="&lt;路径&gt;" class="cls-21" d="M993.26 236.08l-5.71 5.43v38.86l5.71-5.44v-38.85z"/><path id="_路径_138" data-name="&lt;路径&gt;" class="cls-22" d="M933.78 236.08l-5.71 5.43h59.48l5.71-5.43h-59.48z"/><g id="_编组_65" data-name="&lt;编组&gt;"><path id="_复合路径_43" data-name="&lt;复合路径&gt;" class="cls-20" d="M802.87 350h-81.13v-38.83h81.13z"/></g><path id="_路径_139" data-name="&lt;路径&gt;" class="cls-21" d="M808.59 305.74l-5.72 5.43v38.85l5.72-5.43v-38.85z"/><path id="_路径_140" data-name="&lt;路径&gt;" class="cls-22" d="M727.46 305.74l-5.72 5.43h81.13l5.72-5.43h-81.13z"/><g id="_编组_66" data-name="&lt;编组&gt;"><path id="_复合路径_44" data-name="&lt;复合路径&gt;" class="cls-20" d="M895.21 350h-81.13v-38.83h81.13z"/></g><path id="_路径_141" data-name="&lt;路径&gt;" class="cls-21" d="M900.93 305.74l-5.72 5.43v38.85l5.72-5.43v-38.85z"/><path id="_路径_142" data-name="&lt;路径&gt;" class="cls-22" d="M819.8 305.74l-5.72 5.43h81.13l5.72-5.43H819.8z"/><g id="_编组_67" data-name="&lt;编组&gt;"><path id="_复合路径_45" data-name="&lt;复合路径&gt;" class="cls-20" d="M987.55 350h-81.13v-38.83h81.13z"/></g><path id="_路径_143" data-name="&lt;路径&gt;" class="cls-21" d="M993.26 305.74l-5.71 5.43v38.85l5.71-5.43v-38.85z"/><path id="_路径_144" data-name="&lt;路径&gt;" class="cls-22" d="M912.13 305.74l-5.71 5.43h81.13l5.71-5.43h-81.13z"/></g><g id="_编组_68" data-name="&lt;编组&gt;"><g id="_编组_69" data-name="&lt;编组&gt;"><path id="_复合路径_46" data-name="&lt;复合路径&gt;" class="cls-20" d="M774.11 287.37h-59.48v-38.85h59.48z"/></g><path id="_路径_145" data-name="&lt;路径&gt;" class="cls-21" d="M779.82 243.08l-5.71 5.44v38.85l5.71-5.43v-38.86z"/><path id="_路径_146" data-name="&lt;路径&gt;" class="cls-22" d="M720.34 243.08l-5.71 5.44h59.48l5.71-5.44h-59.48z"/><g id="_编组_70" data-name="&lt;编组&gt;"><path id="_复合路径_47" data-name="&lt;复合路径&gt;" class="cls-20" d="M842.88 287.37H783.4v-38.85h59.48z"/></g><path id="_路径_147" data-name="&lt;路径&gt;" class="cls-21" d="M848.6 243.08l-5.72 5.44v38.85l5.72-5.43v-38.86z"/><path id="_路径_148" data-name="&lt;路径&gt;" class="cls-22" d="M789.12 243.08l-5.72 5.44h59.48l5.72-5.44h-59.48z"/><g id="_编组_71" data-name="&lt;编组&gt;"><path id="_复合路径_48" data-name="&lt;复合路径&gt;" class="cls-20" d="M911.66 287.37h-59.48v-38.85h59.48z"/></g><path id="_路径_149" data-name="&lt;路径&gt;" class="cls-21" d="M917.37 243.08l-5.71 5.44v38.85l5.71-5.43v-38.86z"/><path id="_路径_150" data-name="&lt;路径&gt;" class="cls-22" d="M857.89 243.08l-5.71 5.44h59.48l5.71-5.44h-59.48z"/><g id="_编组_72" data-name="&lt;编组&gt;"><path id="_复合路径_49" data-name="&lt;复合路径&gt;" class="cls-20" d="M980.43 287.37H921v-38.85h59.48z"/></g><path id="_路径_151" data-name="&lt;路径&gt;" class="cls-21" d="M986.15 243.08l-5.72 5.44v38.85l5.72-5.43v-38.86z"/><path id="_路径_152" data-name="&lt;路径&gt;" class="cls-22" d="M926.67 243.08l-5.72 5.44h59.48l5.72-5.44h-59.48z"/><g id="_编组_73" data-name="&lt;编组&gt;"><path id="_复合路径_50" data-name="&lt;复合路径&gt;" class="cls-20" d="M795.76 357h-81.13v-38.83h81.13z"/></g><path id="_路径_153" data-name="&lt;路径&gt;" class="cls-21" d="M801.47 312.74l-5.71 5.43v38.85l5.71-5.43v-38.85z"/><path id="_路径_154" data-name="&lt;路径&gt;" class="cls-22" d="M720.34 312.74l-5.71 5.43h81.13l5.71-5.43h-81.13z"/><g id="_编组_74" data-name="&lt;编组&gt;"><path id="_复合路径_51" data-name="&lt;复合路径&gt;" class="cls-20" d="M888.1 357H807v-38.83h81.1z"/></g><path id="_路径_155" data-name="&lt;路径&gt;" class="cls-21" d="M893.81 312.74l-5.71 5.43v38.85l5.71-5.43v-38.85z"/><path id="_路径_156" data-name="&lt;路径&gt;" class="cls-22" d="M812.68 312.74l-5.71 5.43h81.13l5.71-5.43h-81.13z"/><g id="_编组_75" data-name="&lt;编组&gt;"><path id="_复合路径_52" data-name="&lt;复合路径&gt;" class="cls-20" d="M980.43 357H899.3v-38.83h81.13z"/></g><path id="_路径_157" data-name="&lt;路径&gt;" class="cls-21" d="M986.15 312.74l-5.72 5.43v38.85l5.72-5.43v-38.85z"/><path id="_路径_158" data-name="&lt;路径&gt;" class="cls-22" d="M905.02 312.74l-5.72 5.43h81.13l5.72-5.43h-81.13z"/><text class="cls-28" transform="matrix(.9 0 0 1 740.65 335.2)">Asset<tspan x="-21.56" y="10.77">Management</tspan></text><text class="cls-28" transform="matrix(.9 0 0 1 818.75 341.54)">Exchanges</text><text class="cls-28" transform="matrix(.9 0 0 1 922.41 335.2)">Money<tspan x="-5.38" y="10.77">Services</tspan></text><text class="cls-28" transform="matrix(.9 0 0 1 728.2 271.18)">Funds</text><text class="cls-28" transform="matrix(.9 0 0 1 787.28 271.18)">Payments</text><text class="cls-28" transform="matrix(.9 0 0 1 855.08 271.18)">Brokerage</text><text class="cls-28" transform="matrix(.9 0 0 1 929.99 271.18)">Lending</text></g></g><g id="_编组_76" data-name="&lt;编组&gt;"><path id="_路径_159" data-name="&lt;路径&gt;" class="cls-24" d="M523.79 362.73v-62.66L504.93 318v62.66l18.86-17.93z"/><path id="_路径_160" data-name="&lt;路径&gt;" class="cls-24" d="M523.79 370.39l-18.86 17.93v62.66l18.86-17.93v-62.66z"/><path id="_路径_161" data-name="&lt;路径&gt;" class="cls-25" d="M523.79 362.73l-18.86 17.93h309.5l18.86-17.93h-309.5z"/><path id="_路径_162" data-name="&lt;路径&gt;" class="cls-25" d="M523.79 433.05l-18.86 17.93h309.5l18.86-17.93h-309.5z"/><g id="_编组_77" data-name="&lt;编组&gt;"><path id="_复合路径_53" data-name="&lt;复合路径&gt;" class="cls-26" d="M821.51 459.47H496.42V310h325.09zM504.93 451H813V318.52H504.93z"/></g><path id="_路径_163" data-name="&lt;路径&gt;" class="cls-24" d="M843.16 289.45l-21.65 20.58v149.44l21.65-20.58V289.45z"/><path id="_路径_164" data-name="&lt;路径&gt;" class="cls-25" d="M518.06 289.45l-21.64 20.58h325.09l21.65-20.58h-325.1z"/><path id="_矩形_4" data-name="&lt;矩形&gt;" class="cls-26" d="M504.93 380.66h308.08v8.18H504.93z"/><text class="cls-27" transform="matrix(.9 0 0 1 606.15 303.22)">Professional Services</text><g id="_编组_78" data-name="&lt;编组&gt;"><g id="_编组_79" data-name="&lt;编组&gt;"><path id="_复合路径_54" data-name="&lt;复合路径&gt;" class="cls-20" d="M593.67 371.59h-59.48v-38.86h59.48z"/></g><path id="_路径_165" data-name="&lt;路径&gt;" class="cls-21" d="M599.38 327.3l-5.71 5.44v38.85l5.71-5.43V327.3z"/><path id="_路径_166" data-name="&lt;路径&gt;" class="cls-22" d="M539.9 327.3l-5.72 5.44h59.49l5.71-5.44H539.9z"/><g id="_编组_80" data-name="&lt;编组&gt;"><path id="_复合路径_55" data-name="&lt;复合路径&gt;" class="cls-20" d="M662.44 371.59H603v-38.86h59.48z"/></g><path id="_路径_167" data-name="&lt;路径&gt;" class="cls-21" d="M668.15 327.3l-5.71 5.44v38.85l5.71-5.43V327.3z"/><path id="_路径_168" data-name="&lt;路径&gt;" class="cls-22" d="M608.67 327.3l-5.71 5.44h59.48l5.72-5.44h-59.49z"/><g id="_编组_81" data-name="&lt;编组&gt;"><path id="_复合路径_56" data-name="&lt;复合路径&gt;" class="cls-20" d="M731.22 371.59h-59.48v-38.86h59.48z"/></g><path id="_路径_169" data-name="&lt;路径&gt;" class="cls-21" d="M736.93 327.3l-5.71 5.44v38.85l5.71-5.43V327.3z"/><path id="_路径_170" data-name="&lt;路径&gt;" class="cls-22" d="M677.45 327.3l-5.71 5.44h59.48l5.71-5.44h-59.48z"/><g id="_编组_82" data-name="&lt;编组&gt;"><path id="_复合路径_57" data-name="&lt;复合路径&gt;" class="cls-20" d="M800 371.59h-59.49v-38.86H800z"/></g><path id="_路径_171" data-name="&lt;路径&gt;" class="cls-21" d="M805.71 327.3l-5.72 5.44v38.85l5.72-5.43V327.3z"/><path id="_路径_172" data-name="&lt;路径&gt;" class="cls-22" d="M746.23 327.3l-5.72 5.44h59.48l5.72-5.44h-59.48z"/><g id="_编组_83" data-name="&lt;编组&gt;"><path id="_复合路径_58" data-name="&lt;复合路径&gt;" class="cls-20" d="M615.32 441.24h-81.13v-38.85h81.13z"/></g><path id="_路径_173" data-name="&lt;路径&gt;" class="cls-21" d="M621.03 396.96l-5.71 5.43v38.85l5.71-5.43v-38.85z"/><path id="_路径_174" data-name="&lt;路径&gt;" class="cls-22" d="M539.9 396.96l-5.72 5.43h81.14l5.71-5.43H539.9z"/><g id="_编组_84" data-name="&lt;编组&gt;"><path id="_复合路径_59" data-name="&lt;复合路径&gt;" class="cls-20" d="M707.65 441.24h-81.13v-38.85h81.13z"/></g><path id="_路径_175" data-name="&lt;路径&gt;" class="cls-21" d="M713.37 396.96l-5.72 5.43v38.85l5.72-5.43v-38.85z"/><path id="_路径_176" data-name="&lt;路径&gt;" class="cls-22" d="M632.24 396.96l-5.72 5.43h81.13l5.72-5.43h-81.13z"/><g id="_编组_85" data-name="&lt;编组&gt;"><path id="_复合路径_60" data-name="&lt;复合路径&gt;" class="cls-20" d="M800 441.24h-81.14v-38.85H800z"/></g><path id="_路径_177" data-name="&lt;路径&gt;" class="cls-21" d="M805.71 396.96l-5.72 5.43v38.85l5.72-5.43v-38.85z"/><path id="_路径_178" data-name="&lt;路径&gt;" class="cls-22" d="M724.58 396.96l-5.72 5.43h81.13l5.72-5.43h-81.13z"/></g><g id="_编组_86" data-name="&lt;编组&gt;"><g id="_编组_87" data-name="&lt;编组&gt;"><path id="_复合路径_61" data-name="&lt;复合路径&gt;" class="cls-20" d="M586.55 378.59h-59.48v-38.85h59.48z"/></g><path id="_路径_179" data-name="&lt;路径&gt;" class="cls-21" d="M592.26 334.31l-5.71 5.43v38.85l5.71-5.43v-38.85z"/><path id="_路径_180" data-name="&lt;路径&gt;" class="cls-22" d="M532.78 334.31l-5.71 5.43h59.48l5.71-5.43h-59.48z"/><g id="_编组_88" data-name="&lt;编组&gt;"><path id="_复合路径_62" data-name="&lt;复合路径&gt;" class="cls-20" d="M655.33 378.59h-59.48v-38.85h59.48z"/></g><path id="_路径_181" data-name="&lt;路径&gt;" class="cls-21" d="M661.04 334.31l-5.71 5.43v38.85l5.71-5.43v-38.85z"/><path id="_路径_182" data-name="&lt;路径&gt;" class="cls-22" d="M601.56 334.31l-5.71 5.43h59.48l5.71-5.43h-59.48z"/><g id="_编组_89" data-name="&lt;编组&gt;"><path id="_复合路径_63" data-name="&lt;复合路径&gt;" class="cls-20" d="M724.1 378.59h-59.48v-38.85h59.48z"/></g><path id="_路径_183" data-name="&lt;路径&gt;" class="cls-21" d="M729.82 334.31l-5.72 5.43v38.85l5.72-5.43v-38.85z"/><path id="_路径_184" data-name="&lt;路径&gt;" class="cls-22" d="M670.34 334.31l-5.72 5.43h59.48l5.72-5.43h-59.48z"/><g id="_编组_90" data-name="&lt;编组&gt;"><path id="_复合路径_64" data-name="&lt;复合路径&gt;" class="cls-20" d="M792.88 378.59H733.4v-38.85h59.48z"/></g><path id="_路径_185" data-name="&lt;路径&gt;" class="cls-21" d="M798.59 334.31l-5.71 5.43v38.85l5.71-5.43v-38.85z"/><path id="_路径_186" data-name="&lt;路径&gt;" class="cls-22" d="M739.11 334.31l-5.72 5.43h59.49l5.71-5.43h-59.48z"/><g id="_编组_91" data-name="&lt;编组&gt;"><path id="_复合路径_65" data-name="&lt;复合路径&gt;" class="cls-20" d="M608.2 448.25h-81.13v-38.86h81.13z"/></g><path id="_路径_187" data-name="&lt;路径&gt;" class="cls-21" d="M613.91 403.96l-5.71 5.43v38.86l5.71-5.44v-38.85z"/><path id="_路径_188" data-name="&lt;路径&gt;" class="cls-22" d="M532.78 403.96l-5.71 5.43h81.13l5.71-5.43h-81.13z"/><g id="_编组_92" data-name="&lt;编组&gt;"><path id="_复合路径_66" data-name="&lt;复合路径&gt;" class="cls-20" d="M700.54 448.25h-81.13v-38.86h81.13z"/></g><path id="_路径_189" data-name="&lt;路径&gt;" class="cls-21" d="M706.25 403.96l-5.71 5.43v38.86l5.71-5.44v-38.85z"/><path id="_路径_190" data-name="&lt;路径&gt;" class="cls-22" d="M625.12 403.96l-5.71 5.43h81.13l5.71-5.43h-81.13z"/><g id="_编组_93" data-name="&lt;编组&gt;"><path id="_复合路径_67" data-name="&lt;复合路径&gt;" class="cls-20" d="M792.88 448.25h-81.13v-38.86h81.13z"/></g><path id="_路径_191" data-name="&lt;路径&gt;" class="cls-21" d="M798.59 403.96l-5.71 5.43v38.86l5.71-5.44v-38.85z"/><path id="_路径_192" data-name="&lt;路径&gt;" class="cls-22" d="M717.46 403.96l-5.71 5.43h81.13l5.71-5.43h-81.13z"/><text class="cls-28" transform="matrix(.9 0 0 1 544.36 426.42)">Financial<tspan x="1.08" y="10.77">Advisory</tspan></text><text class="cls-28" transform="matrix(.9 0 0 1 636.15 426.42)"><tspan letter-spacing="-.07em">V</tspan><tspan x="7.66" y="0">aluation</tspan><tspan x="4.92" y="10.77">Service</tspan></text><text class="cls-28" transform="matrix(.9 0 0 1 741.64 426.42)">Due<tspan x="-14.73" y="10.77">Diligence</tspan></text><text class="cls-28" transform="matrix(.9 0 0 1 542.58 357.11)">Legal<tspan x="-14.73" y="10.77">Consulting</tspan></text><text class="cls-28" transform="matrix(.9 0 0 1 616.53 357.11)"><tspan letter-spacing="-.11em">T</tspan><tspan x="6.46" y="0">ax</tspan><tspan x="-14.73" y="10.77">Advisory</tspan></text><text class="cls-28" transform="matrix(.9 0 0 1 666.23 357.11)">Automated<tspan x="16.53" y="10.77">Audit</tspan></text><text class="cls-28" transform="matrix(.9 0 0 1 751.82 357.11)">Risk<tspan x="-6.12" y="10.77">Rating</tspan></text></g></g><g id="_编组_94" data-name="&lt;编组&gt;"><path id="_路径_193" data-name="&lt;路径&gt;" class="cls-18" d="M613.42 521.82v-62.66l-18.85 17.93v62.66l18.85-17.93z"/><path id="_路径_194" data-name="&lt;路径&gt;" class="cls-18" d="M613.42 529.49l-18.85 17.93v62.66l18.85-17.93v-62.66z"/><path id="_路径_195" data-name="&lt;路径&gt;" class="cls-14" d="M613.42 521.82l-18.85 17.93h309.5l18.86-17.93H613.42z"/><path id="_路径_196" data-name="&lt;路径&gt;" class="cls-14" d="M613.42 592.15l-18.85 17.93h309.5l18.86-17.93H613.42z"/><g id="_编组_95" data-name="&lt;编组&gt;"><path id="_复合路径_68" data-name="&lt;复合路径&gt;" class="cls-19" d="M911.15 618.57H586.06V469.12h325.09zm-316.59-8.49h308.08V477.61H594.56z"/></g><path id="_路径_197" data-name="&lt;路径&gt;" class="cls-18" d="M932.8 448.55l-21.65 20.57v149.45l21.65-20.58V448.55z"/><path id="_路径_198" data-name="&lt;路径&gt;" class="cls-14" d="M607.7 448.55l-21.64 20.57h325.09l21.65-20.57H607.7z"/><path id="_矩形_5" data-name="&lt;矩形&gt;" class="cls-19" d="M594.56 539.75h308.08v8.18H594.56z"/><text class="cls-27" transform="matrix(.9 0 0 1 692.02 462.32)">Marketing &amp; Promotion</text><g id="_编组_96" data-name="&lt;编组&gt;"><g id="_编组_97" data-name="&lt;编组&gt;"><path id="_复合路径_69" data-name="&lt;复合路径&gt;" class="cls-20" d="M705 530.78h-81.18v-38.86H705z"/></g><path id="_路径_199" data-name="&lt;路径&gt;" class="cls-21" d="M710.67 486.49l-5.71 5.43v38.85l5.71-5.43v-38.85z"/><path id="_路径_200" data-name="&lt;路径&gt;" class="cls-22" d="M629.54 486.49l-5.71 5.43h81.13l5.71-5.43h-81.13z"/><g id="_编组_98" data-name="&lt;编组&gt;"><path id="_复合路径_70" data-name="&lt;复合路径&gt;" class="cls-20" d="M797.29 530.78h-81.13v-38.86h81.13z"/></g><path id="_路径_201" data-name="&lt;路径&gt;" class="cls-21" d="M803.01 486.49l-5.72 5.43v38.85l5.72-5.43v-38.85z"/><path id="_路径_202" data-name="&lt;路径&gt;" class="cls-22" d="M721.88 486.49l-5.72 5.43h81.13l5.72-5.43h-81.13z"/><g id="_编组_99" data-name="&lt;编组&gt;"><path id="_复合路径_71" data-name="&lt;复合路径&gt;" class="cls-20" d="M889.63 530.78H808.5v-38.86h81.13z"/></g><path id="_路径_203" data-name="&lt;路径&gt;" class="cls-21" d="M895.35 486.49l-5.72 5.43v38.85l5.72-5.43v-38.85z"/><path id="_路径_204" data-name="&lt;路径&gt;" class="cls-22" d="M814.22 486.49l-5.72 5.43h81.13l5.72-5.43h-81.13z"/><g id="_编组_100" data-name="&lt;编组&gt;"><path id="_复合路径_72" data-name="&lt;复合路径&gt;" class="cls-20" d="M705 600.43h-81.18v-38.85H705z"/></g><path id="_路径_205" data-name="&lt;路径&gt;" class="cls-21" d="M710.67 556.14l-5.71 5.44v38.85l5.71-5.43v-38.86z"/><path id="_路径_206" data-name="&lt;路径&gt;" class="cls-22" d="M629.54 556.14l-5.71 5.44h81.13l5.71-5.44h-81.13z"/><g id="_编组_101" data-name="&lt;编组&gt;"><path id="_复合路径_73" data-name="&lt;复合路径&gt;" class="cls-20" d="M797.29 600.43h-81.13v-38.85h81.13z"/></g><path id="_路径_207" data-name="&lt;路径&gt;" class="cls-21" d="M803.01 556.14l-5.72 5.44v38.85l5.72-5.43v-38.86z"/><path id="_路径_208" data-name="&lt;路径&gt;" class="cls-22" d="M721.88 556.14l-5.72 5.44h81.13l5.72-5.44h-81.13z"/><g id="_编组_102" data-name="&lt;编组&gt;"><path id="_复合路径_74" data-name="&lt;复合路径&gt;" class="cls-20" d="M889.63 600.43H808.5v-38.85h81.13z"/></g><path id="_路径_209" data-name="&lt;路径&gt;" class="cls-21" d="M895.35 556.14l-5.72 5.44v38.85l5.72-5.43v-38.86z"/><path id="_路径_210" data-name="&lt;路径&gt;" class="cls-22" d="M814.22 556.14l-5.72 5.44h81.13l5.72-5.44h-81.13z"/></g><g id="_编组_103" data-name="&lt;编组&gt;"><g id="_编组_104" data-name="&lt;编组&gt;"><path id="_复合路径_75" data-name="&lt;复合路径&gt;" class="cls-20" d="M697.84 537.69h-81.13v-38.86h81.13z"/></g><text class="cls-28" transform="matrix(.9 0 0 1 641.43 516.21)">Public<tspan x="-17.97" y="10.77">Relationship</tspan></text><path id="_路径_211" data-name="&lt;路径&gt;" class="cls-21" d="M703.55 493.4l-5.71 5.43v38.86l5.71-5.44V493.4z"/><path id="_路径_212" data-name="&lt;路径&gt;" class="cls-22" d="M622.42 493.4l-5.71 5.43h81.13l5.71-5.43h-81.13z"/><g id="_编组_105" data-name="&lt;编组&gt;"><path id="_复合路径_76" data-name="&lt;复合路径&gt;" class="cls-20" d="M790.18 537.69h-81.13v-38.86h81.13z"/></g><path id="_路径_213" data-name="&lt;路径&gt;" class="cls-21" d="M795.89 493.4l-5.71 5.43v38.86l5.71-5.44V493.4z"/><path id="_路径_214" data-name="&lt;路径&gt;" class="cls-22" d="M714.76 493.4l-5.71 5.43h81.13l5.71-5.43h-81.13z"/><g id="_编组_106" data-name="&lt;编组&gt;"><path id="_复合路径_77" data-name="&lt;复合路径&gt;" class="cls-20" d="M882.52 537.69h-81.13v-38.86h81.13z"/></g><path id="_路径_215" data-name="&lt;路径&gt;" class="cls-21" d="M888.23 493.4l-5.72 5.43v38.86l5.72-5.44V493.4z"/><path id="_路径_216" data-name="&lt;路径&gt;" class="cls-22" d="M807.1 493.4l-5.72 5.43h81.13l5.72-5.43H807.1z"/><g id="_编组_107" data-name="&lt;编组&gt;"><path id="_复合路径_78" data-name="&lt;复合路径&gt;" class="cls-20" d="M697.84 607.34h-81.13v-38.85h81.13z"/></g><path id="_路径_217" data-name="&lt;路径&gt;" class="cls-21" d="M703.55 563.05l-5.71 5.44v38.85l5.71-5.43v-38.86z"/><path id="_路径_218" data-name="&lt;路径&gt;" class="cls-22" d="M622.42 563.05l-5.71 5.44h81.13l5.71-5.44h-81.13z"/><g id="_编组_108" data-name="&lt;编组&gt;"><path id="_复合路径_79" data-name="&lt;复合路径&gt;" class="cls-20" d="M790.18 607.34h-81.13v-38.85h81.13z"/></g><path id="_路径_219" data-name="&lt;路径&gt;" class="cls-21" d="M795.89 563.05l-5.71 5.44v38.85l5.71-5.43v-38.86z"/><path id="_路径_220" data-name="&lt;路径&gt;" class="cls-22" d="M714.76 563.05l-5.71 5.44h81.13l5.71-5.44h-81.13z"/><g id="_编组_109" data-name="&lt;编组&gt;"><path id="_复合路径_80" data-name="&lt;复合路径&gt;" class="cls-20" d="M882.52 607.34h-81.13v-38.85h81.13z"/></g><path id="_路径_221" data-name="&lt;路径&gt;" class="cls-21" d="M888.23 563.05l-5.72 5.44v38.85l5.72-5.43v-38.86z"/><path id="_路径_222" data-name="&lt;路径&gt;" class="cls-22" d="M807.1 563.05l-5.72 5.44h81.13l5.72-5.44H807.1z"/><text class="cls-28" transform="matrix(.9 0 0 1 724.07 521.62)">Marketing</text><text class="cls-28" transform="matrix(.9 0 0 1 818.66 521.62)">Branding</text><text class="cls-28" transform="matrix(.9 0 0 1 642.4 585.52)">Client<tspan x="-21.2" y="10.77">Management</tspan></text><text class="cls-28" transform="matrix(.9 0 0 1 720.84 590.93)">Advertising</text><text class="cls-28" transform="matrix(.9 0 0 1 824.17 585.52)">Market<tspan x="-9.71" y="10.77">Campaign</tspan></text></g></g><text class="cls-7" transform="translate(941.66 440.85)" id="_编组_110" data-name="&lt;编组&gt;">Investor</text></g></g></svg>