<svg xmlns="http://www.w3.org/2000/svg" viewBox="0 0 156.78 180.49"><defs><style>.cls-1,.cls-2{fill:none;stroke:#f3b12d;stroke-linecap:round;stroke-linejoin:round}.cls-2{stroke:#00c3ff}</style><linearGradient id="未命名的渐变_43" x1="84.88" y1="143.28" x2="84.88" y2="59.62" gradientUnits="userSpaceOnUse"><stop offset=".01" stop-color="#00c3ff"/><stop offset=".21" stop-color="#00bffb"/><stop offset=".42" stop-color="#00b2ef"/><stop offset=".64" stop-color="#009edb"/><stop offset=".85" stop-color="#0081bf"/><stop offset="1" stop-color="#0068a7"/></linearGradient></defs><g id="图层_2" data-name="图层 2"><g id="图层_1-2" data-name="图层 1"><g id="_编组_" data-name="&lt;编组&gt;"><g id="_编组_2" data-name="&lt;编组&gt;"><path id="_路径_" data-name="&lt;路径&gt;" class="cls-1" d="M78.39 167.82l-67.34-38.66V51.28L.5 45.19v90.09l77.89 44.71v-12.17z"/><path id="_路径_2" data-name="&lt;路径&gt;" class="cls-1" d="M145.74 51.28v77.88l-67.35 38.66v12.17l67.35-38.65v.03l10.54-6.09V45.19l-10.54 6.09z"/><path id="_路径_3" data-name="&lt;路径&gt;" class="cls-1" d="M78.39 12.68l-67.34 38.6v77.91l10.54-6.08V57.42l56.8-32.6V12.68z"/><path id="_路径_4" data-name="&lt;路径&gt;" class="cls-1" d="M78.39 12.68l-67.34 38.6v77.91l10.54-6.08V57.42l56.8-32.6V12.68z"/><path id="_路径_5" data-name="&lt;路径&gt;" class="cls-1" d="M107.48 41.51l27.71 15.91v65.69l10.55 6.08V51.28l-67.35-38.6v12.14l4.72 2.71"/><path id="_路径_6" data-name="&lt;路径&gt;" class="cls-1" d="M145.74 51.28l10.53-6.08L78.39.5v12.18l67.31 38.63.04-.03z"/><g id="_编组_3" data-name="&lt;编组&gt;"><path id="_路径_7" data-name="&lt;路径&gt;" class="cls-1" d="M43.93 135.92l-22.34-12.81-10.54 6.08 32.88 18.86v-12.13z"/><path id="_路径_8" data-name="&lt;路径&gt;" class="cls-1" d="M135.19 123.11L78.4 155.68l-13.32-7.63-.06.04-10.48 6.05 23.85 13.68 67.35-38.63-10.55-6.08z"/></g><path id="_路径_9" data-name="&lt;路径&gt;" class="cls-1" d="M.52 45.2l10.53 6.08.01.04 67.33-38.64V.5L.52 45.2z"/></g><path id="_路径_10" data-name="&lt;路径&gt;" class="cls-2" d="M100.13 74.63a33.11 33.11 0 0 0 4.29-16.69c0-4.42-.84-7.73-2.52-9.9a6.21 6.21 0 0 0-6.66-2.4 13.1 13.1 0 0 0-1.94.66 23.47 23.47 0 0 1 .58 5.55 33.11 33.11 0 0 1-4.29 16.69Q85.29 76.07 75.07 82l-10 5.8V100l20.6-11.89q10.17-5.96 14.46-13.48z"/><g id="_编组_4" data-name="&lt;编组&gt;"><path id="_复合路径_" data-name="&lt;复合路径&gt;" d="M54.47 154.18V55.76l30.06-17.35a74.61 74.61 0 0 1 12.12-6c3.92-1.4 7.19-1.64 9.84-.74s4.77 3.08 6.39 6.52a30.78 30.78 0 0 1 2.42 13 59.33 59.33 0 0 1-6.47 26.56q-6.48 13.08-23.38 22.84L65 112.43v35.66zM65 100l20.6-11.89q10.22-5.91 14.51-13.43a33.11 33.11 0 0 0 4.29-16.69c0-4.42-.84-7.73-2.52-9.9a6.21 6.21 0 0 0-6.66-2.4q-2.67.6-9.84 4.74L65 62.15z" stroke="#00c3ff" stroke-linecap="round" stroke-linejoin="round"/></g><path id="_路径_11" data-name="&lt;路径&gt;" class="cls-2" d="M97.48 26.29a8.2 8.2 0 0 0-1.48-.7q-4-1.35-9.84.74a74.61 74.61 0 0 0-12.12 6L43.93 49.67l10.54 6.09 30.06-17.35a74.61 74.61 0 0 1 12.12-6c3.92-1.4 7.19-1.64 9.84-.74a8.57 8.57 0 0 1 1.65.78z"/><g id="_编组_5" data-name="&lt;编组&gt;"><path id="_复合路径_2" data-name="&lt;复合路径&gt;" class="cls-2" d="M43.93 148.09V49.67l10.54 6.09v98.42z"/></g><g id="_编组_6" data-name="&lt;编组&gt;"><path id="_复合路径_3" data-name="&lt;复合路径&gt;" d="M54.47 154.18V55.76l30.06-17.35a74.61 74.61 0 0 1 12.12-6c3.92-1.4 7.19-1.64 9.84-.74s4.77 3.08 6.39 6.52a30.78 30.78 0 0 1 2.42 13 59.33 59.33 0 0 1-6.47 26.56q-6.48 13.08-23.38 22.84L65 112.43v35.66zM65 100l20.6-11.89q10.22-5.91 14.51-13.43a33.11 33.11 0 0 0 4.29-16.69c0-4.42-.84-7.73-2.52-9.9a6.21 6.21 0 0 0-6.66-2.4q-2.67.6-9.84 4.74L65 62.15z" fill="url(#未命名的渐变_43)"/></g></g></g></g></svg>