<svg xmlns="http://www.w3.org/2000/svg" viewBox="0 0 149.49 62.25"><defs><style>.cls-1{fill:#f3b12d;}.cls-2{fill:#fff;}</style></defs><title>资源 3</title><g id="图层_2" data-name="图层 2"><g id="图层_1-2" data-name="图层 1"><g id="_编组_" data-name="&lt;编组&gt;"><rect id="_路径_" data-name="&lt;路径&gt;" class="cls-1" width="62.25" height="62.25"/><g id="_编组_2" data-name="&lt;编组&gt;"><path id="_路径_2" data-name="&lt;路径&gt;" d="M41.07,15.64a15.8,15.8,0,0,1-9,14.24l-1.86.88L45,62.25h4.54l-14-29.62A20,20,0,0,0,43.29,24c0,.39,0,.79,0,1.18a19,19,0,0,0,19,19v-4.1a14.9,14.9,0,0,1,0-29.79V6.22A19,19,0,0,0,45.13,17c0-.45,0-.9,0-1.35A19.82,19.82,0,0,0,37.53,0H27.07A15.76,15.76,0,0,1,41.07,15.64Z"/><path id="_路径_3" data-name="&lt;路径&gt;" d="M27.84,48.43A18,18,0,0,0,14,30.92V0H9.91V30.43H0v4.11H9.84a13.89,13.89,0,0,1,1.4,27.71H21.36A18,18,0,0,0,27.84,48.43Z"/></g><g id="_编组_3" data-name="&lt;编组&gt;"><path id="_复合路径_" data-name="&lt;复合路径&gt;" class="cls-2" d="M77.35.56c2.5,0,3.36,1.26,3.36,2.72V8c0,1.44-.86,2.72-3.36,2.72H73.58V.56ZM75.5,9h1.66c1.29,0,1.64-.52,1.64-1.49V3.74c0-1-.35-1.49-1.64-1.49H75.5Z"/><path id="_复合路径_2" data-name="&lt;复合路径&gt;" class="cls-2" d="M82.08,2.24V.09h1.86V2.24Zm0,8.45V3.28h1.86v7.41Z"/><path id="_复合路径_3" data-name="&lt;复合路径&gt;" class="cls-2" d="M87.75,10.84a8.79,8.79,0,0,1-2.55-.42L85.46,9a8.33,8.33,0,0,0,2.2.32c.82,0,1-.18,1-.74s-.1-.69-1.3-1c-1.81-.44-2-.89-2-2.32S86,3.13,88.06,3.13a9.63,9.63,0,0,1,2.22.26L90.1,4.87a12.73,12.73,0,0,0-2-.22c-.81,0-.94.19-.94.64s0,.64,1,.9c2.07.55,2.27.82,2.27,2.34S90,10.84,87.75,10.84Z"/><path id="_复合路径_4" data-name="&lt;复合路径&gt;" class="cls-2" d="M95.59,10.55a5.12,5.12,0,0,1-1.63.29c-1.35,0-2-.64-2-2V4.76H90.81V3.28h1.11V1.44l1.86-.25V3.28h1.9l-.12,1.48H93.78V8.64a.58.58,0,0,0,.67.65,3.59,3.59,0,0,0,.92-.15Z"/><path id="_复合路径_5" data-name="&lt;复合路径&gt;" class="cls-2" d="M100.25,4.84a14.39,14.39,0,0,0-2,1.07v4.78H96.44V3.28H98l.13.83a8,8,0,0,1,1.94-1Z"/><path id="_复合路径_6" data-name="&lt;复合路径&gt;" class="cls-2" d="M100.89,2.24V.09h1.86V2.24Zm0,8.45V3.28h1.86v7.41Z"/><path id="_复合路径_7" data-name="&lt;复合路径&gt;" class="cls-2" d="M110.55,7.85c0,1.79-.55,3-3.41,3a16.07,16.07,0,0,1-2.87-.26V.26L106.12,0V3.57a6.3,6.3,0,0,1,2.19-.44c1.6,0,2.24,1,2.24,2.54ZM106.12,9.2a9.66,9.66,0,0,0,1.11.06c1.22,0,1.46-.49,1.46-1.35V5.63c0-.6-.26-.92-.94-.92a4.38,4.38,0,0,0-1.63.43Z"/><path id="_复合路径_8" data-name="&lt;复合路径&gt;" class="cls-2" d="M113.47,3.28V8.45c0,.4.17.6.59.6A5.12,5.12,0,0,0,116,8.42V3.28h1.86v7.41h-1.42l-.18-.62a7.53,7.53,0,0,1-3,.77c-1.24,0-1.68-.87-1.68-2.19V3.28Z"/><path id="_复合路径_9" data-name="&lt;复合路径&gt;" class="cls-2" d="M123.31,10.55a5.12,5.12,0,0,1-1.63.29c-1.35,0-2-.64-2-2V4.76h-1.11V3.28h1.11V1.44l1.86-.25V3.28h1.9l-.12,1.48H121.5V8.64a.58.58,0,0,0,.67.65,3.59,3.59,0,0,0,.92-.15Z"/><path id="_复合路径_10" data-name="&lt;复合路径&gt;" class="cls-2" d="M127.12,9.32A7.9,7.9,0,0,0,129.39,9l.29,1.4a7.94,7.94,0,0,1-2.72.47c-2.33,0-3.14-1.08-3.14-2.86V6c0-1.56.7-2.89,3.08-2.89s2.9,1.39,2.9,3V7.69h-4.12v.38C125.68,9,126,9.32,127.12,9.32ZM125.68,6.2H128V5.84c0-.7-.22-1.19-1.13-1.19a1.07,1.07,0,0,0-1.23,1.19Z"/><path id="_复合路径_11" data-name="&lt;复合路径&gt;" class="cls-2" d="M130.56,5.75c0-1.64.73-2.62,2.45-2.62a9.51,9.51,0,0,1,2,.22V.26L136.84,0V10.69h-1.48l-.18-.62a3.88,3.88,0,0,1-2.34.77c-1.49,0-2.28-.88-2.28-2.57ZM135,4.91a8.66,8.66,0,0,0-1.64-.2c-.67,0-.93.32-.93,1V8.32c0,.61.23.94.92.94A2.56,2.56,0,0,0,135,8.59Z"/><path id="_复合路径_12" data-name="&lt;复合路径&gt;" class="cls-2" d="M79.65,27.83l-2.33-3.35H75.5v3.35H73.58V17.7h4.15c2.36,0,3.23,1,3.23,2.74v1.32a2.31,2.31,0,0,1-1.52,2.45L82,27.83Zm-2-8.44H75.5v3.43h2.16c1,0,1.38-.38,1.38-1.23v-1C79,19.74,78.68,19.39,77.66,19.39Z"/><path id="_复合路径_13" data-name="&lt;复合路径&gt;" class="cls-2" d="M85.75,26.46A7.83,7.83,0,0,0,88,26.11l.29,1.4a7.9,7.9,0,0,1-2.72.47c-2.33,0-3.13-1.08-3.13-2.86v-2c0-1.57.7-2.89,3.07-2.89s2.9,1.38,2.9,3v1.58H84.3v.38C84.3,26.11,84.62,26.46,85.75,26.46ZM84.3,23.34h2.36V23c0-.7-.21-1.19-1.13-1.19A1.07,1.07,0,0,0,84.3,23Z"/><path id="_复合路径_14" data-name="&lt;复合路径&gt;" class="cls-2" d="M91.59,25.83a.8.8,0,0,0-.44.6c0,.19.12.29.41.32L93.7,27a1.55,1.55,0,0,1,1.58,1.8c0,1.58-.58,2.2-3.34,2.2a10.65,10.65,0,0,1-2.86-.38l.23-1.38a10.11,10.11,0,0,0,2.49.32c1.47,0,1.76-.11,1.76-.59s-.13-.54-.7-.6l-2.14-.24c-1-.12-1.46-.47-1.46-1.41A1.58,1.58,0,0,1,90,25.42a2.14,2.14,0,0,1-1-2v-.7c0-1.53.84-2.46,3-2.46a5.06,5.06,0,0,1,1.26.15h2.29v.93l-.83.23A2.5,2.5,0,0,1,95,22.73v.7c0,1.51-.91,2.42-3,2.42A2.82,2.82,0,0,1,91.59,25.83ZM92,21.76c-.91,0-1.23.33-1.23,1v.57c0,.73.37,1,1.23,1s1.25-.29,1.25-1v-.57C93.26,22.09,92.94,21.76,92,21.76Z"/><path id="_复合路径_15" data-name="&lt;复合路径&gt;" class="cls-2" d="M100.25,27.69a5,5,0,0,1-1.62.29c-1.36,0-2-.64-2-2V21.9H95.48V20.42h1.11V18.58l1.85-.26v2.1h1.91l-.13,1.48H98.44v3.87a.59.59,0,0,0,.67.66,3.6,3.6,0,0,0,.93-.15Z"/><path id="_复合路径_16" data-name="&lt;复合路径&gt;" class="cls-2" d="M104.07,26.46a7.9,7.9,0,0,0,2.27-.35l.29,1.4a8,8,0,0,1-2.73.47c-2.32,0-3.13-1.08-3.13-2.86v-2c0-1.57.7-2.89,3.07-2.89s2.91,1.38,2.91,3v1.58h-4.12v.38C102.63,26.11,103,26.46,104.07,26.46Zm-1.44-3.12H105V23c0-.7-.21-1.19-1.12-1.19A1.07,1.07,0,0,0,102.63,23Z"/><path id="_复合路径_17" data-name="&lt;复合路径&gt;" class="cls-2" d="M107.48,25.13v-2c0-2,.86-2.84,3.19-2.84a6.46,6.46,0,0,1,1.81.27l-.23,1.52a7.07,7.07,0,0,0-1.53-.19c-1.07,0-1.39.31-1.39,1.23v2c0,.91.32,1.23,1.39,1.23a6.07,6.07,0,0,0,1.53-.2l.23,1.52a6,6,0,0,1-1.81.28C108.34,28,107.48,27.13,107.48,25.13Z"/><path id="_复合路径_18" data-name="&lt;复合路径&gt;" class="cls-2" d="M118,27.83V22.66c0-.4-.16-.6-.59-.6a5.12,5.12,0,0,0-1.93.63v5.14h-1.86V17.4l1.86-.26V21a6.63,6.63,0,0,1,2.71-.71c1.23,0,1.67.87,1.67,2.19v5.37Z"/><path id="_复合路径_19" data-name="&lt;复合路径&gt;" class="cls-2" d="M73.35,37.62c0-1.86,1.08-2.94,3.61-2.94a11.63,11.63,0,0,1,2.75.34l-.21,1.66A14.14,14.14,0,0,0,77,36.42c-1.32,0-1.75.45-1.75,1.53v3.9c0,1.08.43,1.53,1.75,1.53a14.14,14.14,0,0,0,2.48-.26l.21,1.66a11.64,11.64,0,0,1-2.75.33c-2.53,0-3.61-1.07-3.61-2.93Z"/><path id="_复合路径_20" data-name="&lt;复合路径&gt;" class="cls-2" d="M83.74,45.11c-2.54,0-3.22-1.39-3.22-2.91V40.33c0-1.53.68-2.92,3.22-2.92S87,38.8,87,40.33V42.2C87,43.72,86.28,45.11,83.74,45.11Zm0-6.12c-1,0-1.37.44-1.37,1.27v2c0,.83.38,1.27,1.37,1.27s1.37-.44,1.37-1.27v-2C85.11,39.43,84.73,39,83.74,39Z"/><path id="_复合路径_21" data-name="&lt;复合路径&gt;" class="cls-2" d="M88.15,45V34.53L90,34.27V45Z"/><path id="_复合路径_22" data-name="&lt;复合路径&gt;" class="cls-2" d="M91.53,45V34.53l1.85-.26V45Z"/><path id="_复合路径_23" data-name="&lt;复合路径&gt;" class="cls-2" d="M100.39,45H98.87l-.14-.5a4.05,4.05,0,0,1-2.2.65c-1.35,0-1.93-.92-1.93-2.2,0-1.51.65-2.08,2.16-2.08h1.78v-.78c0-.82-.23-1.11-1.42-1.11a10.06,10.06,0,0,0-2.05.23l-.23-1.41a9.39,9.39,0,0,1,2.54-.35c2.33,0,3,.82,3,2.67Zm-1.85-2.79H97.17c-.61,0-.78.16-.78.72s.17.75.75.75a2.92,2.92,0,0,0,1.4-.38Z"/><path id="_复合路径_24" data-name="&lt;复合路径&gt;" class="cls-2" d="M108,42.12c0,1.79-.55,3-3.41,3a17,17,0,0,1-2.87-.25V34.53l1.85-.26v3.58a6.08,6.08,0,0,1,2.19-.44c1.6,0,2.24,1,2.24,2.54Zm-4.43,1.35a7.83,7.83,0,0,0,1.11.06c1.22,0,1.46-.48,1.46-1.35V39.9c0-.59-.25-.91-.94-.91a4.37,4.37,0,0,0-1.63.42Z"/><path id="_复合路径_25" data-name="&lt;复合路径&gt;" class="cls-2" d="M112.07,45.11c-2.54,0-3.22-1.39-3.22-2.91V40.33c0-1.53.68-2.92,3.22-2.92s3.22,1.39,3.22,2.92V42.2C115.29,43.72,114.61,45.11,112.07,45.11Zm0-6.12c-1,0-1.37.44-1.37,1.27v2c0,.83.38,1.27,1.37,1.27s1.37-.44,1.37-1.27v-2C113.44,39.43,113.06,39,112.07,39Z"/><path id="_复合路径_26" data-name="&lt;复合路径&gt;" class="cls-2" d="M120.3,39.11a14,14,0,0,0-2,1.08V45h-1.85v-7.4h1.57l.12.82a8.35,8.35,0,0,1,1.94-1Z"/><path id="_复合路径_27" data-name="&lt;复合路径&gt;" class="cls-2" d="M126.42,45H124.9l-.13-.5a4.06,4.06,0,0,1-2.21.65c-1.35,0-1.93-.92-1.93-2.2,0-1.51.65-2.08,2.16-2.08h1.78v-.78c0-.82-.23-1.11-1.42-1.11a10.22,10.22,0,0,0-2.05.23l-.23-1.41a9.39,9.39,0,0,1,2.54-.35c2.33,0,3,.82,3,2.67Zm-1.85-2.79H123.2c-.61,0-.78.16-.78.72s.17.75.75.75a2.89,2.89,0,0,0,1.4-.38Z"/><path id="_复合路径_28" data-name="&lt;复合路径&gt;" class="cls-2" d="M131.73,44.83a5.3,5.3,0,0,1-1.63.28c-1.35,0-2-.63-2-2V39H127V37.56h1.11V35.72l1.85-.26v2.1h1.9L131.7,39h-1.78v3.88c0,.4.18.65.67.65a3.66,3.66,0,0,0,.93-.15Z"/><path id="_复合路径_29" data-name="&lt;复合路径&gt;" class="cls-2" d="M132.58,36.51V34.36h1.86v2.15Zm0,8.45v-7.4h1.86V45Z"/><path id="_复合路径_30" data-name="&lt;复合路径&gt;" class="cls-2" d="M138.85,45.11c-2.54,0-3.23-1.39-3.23-2.91V40.33c0-1.53.69-2.92,3.23-2.92s3.22,1.39,3.22,2.92V42.2C142.07,43.72,141.39,45.11,138.85,45.11Zm0-6.12c-1,0-1.37.44-1.37,1.27v2c0,.83.38,1.27,1.37,1.27s1.37-.44,1.37-1.27v-2C140.22,39.43,139.84,39,138.85,39Z"/><path id="_复合路径_31" data-name="&lt;复合路径&gt;" class="cls-2" d="M147.64,45V39.79c0-.39-.17-.59-.6-.59a5.13,5.13,0,0,0-1.93.62V45h-1.85v-7.4h1.41l.18.62a7.53,7.53,0,0,1,3-.77c1.23,0,1.67.86,1.67,2.19V45Z"/><path id="_复合路径_32" data-name="&lt;复合路径&gt;" class="cls-2" d="M73.58,52h4c2.34,0,3.2,1,3.2,2.74v1.38c0,1.77-.94,2.73-3.3,2.73H75.5V62.1H73.58Zm3.85,1.69H75.5v3.47h1.93c1.08,0,1.4-.4,1.4-1.23v-1C78.83,54,78.48,53.66,77.43,53.66Z"/><path id="_复合路径_33" data-name="&lt;复合路径&gt;" class="cls-2" d="M81.66,62.1V51.67l1.85-.26V62.1Z"/><path id="_复合路径_34" data-name="&lt;复合路径&gt;" class="cls-2" d="M90.52,62.1H89l-.14-.5a4,4,0,0,1-2.2.65c-1.35,0-1.93-.93-1.93-2.2,0-1.51.65-2.09,2.16-2.09h1.78v-.77c0-.82-.23-1.11-1.42-1.11a10.06,10.06,0,0,0-2,.23L85,54.89a9.8,9.8,0,0,1,2.54-.35c2.33,0,3,.82,3,2.68Zm-1.85-2.8H87.3c-.61,0-.78.17-.78.73s.17.75.75.75a3,3,0,0,0,1.4-.38Z"/><path id="_复合路径_35" data-name="&lt;复合路径&gt;" class="cls-2" d="M95.83,62a5.12,5.12,0,0,1-1.63.29c-1.35,0-2-.64-2-2V56.17H91.05V54.69h1.11V52.85L94,52.6v2.09h1.9l-.12,1.48H94v3.88a.58.58,0,0,0,.67.65,3.66,3.66,0,0,0,.93-.15Z"/><path id="_复合路径_36" data-name="&lt;复合路径&gt;" class="cls-2" d="M100.94,53a5.16,5.16,0,0,0-1.07-.12c-.73,0-.83.31-.83.88v.92h1.88l-.1,1.48H99V62.1H97.18V56.17H96V54.69h1.18v-1c0-1.53.72-2.3,2.36-2.3a5.78,5.78,0,0,1,1.6.22Z"/><path id="_复合路径_37" data-name="&lt;复合路径&gt;" class="cls-2" d="M104.48,62.25c-2.54,0-3.22-1.4-3.22-2.92V57.46c0-1.52.68-2.92,3.22-2.92s3.22,1.4,3.22,2.92v1.87C107.7,60.85,107,62.25,104.48,62.25Zm0-6.13c-1,0-1.37.44-1.37,1.28v2c0,.84.38,1.28,1.37,1.28s1.37-.44,1.37-1.28v-2C105.85,56.56,105.47,56.12,104.48,56.12Z"/><path id="_复合路径_38" data-name="&lt;复合路径&gt;" class="cls-2" d="M112.71,56.25a12.94,12.94,0,0,0-2,1.08V62.1h-1.86V54.69h1.57l.12.83a8.24,8.24,0,0,1,2-1Z"/><path id="_复合路径_39" data-name="&lt;复合路径&gt;" class="cls-2" d="M117.73,62.1V56.93c0-.4-.17-.59-.6-.59a5.13,5.13,0,0,0-1.93.62V62.1h-1.85V54.69h1.41l.18.63a7.38,7.38,0,0,1,3-.78,1.42,1.42,0,0,1,1.4.79,7.32,7.32,0,0,1,3-.79c1.23,0,1.67.87,1.67,2.19V62.1H122.1V56.93c0-.4-.16-.59-.59-.59a5,5,0,0,0-1.93.62V62.1Z"/></g></g></g></g></svg>